G04 #@! TF.GenerationSoftware,KiCad,Pcbnew,(5.1.9-0-10_14)*
G04 #@! TF.CreationDate,2021-05-16T20:01:38-04:00*
G04 #@! TF.ProjectId,rw-piggyback,72772d70-6967-4677-9962-61636b2e6b69,rev?*
G04 #@! TF.SameCoordinates,Original*
G04 #@! TF.FileFunction,Legend,Top*
G04 #@! TF.FilePolarity,Positive*
%FSLAX46Y46*%
G04 Gerber Fmt 4.6, Leading zero omitted, Abs format (unit mm)*
G04 Created by KiCad (PCBNEW (5.1.9-0-10_14)) date 2021-05-16 20:01:38*
%MOMM*%
%LPD*%
G01*
G04 APERTURE LIST*
%ADD10C,0.150000*%
%ADD11C,0.120000*%
%ADD12C,0.175000*%
%ADD13C,0.010000*%
G04 APERTURE END LIST*
D10*
X196335595Y-92557619D02*
X196335595Y-92176666D01*
X195954642Y-92138571D01*
X195992738Y-92176666D01*
X196030833Y-92252857D01*
X196030833Y-92443333D01*
X195992738Y-92519523D01*
X195954642Y-92557619D01*
X195878452Y-92595714D01*
X195687976Y-92595714D01*
X195611785Y-92557619D01*
X195573690Y-92519523D01*
X195535595Y-92443333D01*
X195535595Y-92252857D01*
X195573690Y-92176666D01*
X195611785Y-92138571D01*
X196335595Y-92824285D02*
X195535595Y-93090952D01*
X196335595Y-93357619D01*
X196297500Y-89560476D02*
X196335595Y-89484285D01*
X196335595Y-89370000D01*
X196297500Y-89255714D01*
X196221309Y-89179523D01*
X196145119Y-89141428D01*
X195992738Y-89103333D01*
X195878452Y-89103333D01*
X195726071Y-89141428D01*
X195649880Y-89179523D01*
X195573690Y-89255714D01*
X195535595Y-89370000D01*
X195535595Y-89446190D01*
X195573690Y-89560476D01*
X195611785Y-89598571D01*
X195878452Y-89598571D01*
X195878452Y-89446190D01*
X195535595Y-89941428D02*
X196335595Y-89941428D01*
X195535595Y-90398571D01*
X196335595Y-90398571D01*
X195535595Y-90779523D02*
X196335595Y-90779523D01*
X196335595Y-90970000D01*
X196297500Y-91084285D01*
X196221309Y-91160476D01*
X196145119Y-91198571D01*
X195992738Y-91236666D01*
X195878452Y-91236666D01*
X195726071Y-91198571D01*
X195649880Y-91160476D01*
X195573690Y-91084285D01*
X195535595Y-90970000D01*
X195535595Y-90779523D01*
D11*
X182245000Y-113030000D02*
G75*
G03*
X182245000Y-113030000I-2540000J0D01*
G01*
X128905000Y-113030000D02*
G75*
G03*
X128905000Y-113030000I-2540000J0D01*
G01*
D10*
X205112380Y-113775833D02*
X205160000Y-113823452D01*
X205207619Y-113918690D01*
X205207619Y-114156785D01*
X205160000Y-114252023D01*
X205112380Y-114299642D01*
X205017142Y-114347261D01*
X204921904Y-114347261D01*
X204779047Y-114299642D01*
X204207619Y-113728214D01*
X204207619Y-114347261D01*
X205207619Y-114966309D02*
X205207619Y-115061547D01*
X205160000Y-115156785D01*
X205112380Y-115204404D01*
X205017142Y-115252023D01*
X204826666Y-115299642D01*
X204588571Y-115299642D01*
X204398095Y-115252023D01*
X204302857Y-115204404D01*
X204255238Y-115156785D01*
X204207619Y-115061547D01*
X204207619Y-114966309D01*
X204255238Y-114871071D01*
X204302857Y-114823452D01*
X204398095Y-114775833D01*
X204588571Y-114728214D01*
X204826666Y-114728214D01*
X205017142Y-114775833D01*
X205112380Y-114823452D01*
X205160000Y-114871071D01*
X205207619Y-114966309D01*
X205112380Y-115680595D02*
X205160000Y-115728214D01*
X205207619Y-115823452D01*
X205207619Y-116061547D01*
X205160000Y-116156785D01*
X205112380Y-116204404D01*
X205017142Y-116252023D01*
X204921904Y-116252023D01*
X204779047Y-116204404D01*
X204207619Y-115632976D01*
X204207619Y-116252023D01*
X204207619Y-117204404D02*
X204207619Y-116632976D01*
X204207619Y-116918690D02*
X205207619Y-116918690D01*
X205064761Y-116823452D01*
X204969523Y-116728214D01*
X204921904Y-116632976D01*
X205255238Y-118347261D02*
X203969523Y-117490119D01*
X205207619Y-118871071D02*
X205207619Y-118966309D01*
X205160000Y-119061547D01*
X205112380Y-119109166D01*
X205017142Y-119156785D01*
X204826666Y-119204404D01*
X204588571Y-119204404D01*
X204398095Y-119156785D01*
X204302857Y-119109166D01*
X204255238Y-119061547D01*
X204207619Y-118966309D01*
X204207619Y-118871071D01*
X204255238Y-118775833D01*
X204302857Y-118728214D01*
X204398095Y-118680595D01*
X204588571Y-118632976D01*
X204826666Y-118632976D01*
X205017142Y-118680595D01*
X205112380Y-118728214D01*
X205160000Y-118775833D01*
X205207619Y-118871071D01*
X204874285Y-120061547D02*
X204207619Y-120061547D01*
X205255238Y-119823452D02*
X204540952Y-119585357D01*
X204540952Y-120204404D01*
X205255238Y-121299642D02*
X203969523Y-120442500D01*
X205207619Y-121823452D02*
X205207619Y-121918690D01*
X205160000Y-122013928D01*
X205112380Y-122061547D01*
X205017142Y-122109166D01*
X204826666Y-122156785D01*
X204588571Y-122156785D01*
X204398095Y-122109166D01*
X204302857Y-122061547D01*
X204255238Y-122013928D01*
X204207619Y-121918690D01*
X204207619Y-121823452D01*
X204255238Y-121728214D01*
X204302857Y-121680595D01*
X204398095Y-121632976D01*
X204588571Y-121585357D01*
X204826666Y-121585357D01*
X205017142Y-121632976D01*
X205112380Y-121680595D01*
X205160000Y-121728214D01*
X205207619Y-121823452D01*
X204207619Y-123109166D02*
X204207619Y-122537738D01*
X204207619Y-122823452D02*
X205207619Y-122823452D01*
X205064761Y-122728214D01*
X204969523Y-122632976D01*
X204921904Y-122537738D01*
X204207619Y-124299642D02*
X204874285Y-124299642D01*
X204683809Y-124299642D02*
X204779047Y-124347261D01*
X204826666Y-124394880D01*
X204874285Y-124490119D01*
X204874285Y-124585357D01*
X204255238Y-125299642D02*
X204207619Y-125204404D01*
X204207619Y-125013928D01*
X204255238Y-124918690D01*
X204350476Y-124871071D01*
X204731428Y-124871071D01*
X204826666Y-124918690D01*
X204874285Y-125013928D01*
X204874285Y-125204404D01*
X204826666Y-125299642D01*
X204731428Y-125347261D01*
X204636190Y-125347261D01*
X204540952Y-124871071D01*
X204874285Y-125680595D02*
X204207619Y-125918690D01*
X204874285Y-126156785D01*
X205112380Y-127252023D02*
X205160000Y-127299642D01*
X205207619Y-127394880D01*
X205207619Y-127632976D01*
X205160000Y-127728214D01*
X205112380Y-127775833D01*
X205017142Y-127823452D01*
X204921904Y-127823452D01*
X204779047Y-127775833D01*
X204207619Y-127204404D01*
X204207619Y-127823452D01*
X204302857Y-128252023D02*
X204255238Y-128299642D01*
X204207619Y-128252023D01*
X204255238Y-128204404D01*
X204302857Y-128252023D01*
X204207619Y-128252023D01*
X205112380Y-128680595D02*
X205160000Y-128728214D01*
X205207619Y-128823452D01*
X205207619Y-129061547D01*
X205160000Y-129156785D01*
X205112380Y-129204404D01*
X205017142Y-129252023D01*
X204921904Y-129252023D01*
X204779047Y-129204404D01*
X204207619Y-128632976D01*
X204207619Y-129252023D01*
X202557619Y-112585357D02*
X203557619Y-112585357D01*
X202605238Y-112585357D02*
X202557619Y-112490119D01*
X202557619Y-112299642D01*
X202605238Y-112204404D01*
X202652857Y-112156785D01*
X202748095Y-112109166D01*
X203033809Y-112109166D01*
X203129047Y-112156785D01*
X203176666Y-112204404D01*
X203224285Y-112299642D01*
X203224285Y-112490119D01*
X203176666Y-112585357D01*
X202605238Y-113442500D02*
X202557619Y-113347261D01*
X202557619Y-113156785D01*
X202605238Y-113061547D01*
X202700476Y-113013928D01*
X203081428Y-113013928D01*
X203176666Y-113061547D01*
X203224285Y-113156785D01*
X203224285Y-113347261D01*
X203176666Y-113442500D01*
X203081428Y-113490119D01*
X202986190Y-113490119D01*
X202890952Y-113013928D01*
X202605238Y-113871071D02*
X202557619Y-113966309D01*
X202557619Y-114156785D01*
X202605238Y-114252023D01*
X202700476Y-114299642D01*
X202748095Y-114299642D01*
X202843333Y-114252023D01*
X202890952Y-114156785D01*
X202890952Y-114013928D01*
X202938571Y-113918690D01*
X203033809Y-113871071D01*
X203081428Y-113871071D01*
X203176666Y-113918690D01*
X203224285Y-114013928D01*
X203224285Y-114156785D01*
X203176666Y-114252023D01*
X202557619Y-114728214D02*
X203224285Y-114728214D01*
X203557619Y-114728214D02*
X203510000Y-114680595D01*
X203462380Y-114728214D01*
X203510000Y-114775833D01*
X203557619Y-114728214D01*
X203462380Y-114728214D01*
X203224285Y-115632976D02*
X202414761Y-115632976D01*
X202319523Y-115585357D01*
X202271904Y-115537738D01*
X202224285Y-115442500D01*
X202224285Y-115299642D01*
X202271904Y-115204404D01*
X202605238Y-115632976D02*
X202557619Y-115537738D01*
X202557619Y-115347261D01*
X202605238Y-115252023D01*
X202652857Y-115204404D01*
X202748095Y-115156785D01*
X203033809Y-115156785D01*
X203129047Y-115204404D01*
X203176666Y-115252023D01*
X203224285Y-115347261D01*
X203224285Y-115537738D01*
X203176666Y-115632976D01*
X203224285Y-116109166D02*
X202557619Y-116109166D01*
X203129047Y-116109166D02*
X203176666Y-116156785D01*
X203224285Y-116252023D01*
X203224285Y-116394880D01*
X203176666Y-116490119D01*
X203081428Y-116537738D01*
X202557619Y-116537738D01*
X202557619Y-117775833D02*
X203557619Y-117775833D01*
X203176666Y-117775833D02*
X203224285Y-117871071D01*
X203224285Y-118061547D01*
X203176666Y-118156785D01*
X203129047Y-118204404D01*
X203033809Y-118252023D01*
X202748095Y-118252023D01*
X202652857Y-118204404D01*
X202605238Y-118156785D01*
X202557619Y-118061547D01*
X202557619Y-117871071D01*
X202605238Y-117775833D01*
X203224285Y-118585357D02*
X202557619Y-118823452D01*
X203224285Y-119061547D02*
X202557619Y-118823452D01*
X202319523Y-118728214D01*
X202271904Y-118680595D01*
X202224285Y-118585357D01*
X202557619Y-120775833D02*
X203033809Y-120442500D01*
X202557619Y-120204404D02*
X203557619Y-120204404D01*
X203557619Y-120585357D01*
X203510000Y-120680595D01*
X203462380Y-120728214D01*
X203367142Y-120775833D01*
X203224285Y-120775833D01*
X203129047Y-120728214D01*
X203081428Y-120680595D01*
X203033809Y-120585357D01*
X203033809Y-120204404D01*
X202605238Y-121585357D02*
X202557619Y-121490119D01*
X202557619Y-121299642D01*
X202605238Y-121204404D01*
X202700476Y-121156785D01*
X203081428Y-121156785D01*
X203176666Y-121204404D01*
X203224285Y-121299642D01*
X203224285Y-121490119D01*
X203176666Y-121585357D01*
X203081428Y-121632976D01*
X202986190Y-121632976D01*
X202890952Y-121156785D01*
X203224285Y-122061547D02*
X202557619Y-122061547D01*
X203129047Y-122061547D02*
X203176666Y-122109166D01*
X203224285Y-122204404D01*
X203224285Y-122347261D01*
X203176666Y-122442500D01*
X203081428Y-122490119D01*
X202557619Y-122490119D01*
X202605238Y-123347261D02*
X202557619Y-123252023D01*
X202557619Y-123061547D01*
X202605238Y-122966309D01*
X202700476Y-122918690D01*
X203081428Y-122918690D01*
X203176666Y-122966309D01*
X203224285Y-123061547D01*
X203224285Y-123252023D01*
X203176666Y-123347261D01*
X203081428Y-123394880D01*
X202986190Y-123394880D01*
X202890952Y-122918690D01*
X202605238Y-124204404D02*
X202557619Y-124109166D01*
X202557619Y-123918690D01*
X202605238Y-123823452D01*
X202700476Y-123775833D01*
X203081428Y-123775833D01*
X203176666Y-123823452D01*
X203224285Y-123918690D01*
X203224285Y-124109166D01*
X203176666Y-124204404D01*
X203081428Y-124252023D01*
X202986190Y-124252023D01*
X202890952Y-123775833D01*
X202557619Y-125442500D02*
X203557619Y-125442500D01*
X203081428Y-125442500D02*
X203081428Y-126013928D01*
X202557619Y-126013928D02*
X203557619Y-126013928D01*
X202557619Y-126918690D02*
X203081428Y-126918690D01*
X203176666Y-126871071D01*
X203224285Y-126775833D01*
X203224285Y-126585357D01*
X203176666Y-126490119D01*
X202605238Y-126918690D02*
X202557619Y-126823452D01*
X202557619Y-126585357D01*
X202605238Y-126490119D01*
X202700476Y-126442500D01*
X202795714Y-126442500D01*
X202890952Y-126490119D01*
X202938571Y-126585357D01*
X202938571Y-126823452D01*
X202986190Y-126918690D01*
X202557619Y-127394880D02*
X203224285Y-127394880D01*
X203033809Y-127394880D02*
X203129047Y-127442500D01*
X203176666Y-127490119D01*
X203224285Y-127585357D01*
X203224285Y-127680595D01*
X202557619Y-128013928D02*
X203557619Y-128013928D01*
X202938571Y-128109166D02*
X202557619Y-128394880D01*
X203224285Y-128394880D02*
X202843333Y-128013928D01*
X202605238Y-129204404D02*
X202557619Y-129109166D01*
X202557619Y-128918690D01*
X202605238Y-128823452D01*
X202700476Y-128775833D01*
X203081428Y-128775833D01*
X203176666Y-128823452D01*
X203224285Y-128918690D01*
X203224285Y-129109166D01*
X203176666Y-129204404D01*
X203081428Y-129252023D01*
X202986190Y-129252023D01*
X202890952Y-128775833D01*
D12*
X82286428Y-95530357D02*
X81372142Y-95530357D01*
X81600714Y-95758928D02*
X81372142Y-95530357D01*
X81600714Y-95301785D01*
X82172142Y-97301785D02*
X82172142Y-97758928D01*
X81372142Y-97473214D02*
X82400714Y-97473214D01*
X82515000Y-97530357D01*
X82572142Y-97644642D01*
X82572142Y-97758928D01*
X81372142Y-98158928D02*
X82172142Y-98158928D01*
X81943571Y-98158928D02*
X82057857Y-98216071D01*
X82115000Y-98273214D01*
X82172142Y-98387500D01*
X82172142Y-98501785D01*
X81372142Y-99073214D02*
X81429285Y-98958928D01*
X81486428Y-98901785D01*
X81600714Y-98844642D01*
X81943571Y-98844642D01*
X82057857Y-98901785D01*
X82115000Y-98958928D01*
X82172142Y-99073214D01*
X82172142Y-99244642D01*
X82115000Y-99358928D01*
X82057857Y-99416071D01*
X81943571Y-99473214D01*
X81600714Y-99473214D01*
X81486428Y-99416071D01*
X81429285Y-99358928D01*
X81372142Y-99244642D01*
X81372142Y-99073214D01*
X82172142Y-99987500D02*
X81372142Y-99987500D01*
X82057857Y-99987500D02*
X82115000Y-100044642D01*
X82172142Y-100158928D01*
X82172142Y-100330357D01*
X82115000Y-100444642D01*
X82000714Y-100501785D01*
X81372142Y-100501785D01*
X82172142Y-100901785D02*
X82172142Y-101358928D01*
X82572142Y-101073214D02*
X81543571Y-101073214D01*
X81429285Y-101130357D01*
X81372142Y-101244642D01*
X81372142Y-101358928D01*
X81372142Y-102844642D02*
X81429285Y-102730357D01*
X81486428Y-102673214D01*
X81600714Y-102616071D01*
X81943571Y-102616071D01*
X82057857Y-102673214D01*
X82115000Y-102730357D01*
X82172142Y-102844642D01*
X82172142Y-103016071D01*
X82115000Y-103130357D01*
X82057857Y-103187500D01*
X81943571Y-103244642D01*
X81600714Y-103244642D01*
X81486428Y-103187500D01*
X81429285Y-103130357D01*
X81372142Y-103016071D01*
X81372142Y-102844642D01*
X82172142Y-103587500D02*
X82172142Y-104044642D01*
X81372142Y-103758928D02*
X82400714Y-103758928D01*
X82515000Y-103816071D01*
X82572142Y-103930357D01*
X82572142Y-104044642D01*
X81429285Y-105873214D02*
X81372142Y-105758928D01*
X81372142Y-105530357D01*
X81429285Y-105416071D01*
X81486428Y-105358928D01*
X81600714Y-105301785D01*
X81943571Y-105301785D01*
X82057857Y-105358928D01*
X82115000Y-105416071D01*
X82172142Y-105530357D01*
X82172142Y-105758928D01*
X82115000Y-105873214D01*
X81372142Y-106901785D02*
X82000714Y-106901785D01*
X82115000Y-106844642D01*
X82172142Y-106730357D01*
X82172142Y-106501785D01*
X82115000Y-106387500D01*
X81429285Y-106901785D02*
X81372142Y-106787500D01*
X81372142Y-106501785D01*
X81429285Y-106387500D01*
X81543571Y-106330357D01*
X81657857Y-106330357D01*
X81772142Y-106387500D01*
X81829285Y-106501785D01*
X81829285Y-106787500D01*
X81886428Y-106901785D01*
X81429285Y-107416071D02*
X81372142Y-107530357D01*
X81372142Y-107758928D01*
X81429285Y-107873214D01*
X81543571Y-107930357D01*
X81600714Y-107930357D01*
X81715000Y-107873214D01*
X81772142Y-107758928D01*
X81772142Y-107587500D01*
X81829285Y-107473214D01*
X81943571Y-107416071D01*
X82000714Y-107416071D01*
X82115000Y-107473214D01*
X82172142Y-107587500D01*
X82172142Y-107758928D01*
X82115000Y-107873214D01*
X81429285Y-108901785D02*
X81372142Y-108787500D01*
X81372142Y-108558928D01*
X81429285Y-108444642D01*
X81543571Y-108387500D01*
X82000714Y-108387500D01*
X82115000Y-108444642D01*
X82172142Y-108558928D01*
X82172142Y-108787500D01*
X82115000Y-108901785D01*
X82000714Y-108958928D01*
X81886428Y-108958928D01*
X81772142Y-108387500D01*
X82286428Y-110844642D02*
X81372142Y-110844642D01*
X81600714Y-111073214D02*
X81372142Y-110844642D01*
X81600714Y-110616071D01*
D13*
G36*
X106863299Y-124384627D02*
G01*
X106844817Y-124606364D01*
X106792227Y-124849809D01*
X106709814Y-125101052D01*
X106601861Y-125346180D01*
X106522346Y-125491749D01*
X106404982Y-125662645D01*
X106257973Y-125836269D01*
X106095818Y-125997429D01*
X105933015Y-126130931D01*
X105873725Y-126171424D01*
X105790046Y-126225054D01*
X105724802Y-126267120D01*
X105689404Y-126290256D01*
X105686533Y-126292236D01*
X105684524Y-126323329D01*
X105701564Y-126389674D01*
X105733101Y-126479769D01*
X105774586Y-126582115D01*
X105821465Y-126685209D01*
X105869189Y-126777552D01*
X105896963Y-126823985D01*
X106021330Y-126993110D01*
X106169427Y-127156877D01*
X106331464Y-127306925D01*
X106497652Y-127434889D01*
X106658202Y-127532408D01*
X106790702Y-127587508D01*
X106858606Y-127613749D01*
X106901264Y-127641255D01*
X106906432Y-127648696D01*
X106910918Y-127687582D01*
X106912563Y-127764045D01*
X106911136Y-127863358D01*
X106910253Y-127890569D01*
X106902577Y-128102481D01*
X106771649Y-128056061D01*
X106462948Y-127919651D01*
X106180038Y-127740725D01*
X105926772Y-127524042D01*
X105707005Y-127274362D01*
X105524590Y-126996442D01*
X105383382Y-126695043D01*
X105287233Y-126374922D01*
X105253483Y-126181394D01*
X105236595Y-126050159D01*
X105375669Y-125981719D01*
X105633228Y-125826484D01*
X105861659Y-125631316D01*
X106056770Y-125402334D01*
X106214371Y-125145658D01*
X106330270Y-124867408D01*
X106400278Y-124573701D01*
X106413331Y-124466546D01*
X106431237Y-124270154D01*
X106863299Y-124254944D01*
X106863299Y-124384627D01*
G37*
X106863299Y-124384627D02*
X106844817Y-124606364D01*
X106792227Y-124849809D01*
X106709814Y-125101052D01*
X106601861Y-125346180D01*
X106522346Y-125491749D01*
X106404982Y-125662645D01*
X106257973Y-125836269D01*
X106095818Y-125997429D01*
X105933015Y-126130931D01*
X105873725Y-126171424D01*
X105790046Y-126225054D01*
X105724802Y-126267120D01*
X105689404Y-126290256D01*
X105686533Y-126292236D01*
X105684524Y-126323329D01*
X105701564Y-126389674D01*
X105733101Y-126479769D01*
X105774586Y-126582115D01*
X105821465Y-126685209D01*
X105869189Y-126777552D01*
X105896963Y-126823985D01*
X106021330Y-126993110D01*
X106169427Y-127156877D01*
X106331464Y-127306925D01*
X106497652Y-127434889D01*
X106658202Y-127532408D01*
X106790702Y-127587508D01*
X106858606Y-127613749D01*
X106901264Y-127641255D01*
X106906432Y-127648696D01*
X106910918Y-127687582D01*
X106912563Y-127764045D01*
X106911136Y-127863358D01*
X106910253Y-127890569D01*
X106902577Y-128102481D01*
X106771649Y-128056061D01*
X106462948Y-127919651D01*
X106180038Y-127740725D01*
X105926772Y-127524042D01*
X105707005Y-127274362D01*
X105524590Y-126996442D01*
X105383382Y-126695043D01*
X105287233Y-126374922D01*
X105253483Y-126181394D01*
X105236595Y-126050159D01*
X105375669Y-125981719D01*
X105633228Y-125826484D01*
X105861659Y-125631316D01*
X106056770Y-125402334D01*
X106214371Y-125145658D01*
X106330270Y-124867408D01*
X106400278Y-124573701D01*
X106413331Y-124466546D01*
X106431237Y-124270154D01*
X106863299Y-124254944D01*
X106863299Y-124384627D01*
G36*
X88242284Y-124236352D02*
G01*
X88478737Y-124285520D01*
X88699319Y-124355901D01*
X88888207Y-124444046D01*
X88919592Y-124462757D01*
X89030834Y-124532010D01*
X89030928Y-125096696D01*
X88893074Y-124992616D01*
X88696145Y-124867036D01*
X88474954Y-124765149D01*
X88245258Y-124692553D01*
X88022814Y-124654848D01*
X87931134Y-124650754D01*
X87842750Y-124656425D01*
X87729757Y-124671199D01*
X87630000Y-124689239D01*
X87370992Y-124768751D01*
X87136646Y-124890264D01*
X86930403Y-125048423D01*
X86755705Y-125237877D01*
X86615991Y-125453269D01*
X86514705Y-125689248D01*
X86455287Y-125940460D01*
X86441178Y-126201550D01*
X86475821Y-126467166D01*
X86478815Y-126480135D01*
X86563477Y-126728515D01*
X86693115Y-126959470D01*
X86861534Y-127166722D01*
X87062538Y-127343994D01*
X87289934Y-127485007D01*
X87537525Y-127583485D01*
X87578998Y-127594978D01*
X87741671Y-127623249D01*
X87928596Y-127633710D01*
X88114619Y-127625921D01*
X88244072Y-127606644D01*
X88376289Y-127578289D01*
X88376289Y-126090051D01*
X88847629Y-126090051D01*
X88847629Y-126964062D01*
X88847162Y-127215724D01*
X88845660Y-127419212D01*
X88842969Y-127578716D01*
X88838939Y-127698427D01*
X88833415Y-127782534D01*
X88826246Y-127835227D01*
X88817279Y-127860697D01*
X88814897Y-127863182D01*
X88767554Y-127889025D01*
X88685570Y-127924404D01*
X88584338Y-127963379D01*
X88479248Y-128000011D01*
X88389381Y-128027363D01*
X88313037Y-128041113D01*
X88200081Y-128053066D01*
X88066264Y-128062452D01*
X87927335Y-128068500D01*
X87799044Y-128070440D01*
X87697141Y-128067500D01*
X87656185Y-128063233D01*
X87338542Y-127987164D01*
X87045752Y-127866827D01*
X86781139Y-127705072D01*
X86548025Y-127504748D01*
X86349735Y-127268703D01*
X86189592Y-126999786D01*
X86072336Y-126705412D01*
X86037814Y-126562696D01*
X86012070Y-126391885D01*
X86000807Y-126259187D01*
X86008227Y-125942444D01*
X86063538Y-125640387D01*
X86163400Y-125356845D01*
X86304471Y-125095643D01*
X86483410Y-124860610D01*
X86696877Y-124655571D01*
X86941529Y-124484355D01*
X87214025Y-124350789D01*
X87511026Y-124258698D01*
X87785049Y-124215450D01*
X88005780Y-124211846D01*
X88242284Y-124236352D01*
G37*
X88242284Y-124236352D02*
X88478737Y-124285520D01*
X88699319Y-124355901D01*
X88888207Y-124444046D01*
X88919592Y-124462757D01*
X89030834Y-124532010D01*
X89030928Y-125096696D01*
X88893074Y-124992616D01*
X88696145Y-124867036D01*
X88474954Y-124765149D01*
X88245258Y-124692553D01*
X88022814Y-124654848D01*
X87931134Y-124650754D01*
X87842750Y-124656425D01*
X87729757Y-124671199D01*
X87630000Y-124689239D01*
X87370992Y-124768751D01*
X87136646Y-124890264D01*
X86930403Y-125048423D01*
X86755705Y-125237877D01*
X86615991Y-125453269D01*
X86514705Y-125689248D01*
X86455287Y-125940460D01*
X86441178Y-126201550D01*
X86475821Y-126467166D01*
X86478815Y-126480135D01*
X86563477Y-126728515D01*
X86693115Y-126959470D01*
X86861534Y-127166722D01*
X87062538Y-127343994D01*
X87289934Y-127485007D01*
X87537525Y-127583485D01*
X87578998Y-127594978D01*
X87741671Y-127623249D01*
X87928596Y-127633710D01*
X88114619Y-127625921D01*
X88244072Y-127606644D01*
X88376289Y-127578289D01*
X88376289Y-126090051D01*
X88847629Y-126090051D01*
X88847629Y-126964062D01*
X88847162Y-127215724D01*
X88845660Y-127419212D01*
X88842969Y-127578716D01*
X88838939Y-127698427D01*
X88833415Y-127782534D01*
X88826246Y-127835227D01*
X88817279Y-127860697D01*
X88814897Y-127863182D01*
X88767554Y-127889025D01*
X88685570Y-127924404D01*
X88584338Y-127963379D01*
X88479248Y-128000011D01*
X88389381Y-128027363D01*
X88313037Y-128041113D01*
X88200081Y-128053066D01*
X88066264Y-128062452D01*
X87927335Y-128068500D01*
X87799044Y-128070440D01*
X87697141Y-128067500D01*
X87656185Y-128063233D01*
X87338542Y-127987164D01*
X87045752Y-127866827D01*
X86781139Y-127705072D01*
X86548025Y-127504748D01*
X86349735Y-127268703D01*
X86189592Y-126999786D01*
X86072336Y-126705412D01*
X86037814Y-126562696D01*
X86012070Y-126391885D01*
X86000807Y-126259187D01*
X86008227Y-125942444D01*
X86063538Y-125640387D01*
X86163400Y-125356845D01*
X86304471Y-125095643D01*
X86483410Y-124860610D01*
X86696877Y-124655571D01*
X86941529Y-124484355D01*
X87214025Y-124350789D01*
X87511026Y-124258698D01*
X87785049Y-124215450D01*
X88005780Y-124211846D01*
X88242284Y-124236352D01*
G36*
X91724964Y-124236352D02*
G01*
X91961418Y-124285520D01*
X92182000Y-124355901D01*
X92370888Y-124444046D01*
X92402273Y-124462757D01*
X92513514Y-124532010D01*
X92513608Y-125096696D01*
X92375755Y-124992616D01*
X92178825Y-124867036D01*
X91957634Y-124765149D01*
X91727938Y-124692553D01*
X91505494Y-124654848D01*
X91413814Y-124650754D01*
X91325430Y-124656425D01*
X91212437Y-124671199D01*
X91112680Y-124689239D01*
X90853673Y-124768751D01*
X90619327Y-124890264D01*
X90413084Y-125048423D01*
X90238385Y-125237877D01*
X90098672Y-125453269D01*
X89997386Y-125689248D01*
X89937968Y-125940460D01*
X89923859Y-126201550D01*
X89958501Y-126467166D01*
X89961496Y-126480135D01*
X90046158Y-126728515D01*
X90175795Y-126959470D01*
X90344214Y-127166722D01*
X90545219Y-127343994D01*
X90772614Y-127485007D01*
X91020206Y-127583485D01*
X91061679Y-127594978D01*
X91224351Y-127623249D01*
X91411276Y-127633710D01*
X91597299Y-127625921D01*
X91726752Y-127606644D01*
X91858969Y-127578289D01*
X91858969Y-126090051D01*
X92330309Y-126090051D01*
X92330309Y-126964062D01*
X92329842Y-127215724D01*
X92328340Y-127419212D01*
X92325650Y-127578716D01*
X92321619Y-127698427D01*
X92316096Y-127782534D01*
X92308926Y-127835227D01*
X92299959Y-127860697D01*
X92297577Y-127863182D01*
X92250234Y-127889025D01*
X92168251Y-127924404D01*
X92067018Y-127963379D01*
X91961929Y-128000011D01*
X91872062Y-128027363D01*
X91795717Y-128041113D01*
X91682761Y-128053066D01*
X91548944Y-128062452D01*
X91410015Y-128068500D01*
X91281724Y-128070440D01*
X91179821Y-128067500D01*
X91138866Y-128063233D01*
X90821222Y-127987164D01*
X90528432Y-127866827D01*
X90263819Y-127705072D01*
X90030706Y-127504748D01*
X89832416Y-127268703D01*
X89672272Y-126999786D01*
X89555016Y-126705412D01*
X89520495Y-126562696D01*
X89494751Y-126391885D01*
X89483488Y-126259187D01*
X89490907Y-125942444D01*
X89546219Y-125640387D01*
X89646080Y-125356845D01*
X89787151Y-125095643D01*
X89966091Y-124860610D01*
X90179557Y-124655571D01*
X90424209Y-124484355D01*
X90696706Y-124350789D01*
X90993706Y-124258698D01*
X91267729Y-124215450D01*
X91488460Y-124211846D01*
X91724964Y-124236352D01*
G37*
X91724964Y-124236352D02*
X91961418Y-124285520D01*
X92182000Y-124355901D01*
X92370888Y-124444046D01*
X92402273Y-124462757D01*
X92513514Y-124532010D01*
X92513608Y-125096696D01*
X92375755Y-124992616D01*
X92178825Y-124867036D01*
X91957634Y-124765149D01*
X91727938Y-124692553D01*
X91505494Y-124654848D01*
X91413814Y-124650754D01*
X91325430Y-124656425D01*
X91212437Y-124671199D01*
X91112680Y-124689239D01*
X90853673Y-124768751D01*
X90619327Y-124890264D01*
X90413084Y-125048423D01*
X90238385Y-125237877D01*
X90098672Y-125453269D01*
X89997386Y-125689248D01*
X89937968Y-125940460D01*
X89923859Y-126201550D01*
X89958501Y-126467166D01*
X89961496Y-126480135D01*
X90046158Y-126728515D01*
X90175795Y-126959470D01*
X90344214Y-127166722D01*
X90545219Y-127343994D01*
X90772614Y-127485007D01*
X91020206Y-127583485D01*
X91061679Y-127594978D01*
X91224351Y-127623249D01*
X91411276Y-127633710D01*
X91597299Y-127625921D01*
X91726752Y-127606644D01*
X91858969Y-127578289D01*
X91858969Y-126090051D01*
X92330309Y-126090051D01*
X92330309Y-126964062D01*
X92329842Y-127215724D01*
X92328340Y-127419212D01*
X92325650Y-127578716D01*
X92321619Y-127698427D01*
X92316096Y-127782534D01*
X92308926Y-127835227D01*
X92299959Y-127860697D01*
X92297577Y-127863182D01*
X92250234Y-127889025D01*
X92168251Y-127924404D01*
X92067018Y-127963379D01*
X91961929Y-128000011D01*
X91872062Y-128027363D01*
X91795717Y-128041113D01*
X91682761Y-128053066D01*
X91548944Y-128062452D01*
X91410015Y-128068500D01*
X91281724Y-128070440D01*
X91179821Y-128067500D01*
X91138866Y-128063233D01*
X90821222Y-127987164D01*
X90528432Y-127866827D01*
X90263819Y-127705072D01*
X90030706Y-127504748D01*
X89832416Y-127268703D01*
X89672272Y-126999786D01*
X89555016Y-126705412D01*
X89520495Y-126562696D01*
X89494751Y-126391885D01*
X89483488Y-126259187D01*
X89490907Y-125942444D01*
X89546219Y-125640387D01*
X89646080Y-125356845D01*
X89787151Y-125095643D01*
X89966091Y-124860610D01*
X90179557Y-124655571D01*
X90424209Y-124484355D01*
X90696706Y-124350789D01*
X90993706Y-124258698D01*
X91267729Y-124215450D01*
X91488460Y-124211846D01*
X91724964Y-124236352D01*
G36*
X103014020Y-124219987D02*
G01*
X103224772Y-124227510D01*
X103406986Y-124251475D01*
X103580503Y-124296384D01*
X103765160Y-124366739D01*
X103871598Y-124414607D01*
X104087629Y-124515520D01*
X104087629Y-125094188D01*
X103908608Y-124963570D01*
X103664978Y-124814867D01*
X103410912Y-124715616D01*
X103149819Y-124666735D01*
X102885104Y-124669142D01*
X102838008Y-124674997D01*
X102563922Y-124738204D01*
X102313356Y-124844206D01*
X102090201Y-124988647D01*
X101898354Y-125167171D01*
X101741708Y-125375419D01*
X101624156Y-125609036D01*
X101549592Y-125863663D01*
X101521912Y-126134944D01*
X101521830Y-126147680D01*
X101543742Y-126420374D01*
X101611787Y-126670476D01*
X101727539Y-126901729D01*
X101892573Y-127117874D01*
X101959610Y-127188010D01*
X102173259Y-127370681D01*
X102398818Y-127503736D01*
X102641177Y-127589017D01*
X102905224Y-127628366D01*
X103128728Y-127628394D01*
X103317604Y-127608414D01*
X103482424Y-127567543D01*
X103638806Y-127499727D01*
X103802369Y-127398910D01*
X103896130Y-127330916D01*
X103988016Y-127262351D01*
X104063526Y-127207394D01*
X104113541Y-127172595D01*
X104128946Y-127163660D01*
X104133498Y-127188035D01*
X104137140Y-127253923D01*
X104139432Y-127350469D01*
X104140000Y-127436707D01*
X104139381Y-127559410D01*
X104135908Y-127641090D01*
X104127157Y-127693095D01*
X104110704Y-127726770D01*
X104084124Y-127753464D01*
X104069880Y-127764911D01*
X103973550Y-127827304D01*
X103843968Y-127893097D01*
X103698991Y-127954251D01*
X103556473Y-128002730D01*
X103518172Y-128013265D01*
X103366666Y-128041975D01*
X103185590Y-128060721D01*
X102996436Y-128068446D01*
X102820695Y-128064094D01*
X102713822Y-128052779D01*
X102413875Y-127979847D01*
X102132212Y-127859913D01*
X101872763Y-127696342D01*
X101639461Y-127492499D01*
X101436238Y-127251748D01*
X101267026Y-126977454D01*
X101150987Y-126715370D01*
X101076966Y-126443213D01*
X101051869Y-126166653D01*
X101073051Y-125890408D01*
X101137866Y-125619197D01*
X101243669Y-125357741D01*
X101387813Y-125110757D01*
X101567653Y-124882966D01*
X101780542Y-124679087D01*
X102023837Y-124503838D01*
X102294889Y-124361940D01*
X102516495Y-124279717D01*
X102623923Y-124250249D01*
X102727168Y-124231911D01*
X102844306Y-124222534D01*
X102993416Y-124219945D01*
X103014020Y-124219987D01*
G37*
X103014020Y-124219987D02*
X103224772Y-124227510D01*
X103406986Y-124251475D01*
X103580503Y-124296384D01*
X103765160Y-124366739D01*
X103871598Y-124414607D01*
X104087629Y-124515520D01*
X104087629Y-125094188D01*
X103908608Y-124963570D01*
X103664978Y-124814867D01*
X103410912Y-124715616D01*
X103149819Y-124666735D01*
X102885104Y-124669142D01*
X102838008Y-124674997D01*
X102563922Y-124738204D01*
X102313356Y-124844206D01*
X102090201Y-124988647D01*
X101898354Y-125167171D01*
X101741708Y-125375419D01*
X101624156Y-125609036D01*
X101549592Y-125863663D01*
X101521912Y-126134944D01*
X101521830Y-126147680D01*
X101543742Y-126420374D01*
X101611787Y-126670476D01*
X101727539Y-126901729D01*
X101892573Y-127117874D01*
X101959610Y-127188010D01*
X102173259Y-127370681D01*
X102398818Y-127503736D01*
X102641177Y-127589017D01*
X102905224Y-127628366D01*
X103128728Y-127628394D01*
X103317604Y-127608414D01*
X103482424Y-127567543D01*
X103638806Y-127499727D01*
X103802369Y-127398910D01*
X103896130Y-127330916D01*
X103988016Y-127262351D01*
X104063526Y-127207394D01*
X104113541Y-127172595D01*
X104128946Y-127163660D01*
X104133498Y-127188035D01*
X104137140Y-127253923D01*
X104139432Y-127350469D01*
X104140000Y-127436707D01*
X104139381Y-127559410D01*
X104135908Y-127641090D01*
X104127157Y-127693095D01*
X104110704Y-127726770D01*
X104084124Y-127753464D01*
X104069880Y-127764911D01*
X103973550Y-127827304D01*
X103843968Y-127893097D01*
X103698991Y-127954251D01*
X103556473Y-128002730D01*
X103518172Y-128013265D01*
X103366666Y-128041975D01*
X103185590Y-128060721D01*
X102996436Y-128068446D01*
X102820695Y-128064094D01*
X102713822Y-128052779D01*
X102413875Y-127979847D01*
X102132212Y-127859913D01*
X101872763Y-127696342D01*
X101639461Y-127492499D01*
X101436238Y-127251748D01*
X101267026Y-126977454D01*
X101150987Y-126715370D01*
X101076966Y-126443213D01*
X101051869Y-126166653D01*
X101073051Y-125890408D01*
X101137866Y-125619197D01*
X101243669Y-125357741D01*
X101387813Y-125110757D01*
X101567653Y-124882966D01*
X101780542Y-124679087D01*
X102023837Y-124503838D01*
X102294889Y-124361940D01*
X102516495Y-124279717D01*
X102623923Y-124250249D01*
X102727168Y-124231911D01*
X102844306Y-124222534D01*
X102993416Y-124219945D01*
X103014020Y-124219987D01*
G36*
X83067165Y-124264548D02*
G01*
X83323856Y-124287234D01*
X83540430Y-124330915D01*
X83726256Y-124399453D01*
X83890706Y-124496708D01*
X84043151Y-124626541D01*
X84107028Y-124693001D01*
X84257797Y-124893233D01*
X84362192Y-125108148D01*
X84422138Y-125332185D01*
X84439563Y-125559787D01*
X84416394Y-125785396D01*
X84354558Y-126003452D01*
X84255981Y-126208398D01*
X84122592Y-126394674D01*
X83956316Y-126556723D01*
X83759080Y-126688985D01*
X83532813Y-126785902D01*
X83366858Y-126828120D01*
X83191546Y-126861376D01*
X83191546Y-128027783D01*
X82746392Y-128027783D01*
X82746392Y-126411397D01*
X83191546Y-126411397D01*
X83309219Y-126395268D01*
X83404972Y-126372793D01*
X83510932Y-126334636D01*
X83553098Y-126315186D01*
X83695523Y-126218540D01*
X83823857Y-126085750D01*
X83922858Y-125933031D01*
X83933983Y-125909958D01*
X83973825Y-125779286D01*
X83991864Y-125621352D01*
X83988118Y-125456504D01*
X83962607Y-125305087D01*
X83933366Y-125221328D01*
X83832542Y-125055787D01*
X83697456Y-124913001D01*
X83539030Y-124801721D01*
X83368189Y-124730698D01*
X83302835Y-124716176D01*
X83191546Y-124697613D01*
X83191546Y-126411397D01*
X82746392Y-126411397D01*
X82746392Y-124249102D01*
X83067165Y-124264548D01*
G37*
X83067165Y-124264548D02*
X83323856Y-124287234D01*
X83540430Y-124330915D01*
X83726256Y-124399453D01*
X83890706Y-124496708D01*
X84043151Y-124626541D01*
X84107028Y-124693001D01*
X84257797Y-124893233D01*
X84362192Y-125108148D01*
X84422138Y-125332185D01*
X84439563Y-125559787D01*
X84416394Y-125785396D01*
X84354558Y-126003452D01*
X84255981Y-126208398D01*
X84122592Y-126394674D01*
X83956316Y-126556723D01*
X83759080Y-126688985D01*
X83532813Y-126785902D01*
X83366858Y-126828120D01*
X83191546Y-126861376D01*
X83191546Y-128027783D01*
X82746392Y-128027783D01*
X82746392Y-126411397D01*
X83191546Y-126411397D01*
X83309219Y-126395268D01*
X83404972Y-126372793D01*
X83510932Y-126334636D01*
X83553098Y-126315186D01*
X83695523Y-126218540D01*
X83823857Y-126085750D01*
X83922858Y-125933031D01*
X83933983Y-125909958D01*
X83973825Y-125779286D01*
X83991864Y-125621352D01*
X83988118Y-125456504D01*
X83962607Y-125305087D01*
X83933366Y-125221328D01*
X83832542Y-125055787D01*
X83697456Y-124913001D01*
X83539030Y-124801721D01*
X83368189Y-124730698D01*
X83302835Y-124716176D01*
X83191546Y-124697613D01*
X83191546Y-126411397D01*
X82746392Y-126411397D01*
X82746392Y-124249102D01*
X83067165Y-124264548D01*
G36*
X85443505Y-128027783D02*
G01*
X84972165Y-128027783D01*
X84972165Y-124257062D01*
X85443505Y-124257062D01*
X85443505Y-128027783D01*
G37*
X85443505Y-128027783D02*
X84972165Y-128027783D01*
X84972165Y-124257062D01*
X85443505Y-124257062D01*
X85443505Y-128027783D01*
G36*
X95681978Y-124433814D02*
G01*
X95656956Y-124768007D01*
X95584142Y-125108639D01*
X95466449Y-125449040D01*
X95306792Y-125782543D01*
X95108082Y-126102479D01*
X94873233Y-126402180D01*
X94775325Y-126509161D01*
X94582268Y-126711232D01*
X94582268Y-128027783D01*
X94110928Y-128027783D01*
X94110928Y-126738213D01*
X93881533Y-126498262D01*
X93611978Y-126188840D01*
X93392390Y-125874974D01*
X93220371Y-125551475D01*
X93093521Y-125213156D01*
X93009442Y-124854828D01*
X92969420Y-124525464D01*
X92951249Y-124283247D01*
X93403917Y-124283247D01*
X93404261Y-124446907D01*
X93425394Y-124704140D01*
X93484560Y-124979751D01*
X93576953Y-125261993D01*
X93697763Y-125539122D01*
X93842184Y-125799392D01*
X94005407Y-126031058D01*
X94095575Y-126135738D01*
X94189286Y-126234936D01*
X94257352Y-126298059D01*
X94309535Y-126327620D01*
X94355595Y-126326134D01*
X94405295Y-126296114D01*
X94468394Y-126240074D01*
X94475367Y-126233557D01*
X94663365Y-126026290D01*
X94831518Y-125778459D01*
X94975751Y-125499441D01*
X95091984Y-125198612D01*
X95176142Y-124885350D01*
X95224146Y-124569032D01*
X95229493Y-124499278D01*
X95244602Y-124257062D01*
X95682062Y-124257062D01*
X95681978Y-124433814D01*
G37*
X95681978Y-124433814D02*
X95656956Y-124768007D01*
X95584142Y-125108639D01*
X95466449Y-125449040D01*
X95306792Y-125782543D01*
X95108082Y-126102479D01*
X94873233Y-126402180D01*
X94775325Y-126509161D01*
X94582268Y-126711232D01*
X94582268Y-128027783D01*
X94110928Y-128027783D01*
X94110928Y-126738213D01*
X93881533Y-126498262D01*
X93611978Y-126188840D01*
X93392390Y-125874974D01*
X93220371Y-125551475D01*
X93093521Y-125213156D01*
X93009442Y-124854828D01*
X92969420Y-124525464D01*
X92951249Y-124283247D01*
X93403917Y-124283247D01*
X93404261Y-124446907D01*
X93425394Y-124704140D01*
X93484560Y-124979751D01*
X93576953Y-125261993D01*
X93697763Y-125539122D01*
X93842184Y-125799392D01*
X94005407Y-126031058D01*
X94095575Y-126135738D01*
X94189286Y-126234936D01*
X94257352Y-126298059D01*
X94309535Y-126327620D01*
X94355595Y-126326134D01*
X94405295Y-126296114D01*
X94468394Y-126240074D01*
X94475367Y-126233557D01*
X94663365Y-126026290D01*
X94831518Y-125778459D01*
X94975751Y-125499441D01*
X95091984Y-125198612D01*
X95176142Y-124885350D01*
X95224146Y-124569032D01*
X95229493Y-124499278D01*
X95244602Y-124257062D01*
X95682062Y-124257062D01*
X95681978Y-124433814D01*
G36*
X96317062Y-124257406D02*
G01*
X96487606Y-124267748D01*
X96678377Y-124295541D01*
X96869782Y-124336766D01*
X97042226Y-124387406D01*
X97141417Y-124426420D01*
X97326519Y-124538788D01*
X97485199Y-124691621D01*
X97611518Y-124877185D01*
X97699534Y-125087746D01*
X97724448Y-125185596D01*
X97747005Y-125403929D01*
X97721855Y-125605330D01*
X97649808Y-125786701D01*
X97531674Y-125944945D01*
X97523968Y-125952802D01*
X97387090Y-126090500D01*
X97490479Y-126143245D01*
X97588961Y-126218210D01*
X97680626Y-126332870D01*
X97759081Y-126474547D01*
X97817930Y-126630567D01*
X97850780Y-126788255D01*
X97855464Y-126866738D01*
X97832110Y-127073177D01*
X97766200Y-127283552D01*
X97663958Y-127482747D01*
X97531610Y-127655643D01*
X97529806Y-127657558D01*
X97382789Y-127787856D01*
X97213793Y-127887823D01*
X97016947Y-127959395D01*
X96786376Y-128004507D01*
X96516208Y-128025092D01*
X96408711Y-128026870D01*
X96127216Y-128027783D01*
X96127216Y-127582629D01*
X96598557Y-127582629D01*
X96698546Y-127582629D01*
X96783363Y-127574797D01*
X96886427Y-127554884D01*
X96937433Y-127541381D01*
X97093365Y-127468942D01*
X97224085Y-127355938D01*
X97324126Y-127210312D01*
X97388022Y-127040003D01*
X97410309Y-126854353D01*
X97395489Y-126681218D01*
X97347369Y-126536964D01*
X97260460Y-126406095D01*
X97245270Y-126388396D01*
X97166997Y-126313723D01*
X97071478Y-126242821D01*
X96973632Y-126184930D01*
X96888375Y-126149291D01*
X96848190Y-126142422D01*
X96811226Y-126133463D01*
X96822015Y-126107675D01*
X96879303Y-126066692D01*
X96926779Y-126040064D01*
X97081338Y-125930883D01*
X97197152Y-125792269D01*
X97271651Y-125632167D01*
X97302266Y-125458520D01*
X97286426Y-125279273D01*
X97226773Y-125112550D01*
X97144061Y-124986646D01*
X97034015Y-124873746D01*
X96908823Y-124782831D01*
X96780674Y-124722880D01*
X96670567Y-124702791D01*
X96598557Y-124702216D01*
X96598557Y-127582629D01*
X96127216Y-127582629D01*
X96127216Y-124257062D01*
X96317062Y-124257406D01*
G37*
X96317062Y-124257406D02*
X96487606Y-124267748D01*
X96678377Y-124295541D01*
X96869782Y-124336766D01*
X97042226Y-124387406D01*
X97141417Y-124426420D01*
X97326519Y-124538788D01*
X97485199Y-124691621D01*
X97611518Y-124877185D01*
X97699534Y-125087746D01*
X97724448Y-125185596D01*
X97747005Y-125403929D01*
X97721855Y-125605330D01*
X97649808Y-125786701D01*
X97531674Y-125944945D01*
X97523968Y-125952802D01*
X97387090Y-126090500D01*
X97490479Y-126143245D01*
X97588961Y-126218210D01*
X97680626Y-126332870D01*
X97759081Y-126474547D01*
X97817930Y-126630567D01*
X97850780Y-126788255D01*
X97855464Y-126866738D01*
X97832110Y-127073177D01*
X97766200Y-127283552D01*
X97663958Y-127482747D01*
X97531610Y-127655643D01*
X97529806Y-127657558D01*
X97382789Y-127787856D01*
X97213793Y-127887823D01*
X97016947Y-127959395D01*
X96786376Y-128004507D01*
X96516208Y-128025092D01*
X96408711Y-128026870D01*
X96127216Y-128027783D01*
X96127216Y-127582629D01*
X96598557Y-127582629D01*
X96698546Y-127582629D01*
X96783363Y-127574797D01*
X96886427Y-127554884D01*
X96937433Y-127541381D01*
X97093365Y-127468942D01*
X97224085Y-127355938D01*
X97324126Y-127210312D01*
X97388022Y-127040003D01*
X97410309Y-126854353D01*
X97395489Y-126681218D01*
X97347369Y-126536964D01*
X97260460Y-126406095D01*
X97245270Y-126388396D01*
X97166997Y-126313723D01*
X97071478Y-126242821D01*
X96973632Y-126184930D01*
X96888375Y-126149291D01*
X96848190Y-126142422D01*
X96811226Y-126133463D01*
X96822015Y-126107675D01*
X96879303Y-126066692D01*
X96926779Y-126040064D01*
X97081338Y-125930883D01*
X97197152Y-125792269D01*
X97271651Y-125632167D01*
X97302266Y-125458520D01*
X97286426Y-125279273D01*
X97226773Y-125112550D01*
X97144061Y-124986646D01*
X97034015Y-124873746D01*
X96908823Y-124782831D01*
X96780674Y-124722880D01*
X96670567Y-124702791D01*
X96598557Y-124702216D01*
X96598557Y-127582629D01*
X96127216Y-127582629D01*
X96127216Y-124257062D01*
X96317062Y-124257406D01*
G36*
X98535110Y-124165969D02*
G01*
X98598792Y-124203300D01*
X98688209Y-124258886D01*
X98794463Y-124327298D01*
X98813746Y-124339935D01*
X99031276Y-124498641D01*
X99258740Y-124692646D01*
X99483952Y-124909777D01*
X99694723Y-125137863D01*
X99878866Y-125364732D01*
X99973404Y-125498068D01*
X100210269Y-125895709D01*
X100409083Y-126315683D01*
X100564607Y-126746065D01*
X100634640Y-127002976D01*
X100666027Y-127150554D01*
X100696200Y-127320843D01*
X100722991Y-127498459D01*
X100744231Y-127668016D01*
X100757751Y-127814131D01*
X100761551Y-127903402D01*
X100762062Y-128027783D01*
X100539484Y-128027783D01*
X100421440Y-128025219D01*
X100349818Y-128016966D01*
X100318897Y-128002183D01*
X100316627Y-127995051D01*
X100312526Y-127925741D01*
X100302141Y-127818739D01*
X100287164Y-127687148D01*
X100269288Y-127544070D01*
X100250205Y-127402608D01*
X100231607Y-127275863D01*
X100215186Y-127176938D01*
X100204171Y-127124381D01*
X100169492Y-126993453D01*
X98929072Y-126979413D01*
X98929072Y-128027783D01*
X98483917Y-128027783D01*
X98483917Y-126090051D01*
X98484185Y-125802010D01*
X98929072Y-125802010D01*
X98929072Y-126561392D01*
X100009533Y-126561392D01*
X99993671Y-126463196D01*
X99965521Y-126363984D01*
X99910190Y-126233074D01*
X99832530Y-126080195D01*
X99737395Y-125915079D01*
X99657397Y-125788917D01*
X99598213Y-125707169D01*
X99518562Y-125608172D01*
X99425239Y-125499193D01*
X99325036Y-125387502D01*
X99224746Y-125280366D01*
X99131162Y-125185053D01*
X99051077Y-125108833D01*
X98991284Y-125058972D01*
X98959917Y-125042629D01*
X98950392Y-125056959D01*
X98942839Y-125102504D01*
X98937101Y-125183092D01*
X98933024Y-125302553D01*
X98930451Y-125464717D01*
X98929227Y-125673413D01*
X98929072Y-125802010D01*
X98484185Y-125802010D01*
X98484209Y-125776664D01*
X98485052Y-125478991D01*
X98486401Y-125201106D01*
X98488209Y-124947084D01*
X98490429Y-124721003D01*
X98493015Y-124526936D01*
X98495920Y-124368958D01*
X98499097Y-124251147D01*
X98502501Y-124177575D01*
X98506065Y-124152319D01*
X98535110Y-124165969D01*
G37*
X98535110Y-124165969D02*
X98598792Y-124203300D01*
X98688209Y-124258886D01*
X98794463Y-124327298D01*
X98813746Y-124339935D01*
X99031276Y-124498641D01*
X99258740Y-124692646D01*
X99483952Y-124909777D01*
X99694723Y-125137863D01*
X99878866Y-125364732D01*
X99973404Y-125498068D01*
X100210269Y-125895709D01*
X100409083Y-126315683D01*
X100564607Y-126746065D01*
X100634640Y-127002976D01*
X100666027Y-127150554D01*
X100696200Y-127320843D01*
X100722991Y-127498459D01*
X100744231Y-127668016D01*
X100757751Y-127814131D01*
X100761551Y-127903402D01*
X100762062Y-128027783D01*
X100539484Y-128027783D01*
X100421440Y-128025219D01*
X100349818Y-128016966D01*
X100318897Y-128002183D01*
X100316627Y-127995051D01*
X100312526Y-127925741D01*
X100302141Y-127818739D01*
X100287164Y-127687148D01*
X100269288Y-127544070D01*
X100250205Y-127402608D01*
X100231607Y-127275863D01*
X100215186Y-127176938D01*
X100204171Y-127124381D01*
X100169492Y-126993453D01*
X98929072Y-126979413D01*
X98929072Y-128027783D01*
X98483917Y-128027783D01*
X98483917Y-126090051D01*
X98484185Y-125802010D01*
X98929072Y-125802010D01*
X98929072Y-126561392D01*
X100009533Y-126561392D01*
X99993671Y-126463196D01*
X99965521Y-126363984D01*
X99910190Y-126233074D01*
X99832530Y-126080195D01*
X99737395Y-125915079D01*
X99657397Y-125788917D01*
X99598213Y-125707169D01*
X99518562Y-125608172D01*
X99425239Y-125499193D01*
X99325036Y-125387502D01*
X99224746Y-125280366D01*
X99131162Y-125185053D01*
X99051077Y-125108833D01*
X98991284Y-125058972D01*
X98959917Y-125042629D01*
X98950392Y-125056959D01*
X98942839Y-125102504D01*
X98937101Y-125183092D01*
X98933024Y-125302553D01*
X98930451Y-125464717D01*
X98929227Y-125673413D01*
X98929072Y-125802010D01*
X98484185Y-125802010D01*
X98484209Y-125776664D01*
X98485052Y-125478991D01*
X98486401Y-125201106D01*
X98488209Y-124947084D01*
X98490429Y-124721003D01*
X98493015Y-124526936D01*
X98495920Y-124368958D01*
X98499097Y-124251147D01*
X98502501Y-124177575D01*
X98506065Y-124152319D01*
X98535110Y-124165969D01*
G36*
X105213608Y-128027783D02*
G01*
X104768453Y-128027783D01*
X104768453Y-124257062D01*
X105213608Y-124257062D01*
X105213608Y-128027783D01*
G37*
X105213608Y-128027783D02*
X104768453Y-128027783D01*
X104768453Y-124257062D01*
X105213608Y-124257062D01*
X105213608Y-128027783D01*
G36*
X108174010Y-123925380D02*
G01*
X108283288Y-123965551D01*
X108439542Y-124067939D01*
X108566162Y-124204630D01*
X108657529Y-124365721D01*
X108708025Y-124541308D01*
X108712053Y-124721310D01*
X108695872Y-124813219D01*
X108666862Y-124903700D01*
X108620821Y-124999939D01*
X108553546Y-125109121D01*
X108460834Y-125238434D01*
X108338483Y-125395063D01*
X108264969Y-125485756D01*
X108168860Y-125603980D01*
X108085387Y-125707937D01*
X108019786Y-125791001D01*
X107977291Y-125846547D01*
X107963093Y-125867782D01*
X107987625Y-125872625D01*
X108054611Y-125876627D01*
X108154136Y-125879399D01*
X108276284Y-125880555D01*
X108290412Y-125880567D01*
X108617732Y-125880567D01*
X108617732Y-126142422D01*
X107360163Y-126142422D01*
X107834118Y-125577102D01*
X107970693Y-125411995D01*
X108094754Y-125257748D01*
X108201719Y-125120336D01*
X108287007Y-125005739D01*
X108346038Y-124919932D01*
X108370997Y-124876639D01*
X108421604Y-124718585D01*
X108428177Y-124566818D01*
X108394661Y-124428530D01*
X108325003Y-124310912D01*
X108223147Y-124221157D01*
X108093038Y-124166455D01*
X107973885Y-124152750D01*
X107824487Y-124175727D01*
X107698674Y-124237973D01*
X107599001Y-124331069D01*
X107528021Y-124446597D01*
X107488291Y-124576139D01*
X107482363Y-124711277D01*
X107512794Y-124843593D01*
X107582137Y-124964668D01*
X107692947Y-125066085D01*
X107696086Y-125068173D01*
X107756776Y-125108255D01*
X107796194Y-125134297D01*
X107802590Y-125138526D01*
X107793381Y-125160618D01*
X107759309Y-125210416D01*
X107727560Y-125251939D01*
X107676919Y-125313545D01*
X107643655Y-125340077D01*
X107612838Y-125337679D01*
X107573837Y-125315221D01*
X107416025Y-125189243D01*
X107304970Y-125040008D01*
X107239584Y-124865557D01*
X107218784Y-124676031D01*
X107240066Y-124469980D01*
X107306107Y-124290712D01*
X107416133Y-124139502D01*
X107569370Y-124017620D01*
X107644110Y-123976616D01*
X107815160Y-123918335D01*
X107997062Y-123901165D01*
X108174010Y-123925380D01*
G37*
X108174010Y-123925380D02*
X108283288Y-123965551D01*
X108439542Y-124067939D01*
X108566162Y-124204630D01*
X108657529Y-124365721D01*
X108708025Y-124541308D01*
X108712053Y-124721310D01*
X108695872Y-124813219D01*
X108666862Y-124903700D01*
X108620821Y-124999939D01*
X108553546Y-125109121D01*
X108460834Y-125238434D01*
X108338483Y-125395063D01*
X108264969Y-125485756D01*
X108168860Y-125603980D01*
X108085387Y-125707937D01*
X108019786Y-125791001D01*
X107977291Y-125846547D01*
X107963093Y-125867782D01*
X107987625Y-125872625D01*
X108054611Y-125876627D01*
X108154136Y-125879399D01*
X108276284Y-125880555D01*
X108290412Y-125880567D01*
X108617732Y-125880567D01*
X108617732Y-126142422D01*
X107360163Y-126142422D01*
X107834118Y-125577102D01*
X107970693Y-125411995D01*
X108094754Y-125257748D01*
X108201719Y-125120336D01*
X108287007Y-125005739D01*
X108346038Y-124919932D01*
X108370997Y-124876639D01*
X108421604Y-124718585D01*
X108428177Y-124566818D01*
X108394661Y-124428530D01*
X108325003Y-124310912D01*
X108223147Y-124221157D01*
X108093038Y-124166455D01*
X107973885Y-124152750D01*
X107824487Y-124175727D01*
X107698674Y-124237973D01*
X107599001Y-124331069D01*
X107528021Y-124446597D01*
X107488291Y-124576139D01*
X107482363Y-124711277D01*
X107512794Y-124843593D01*
X107582137Y-124964668D01*
X107692947Y-125066085D01*
X107696086Y-125068173D01*
X107756776Y-125108255D01*
X107796194Y-125134297D01*
X107802590Y-125138526D01*
X107793381Y-125160618D01*
X107759309Y-125210416D01*
X107727560Y-125251939D01*
X107676919Y-125313545D01*
X107643655Y-125340077D01*
X107612838Y-125337679D01*
X107573837Y-125315221D01*
X107416025Y-125189243D01*
X107304970Y-125040008D01*
X107239584Y-124865557D01*
X107218784Y-124676031D01*
X107240066Y-124469980D01*
X107306107Y-124290712D01*
X107416133Y-124139502D01*
X107569370Y-124017620D01*
X107644110Y-123976616D01*
X107815160Y-123918335D01*
X107997062Y-123901165D01*
X108174010Y-123925380D01*
G36*
X98056424Y-118958021D02*
G01*
X98117701Y-118966918D01*
X98435242Y-119044442D01*
X98728527Y-119166274D01*
X98994148Y-119328912D01*
X99228698Y-119528854D01*
X99428766Y-119762600D01*
X99590947Y-120026647D01*
X99711830Y-120317493D01*
X99788009Y-120631638D01*
X99796955Y-120692220D01*
X99810497Y-120987490D01*
X99774913Y-121281822D01*
X99693170Y-121568894D01*
X99568236Y-121842382D01*
X99403078Y-122095967D01*
X99200663Y-122323325D01*
X98963959Y-122518135D01*
X98928557Y-122542249D01*
X98665870Y-122686531D01*
X98378390Y-122789664D01*
X98076265Y-122849505D01*
X97769647Y-122863916D01*
X97518214Y-122839708D01*
X97333280Y-122796427D01*
X97134300Y-122729116D01*
X96947459Y-122647274D01*
X96864743Y-122602685D01*
X96786651Y-122548982D01*
X96686008Y-122468440D01*
X96576230Y-122372288D01*
X96478075Y-122279072D01*
X96367427Y-122165890D01*
X96285300Y-122071797D01*
X96220509Y-121981733D01*
X96161865Y-121880642D01*
X96118178Y-121794632D01*
X96061262Y-121671070D01*
X96009396Y-121545061D01*
X95970275Y-121435889D01*
X95957391Y-121391656D01*
X95905736Y-121084527D01*
X95904626Y-120945849D01*
X96368551Y-120945849D01*
X96386069Y-121154126D01*
X96424335Y-121342236D01*
X96441109Y-121395576D01*
X96552631Y-121639036D01*
X96705597Y-121859021D01*
X96893438Y-122049442D01*
X97109581Y-122204208D01*
X97347456Y-122317230D01*
X97479569Y-122357991D01*
X97643119Y-122384356D01*
X97833594Y-122391667D01*
X98031267Y-122380912D01*
X98216413Y-122353083D01*
X98356822Y-122313962D01*
X98596584Y-122197586D01*
X98812157Y-122038653D01*
X98997739Y-121843642D01*
X99147528Y-121619033D01*
X99255723Y-121371307D01*
X99282863Y-121279679D01*
X99308869Y-121129666D01*
X99319913Y-120951580D01*
X99316024Y-120767528D01*
X99297232Y-120599616D01*
X99281834Y-120526988D01*
X99190277Y-120276728D01*
X99053941Y-120046558D01*
X98878502Y-119842529D01*
X98669634Y-119670689D01*
X98433012Y-119537088D01*
X98305605Y-119486358D01*
X98216915Y-119458814D01*
X98131968Y-119441103D01*
X98035228Y-119431362D01*
X97911156Y-119427732D01*
X97816185Y-119427717D01*
X97673026Y-119429982D01*
X97566968Y-119436234D01*
X97482774Y-119448678D01*
X97405206Y-119469519D01*
X97324419Y-119498851D01*
X97071311Y-119624229D01*
X96850979Y-119788433D01*
X96666865Y-119987533D01*
X96522407Y-120217601D01*
X96421046Y-120474706D01*
X96399967Y-120554770D01*
X96372833Y-120738899D01*
X96368551Y-120945849D01*
X95904626Y-120945849D01*
X95903268Y-120776397D01*
X95947903Y-120473390D01*
X96037553Y-120181633D01*
X96170135Y-119907250D01*
X96343562Y-119656368D01*
X96555748Y-119435111D01*
X96650158Y-119356933D01*
X96904624Y-119190478D01*
X97180917Y-119065118D01*
X97470604Y-118983094D01*
X97765251Y-118946648D01*
X98056424Y-118958021D01*
G37*
X98056424Y-118958021D02*
X98117701Y-118966918D01*
X98435242Y-119044442D01*
X98728527Y-119166274D01*
X98994148Y-119328912D01*
X99228698Y-119528854D01*
X99428766Y-119762600D01*
X99590947Y-120026647D01*
X99711830Y-120317493D01*
X99788009Y-120631638D01*
X99796955Y-120692220D01*
X99810497Y-120987490D01*
X99774913Y-121281822D01*
X99693170Y-121568894D01*
X99568236Y-121842382D01*
X99403078Y-122095967D01*
X99200663Y-122323325D01*
X98963959Y-122518135D01*
X98928557Y-122542249D01*
X98665870Y-122686531D01*
X98378390Y-122789664D01*
X98076265Y-122849505D01*
X97769647Y-122863916D01*
X97518214Y-122839708D01*
X97333280Y-122796427D01*
X97134300Y-122729116D01*
X96947459Y-122647274D01*
X96864743Y-122602685D01*
X96786651Y-122548982D01*
X96686008Y-122468440D01*
X96576230Y-122372288D01*
X96478075Y-122279072D01*
X96367427Y-122165890D01*
X96285300Y-122071797D01*
X96220509Y-121981733D01*
X96161865Y-121880642D01*
X96118178Y-121794632D01*
X96061262Y-121671070D01*
X96009396Y-121545061D01*
X95970275Y-121435889D01*
X95957391Y-121391656D01*
X95905736Y-121084527D01*
X95904626Y-120945849D01*
X96368551Y-120945849D01*
X96386069Y-121154126D01*
X96424335Y-121342236D01*
X96441109Y-121395576D01*
X96552631Y-121639036D01*
X96705597Y-121859021D01*
X96893438Y-122049442D01*
X97109581Y-122204208D01*
X97347456Y-122317230D01*
X97479569Y-122357991D01*
X97643119Y-122384356D01*
X97833594Y-122391667D01*
X98031267Y-122380912D01*
X98216413Y-122353083D01*
X98356822Y-122313962D01*
X98596584Y-122197586D01*
X98812157Y-122038653D01*
X98997739Y-121843642D01*
X99147528Y-121619033D01*
X99255723Y-121371307D01*
X99282863Y-121279679D01*
X99308869Y-121129666D01*
X99319913Y-120951580D01*
X99316024Y-120767528D01*
X99297232Y-120599616D01*
X99281834Y-120526988D01*
X99190277Y-120276728D01*
X99053941Y-120046558D01*
X98878502Y-119842529D01*
X98669634Y-119670689D01*
X98433012Y-119537088D01*
X98305605Y-119486358D01*
X98216915Y-119458814D01*
X98131968Y-119441103D01*
X98035228Y-119431362D01*
X97911156Y-119427732D01*
X97816185Y-119427717D01*
X97673026Y-119429982D01*
X97566968Y-119436234D01*
X97482774Y-119448678D01*
X97405206Y-119469519D01*
X97324419Y-119498851D01*
X97071311Y-119624229D01*
X96850979Y-119788433D01*
X96666865Y-119987533D01*
X96522407Y-120217601D01*
X96421046Y-120474706D01*
X96399967Y-120554770D01*
X96372833Y-120738899D01*
X96368551Y-120945849D01*
X95904626Y-120945849D01*
X95903268Y-120776397D01*
X95947903Y-120473390D01*
X96037553Y-120181633D01*
X96170135Y-119907250D01*
X96343562Y-119656368D01*
X96555748Y-119435111D01*
X96650158Y-119356933D01*
X96904624Y-119190478D01*
X97180917Y-119065118D01*
X97470604Y-118983094D01*
X97765251Y-118946648D01*
X98056424Y-118958021D01*
G36*
X104925567Y-119147514D02*
G01*
X104907085Y-119369250D01*
X104854495Y-119612696D01*
X104772082Y-119863938D01*
X104664129Y-120109067D01*
X104584614Y-120254635D01*
X104467250Y-120425531D01*
X104320241Y-120599155D01*
X104158086Y-120760315D01*
X103995283Y-120893818D01*
X103935993Y-120934310D01*
X103852314Y-120987940D01*
X103787070Y-121030006D01*
X103751672Y-121053143D01*
X103748801Y-121055122D01*
X103746792Y-121086215D01*
X103763832Y-121152560D01*
X103795369Y-121242656D01*
X103836854Y-121345001D01*
X103883733Y-121448096D01*
X103931458Y-121540439D01*
X103959231Y-121586871D01*
X104083598Y-121755996D01*
X104231695Y-121919764D01*
X104393732Y-122069811D01*
X104559920Y-122197776D01*
X104720470Y-122295295D01*
X104852970Y-122350394D01*
X104920874Y-122376635D01*
X104963532Y-122404141D01*
X104968700Y-122411583D01*
X104973186Y-122450468D01*
X104974831Y-122526931D01*
X104973405Y-122626244D01*
X104972521Y-122653455D01*
X104964845Y-122865368D01*
X104833917Y-122818948D01*
X104525216Y-122682537D01*
X104242306Y-122503611D01*
X103989040Y-122286929D01*
X103769273Y-122037248D01*
X103586858Y-121759329D01*
X103445650Y-121457929D01*
X103349501Y-121137809D01*
X103315751Y-120944280D01*
X103298864Y-120813045D01*
X103437937Y-120744605D01*
X103695496Y-120589371D01*
X103923927Y-120394203D01*
X104119038Y-120165221D01*
X104276639Y-119908545D01*
X104392538Y-119630294D01*
X104462546Y-119336588D01*
X104475599Y-119229433D01*
X104493505Y-119033041D01*
X104709536Y-119025436D01*
X104925567Y-119017830D01*
X104925567Y-119147514D01*
G37*
X104925567Y-119147514D02*
X104907085Y-119369250D01*
X104854495Y-119612696D01*
X104772082Y-119863938D01*
X104664129Y-120109067D01*
X104584614Y-120254635D01*
X104467250Y-120425531D01*
X104320241Y-120599155D01*
X104158086Y-120760315D01*
X103995283Y-120893818D01*
X103935993Y-120934310D01*
X103852314Y-120987940D01*
X103787070Y-121030006D01*
X103751672Y-121053143D01*
X103748801Y-121055122D01*
X103746792Y-121086215D01*
X103763832Y-121152560D01*
X103795369Y-121242656D01*
X103836854Y-121345001D01*
X103883733Y-121448096D01*
X103931458Y-121540439D01*
X103959231Y-121586871D01*
X104083598Y-121755996D01*
X104231695Y-121919764D01*
X104393732Y-122069811D01*
X104559920Y-122197776D01*
X104720470Y-122295295D01*
X104852970Y-122350394D01*
X104920874Y-122376635D01*
X104963532Y-122404141D01*
X104968700Y-122411583D01*
X104973186Y-122450468D01*
X104974831Y-122526931D01*
X104973405Y-122626244D01*
X104972521Y-122653455D01*
X104964845Y-122865368D01*
X104833917Y-122818948D01*
X104525216Y-122682537D01*
X104242306Y-122503611D01*
X103989040Y-122286929D01*
X103769273Y-122037248D01*
X103586858Y-121759329D01*
X103445650Y-121457929D01*
X103349501Y-121137809D01*
X103315751Y-120944280D01*
X103298864Y-120813045D01*
X103437937Y-120744605D01*
X103695496Y-120589371D01*
X103923927Y-120394203D01*
X104119038Y-120165221D01*
X104276639Y-119908545D01*
X104392538Y-119630294D01*
X104462546Y-119336588D01*
X104475599Y-119229433D01*
X104493505Y-119033041D01*
X104709536Y-119025436D01*
X104925567Y-119017830D01*
X104925567Y-119147514D01*
G36*
X83067165Y-119028383D02*
G01*
X83275514Y-119043664D01*
X83446954Y-119068099D01*
X83596633Y-119105124D01*
X83739701Y-119158177D01*
X83836401Y-119202922D01*
X84011789Y-119316682D01*
X84169261Y-119472488D01*
X84302647Y-119661349D01*
X84405772Y-119874274D01*
X84472463Y-120102269D01*
X84479312Y-120139381D01*
X84493899Y-120379952D01*
X84457796Y-120621596D01*
X84372076Y-120857425D01*
X84365224Y-120871553D01*
X84283295Y-121003958D01*
X84172270Y-121136840D01*
X84045640Y-121256905D01*
X83916897Y-121350856D01*
X83836722Y-121392349D01*
X83776189Y-121418970D01*
X83741510Y-121445068D01*
X83731977Y-121481136D01*
X83746881Y-121537672D01*
X83785514Y-121625169D01*
X83816617Y-121690285D01*
X83916474Y-121849817D01*
X84057037Y-122005572D01*
X84227105Y-122146840D01*
X84415473Y-122262910D01*
X84415722Y-122263038D01*
X84631752Y-122374352D01*
X84631752Y-122595604D01*
X84631038Y-122695595D01*
X84629133Y-122771621D01*
X84626393Y-122811750D01*
X84625206Y-122815104D01*
X84598610Y-122806955D01*
X84539688Y-122788601D01*
X84513064Y-122780269D01*
X84250417Y-122671903D01*
X84001441Y-122518764D01*
X83774756Y-122328206D01*
X83578983Y-122107585D01*
X83422743Y-121864254D01*
X83409614Y-121838932D01*
X83368165Y-121742222D01*
X83326195Y-121619603D01*
X83288483Y-121488231D01*
X83259813Y-121365265D01*
X83244968Y-121267863D01*
X83243917Y-121244447D01*
X83251142Y-121195725D01*
X83282744Y-121169806D01*
X83342113Y-121155188D01*
X83536940Y-121094923D01*
X83714318Y-120991785D01*
X83864020Y-120853392D01*
X83975821Y-120687358D01*
X83979132Y-120680713D01*
X84028196Y-120532239D01*
X84047376Y-120359584D01*
X84036800Y-120181481D01*
X83996599Y-120016666D01*
X83974160Y-119962629D01*
X83868220Y-119793896D01*
X83728128Y-119652968D01*
X83563671Y-119547173D01*
X83384635Y-119483840D01*
X83320433Y-119473073D01*
X83191546Y-119457808D01*
X83191546Y-122790670D01*
X82746392Y-122790670D01*
X82746392Y-119011989D01*
X83067165Y-119028383D01*
G37*
X83067165Y-119028383D02*
X83275514Y-119043664D01*
X83446954Y-119068099D01*
X83596633Y-119105124D01*
X83739701Y-119158177D01*
X83836401Y-119202922D01*
X84011789Y-119316682D01*
X84169261Y-119472488D01*
X84302647Y-119661349D01*
X84405772Y-119874274D01*
X84472463Y-120102269D01*
X84479312Y-120139381D01*
X84493899Y-120379952D01*
X84457796Y-120621596D01*
X84372076Y-120857425D01*
X84365224Y-120871553D01*
X84283295Y-121003958D01*
X84172270Y-121136840D01*
X84045640Y-121256905D01*
X83916897Y-121350856D01*
X83836722Y-121392349D01*
X83776189Y-121418970D01*
X83741510Y-121445068D01*
X83731977Y-121481136D01*
X83746881Y-121537672D01*
X83785514Y-121625169D01*
X83816617Y-121690285D01*
X83916474Y-121849817D01*
X84057037Y-122005572D01*
X84227105Y-122146840D01*
X84415473Y-122262910D01*
X84415722Y-122263038D01*
X84631752Y-122374352D01*
X84631752Y-122595604D01*
X84631038Y-122695595D01*
X84629133Y-122771621D01*
X84626393Y-122811750D01*
X84625206Y-122815104D01*
X84598610Y-122806955D01*
X84539688Y-122788601D01*
X84513064Y-122780269D01*
X84250417Y-122671903D01*
X84001441Y-122518764D01*
X83774756Y-122328206D01*
X83578983Y-122107585D01*
X83422743Y-121864254D01*
X83409614Y-121838932D01*
X83368165Y-121742222D01*
X83326195Y-121619603D01*
X83288483Y-121488231D01*
X83259813Y-121365265D01*
X83244968Y-121267863D01*
X83243917Y-121244447D01*
X83251142Y-121195725D01*
X83282744Y-121169806D01*
X83342113Y-121155188D01*
X83536940Y-121094923D01*
X83714318Y-120991785D01*
X83864020Y-120853392D01*
X83975821Y-120687358D01*
X83979132Y-120680713D01*
X84028196Y-120532239D01*
X84047376Y-120359584D01*
X84036800Y-120181481D01*
X83996599Y-120016666D01*
X83974160Y-119962629D01*
X83868220Y-119793896D01*
X83728128Y-119652968D01*
X83563671Y-119547173D01*
X83384635Y-119483840D01*
X83320433Y-119473073D01*
X83191546Y-119457808D01*
X83191546Y-122790670D01*
X82746392Y-122790670D01*
X82746392Y-119011989D01*
X83067165Y-119028383D01*
G36*
X100716237Y-119028383D02*
G01*
X100924586Y-119043664D01*
X101096026Y-119068099D01*
X101245705Y-119105124D01*
X101388773Y-119158177D01*
X101485473Y-119202922D01*
X101660861Y-119316682D01*
X101818334Y-119472488D01*
X101951719Y-119661349D01*
X102054844Y-119874274D01*
X102121535Y-120102269D01*
X102128384Y-120139381D01*
X102142971Y-120379952D01*
X102106868Y-120621596D01*
X102021149Y-120857425D01*
X102014296Y-120871553D01*
X101932367Y-121003958D01*
X101821342Y-121136840D01*
X101694712Y-121256905D01*
X101565969Y-121350856D01*
X101485794Y-121392349D01*
X101425261Y-121418970D01*
X101390582Y-121445068D01*
X101381049Y-121481136D01*
X101395953Y-121537672D01*
X101434586Y-121625169D01*
X101465689Y-121690285D01*
X101565546Y-121849817D01*
X101706110Y-122005572D01*
X101876177Y-122146840D01*
X102064545Y-122262910D01*
X102064794Y-122263038D01*
X102280825Y-122374352D01*
X102280825Y-122595604D01*
X102280111Y-122695595D01*
X102278206Y-122771621D01*
X102275466Y-122811750D01*
X102274278Y-122815104D01*
X102247682Y-122806955D01*
X102188760Y-122788601D01*
X102162136Y-122780269D01*
X101899489Y-122671903D01*
X101650513Y-122518764D01*
X101423828Y-122328206D01*
X101228055Y-122107585D01*
X101071815Y-121864254D01*
X101058686Y-121838932D01*
X101017238Y-121742222D01*
X100975267Y-121619603D01*
X100937555Y-121488231D01*
X100908886Y-121365265D01*
X100894040Y-121267863D01*
X100892990Y-121244447D01*
X100900214Y-121195725D01*
X100931816Y-121169806D01*
X100991185Y-121155188D01*
X101186013Y-121094923D01*
X101363390Y-120991785D01*
X101513092Y-120853392D01*
X101624893Y-120687358D01*
X101628204Y-120680713D01*
X101677268Y-120532239D01*
X101696448Y-120359584D01*
X101685872Y-120181481D01*
X101645672Y-120016666D01*
X101623232Y-119962629D01*
X101517292Y-119793896D01*
X101377200Y-119652968D01*
X101212743Y-119547173D01*
X101033708Y-119483840D01*
X100969505Y-119473073D01*
X100840618Y-119457808D01*
X100840618Y-122790670D01*
X100395464Y-122790670D01*
X100395464Y-119011989D01*
X100716237Y-119028383D01*
G37*
X100716237Y-119028383D02*
X100924586Y-119043664D01*
X101096026Y-119068099D01*
X101245705Y-119105124D01*
X101388773Y-119158177D01*
X101485473Y-119202922D01*
X101660861Y-119316682D01*
X101818334Y-119472488D01*
X101951719Y-119661349D01*
X102054844Y-119874274D01*
X102121535Y-120102269D01*
X102128384Y-120139381D01*
X102142971Y-120379952D01*
X102106868Y-120621596D01*
X102021149Y-120857425D01*
X102014296Y-120871553D01*
X101932367Y-121003958D01*
X101821342Y-121136840D01*
X101694712Y-121256905D01*
X101565969Y-121350856D01*
X101485794Y-121392349D01*
X101425261Y-121418970D01*
X101390582Y-121445068D01*
X101381049Y-121481136D01*
X101395953Y-121537672D01*
X101434586Y-121625169D01*
X101465689Y-121690285D01*
X101565546Y-121849817D01*
X101706110Y-122005572D01*
X101876177Y-122146840D01*
X102064545Y-122262910D01*
X102064794Y-122263038D01*
X102280825Y-122374352D01*
X102280825Y-122595604D01*
X102280111Y-122695595D01*
X102278206Y-122771621D01*
X102275466Y-122811750D01*
X102274278Y-122815104D01*
X102247682Y-122806955D01*
X102188760Y-122788601D01*
X102162136Y-122780269D01*
X101899489Y-122671903D01*
X101650513Y-122518764D01*
X101423828Y-122328206D01*
X101228055Y-122107585D01*
X101071815Y-121864254D01*
X101058686Y-121838932D01*
X101017238Y-121742222D01*
X100975267Y-121619603D01*
X100937555Y-121488231D01*
X100908886Y-121365265D01*
X100894040Y-121267863D01*
X100892990Y-121244447D01*
X100900214Y-121195725D01*
X100931816Y-121169806D01*
X100991185Y-121155188D01*
X101186013Y-121094923D01*
X101363390Y-120991785D01*
X101513092Y-120853392D01*
X101624893Y-120687358D01*
X101628204Y-120680713D01*
X101677268Y-120532239D01*
X101696448Y-120359584D01*
X101685872Y-120181481D01*
X101645672Y-120016666D01*
X101623232Y-119962629D01*
X101517292Y-119793896D01*
X101377200Y-119652968D01*
X101212743Y-119547173D01*
X101033708Y-119483840D01*
X100969505Y-119473073D01*
X100840618Y-119457808D01*
X100840618Y-122790670D01*
X100395464Y-122790670D01*
X100395464Y-119011989D01*
X100716237Y-119028383D01*
G36*
X106633595Y-119010979D02*
G01*
X106724958Y-119019937D01*
X106803694Y-119039808D01*
X106889610Y-119074255D01*
X106909124Y-119083089D01*
X107072783Y-119158028D01*
X107072783Y-119680013D01*
X106983887Y-119601960D01*
X106841543Y-119506037D01*
X106679365Y-119453615D01*
X106489931Y-119442390D01*
X106473018Y-119443223D01*
X106304053Y-119470468D01*
X106169542Y-119534009D01*
X106062183Y-119638530D01*
X105992629Y-119751455D01*
X105931276Y-119918555D01*
X105921286Y-120076095D01*
X105962462Y-120223721D01*
X106054611Y-120361076D01*
X106197538Y-120487807D01*
X106391048Y-120603557D01*
X106482811Y-120646809D01*
X106696178Y-120753276D01*
X106866394Y-120867055D01*
X107002682Y-120995203D01*
X107095511Y-121115843D01*
X107199596Y-121301860D01*
X107259847Y-121489278D01*
X107281905Y-121696673D01*
X107282268Y-121730808D01*
X107257917Y-121958823D01*
X107188600Y-122168984D01*
X107079927Y-122356931D01*
X106937502Y-122518308D01*
X106766934Y-122648756D01*
X106573829Y-122743917D01*
X106363795Y-122799433D01*
X106142438Y-122810946D01*
X105933711Y-122778955D01*
X105797730Y-122739931D01*
X105690831Y-122696973D01*
X105590083Y-122640034D01*
X105538946Y-122606008D01*
X105423093Y-122526298D01*
X105423093Y-121920541D01*
X105593834Y-122080261D01*
X105706778Y-122181389D01*
X105799470Y-122251331D01*
X105885975Y-122298463D01*
X105980359Y-122331159D01*
X106039824Y-122345822D01*
X106205710Y-122359054D01*
X106367710Y-122328777D01*
X106517749Y-122261057D01*
X106647756Y-122161959D01*
X106749659Y-122037551D01*
X106815385Y-121893898D01*
X106836967Y-121746803D01*
X106823461Y-121597689D01*
X106780426Y-121465805D01*
X106703511Y-121345960D01*
X106588368Y-121232959D01*
X106430645Y-121121612D01*
X106225993Y-121006724D01*
X106210192Y-120998616D01*
X106079532Y-120927635D01*
X105955248Y-120852530D01*
X105851656Y-120782366D01*
X105789181Y-120732092D01*
X105643562Y-120562070D01*
X105543904Y-120370021D01*
X105491234Y-120160819D01*
X105486578Y-119939335D01*
X105530961Y-119710442D01*
X105557473Y-119631615D01*
X105604838Y-119529169D01*
X105672296Y-119431231D01*
X105770881Y-119322148D01*
X105787296Y-119305595D01*
X105930684Y-119177634D01*
X106070191Y-119090251D01*
X106220671Y-119037354D01*
X106396979Y-119012851D01*
X106509794Y-119009272D01*
X106633595Y-119010979D01*
G37*
X106633595Y-119010979D02*
X106724958Y-119019937D01*
X106803694Y-119039808D01*
X106889610Y-119074255D01*
X106909124Y-119083089D01*
X107072783Y-119158028D01*
X107072783Y-119680013D01*
X106983887Y-119601960D01*
X106841543Y-119506037D01*
X106679365Y-119453615D01*
X106489931Y-119442390D01*
X106473018Y-119443223D01*
X106304053Y-119470468D01*
X106169542Y-119534009D01*
X106062183Y-119638530D01*
X105992629Y-119751455D01*
X105931276Y-119918555D01*
X105921286Y-120076095D01*
X105962462Y-120223721D01*
X106054611Y-120361076D01*
X106197538Y-120487807D01*
X106391048Y-120603557D01*
X106482811Y-120646809D01*
X106696178Y-120753276D01*
X106866394Y-120867055D01*
X107002682Y-120995203D01*
X107095511Y-121115843D01*
X107199596Y-121301860D01*
X107259847Y-121489278D01*
X107281905Y-121696673D01*
X107282268Y-121730808D01*
X107257917Y-121958823D01*
X107188600Y-122168984D01*
X107079927Y-122356931D01*
X106937502Y-122518308D01*
X106766934Y-122648756D01*
X106573829Y-122743917D01*
X106363795Y-122799433D01*
X106142438Y-122810946D01*
X105933711Y-122778955D01*
X105797730Y-122739931D01*
X105690831Y-122696973D01*
X105590083Y-122640034D01*
X105538946Y-122606008D01*
X105423093Y-122526298D01*
X105423093Y-121920541D01*
X105593834Y-122080261D01*
X105706778Y-122181389D01*
X105799470Y-122251331D01*
X105885975Y-122298463D01*
X105980359Y-122331159D01*
X106039824Y-122345822D01*
X106205710Y-122359054D01*
X106367710Y-122328777D01*
X106517749Y-122261057D01*
X106647756Y-122161959D01*
X106749659Y-122037551D01*
X106815385Y-121893898D01*
X106836967Y-121746803D01*
X106823461Y-121597689D01*
X106780426Y-121465805D01*
X106703511Y-121345960D01*
X106588368Y-121232959D01*
X106430645Y-121121612D01*
X106225993Y-121006724D01*
X106210192Y-120998616D01*
X106079532Y-120927635D01*
X105955248Y-120852530D01*
X105851656Y-120782366D01*
X105789181Y-120732092D01*
X105643562Y-120562070D01*
X105543904Y-120370021D01*
X105491234Y-120160819D01*
X105486578Y-119939335D01*
X105530961Y-119710442D01*
X105557473Y-119631615D01*
X105604838Y-119529169D01*
X105672296Y-119431231D01*
X105770881Y-119322148D01*
X105787296Y-119305595D01*
X105930684Y-119177634D01*
X106070191Y-119090251D01*
X106220671Y-119037354D01*
X106396979Y-119012851D01*
X106509794Y-119009272D01*
X106633595Y-119010979D01*
G36*
X85259028Y-118928856D02*
G01*
X85322709Y-118966187D01*
X85412127Y-119021772D01*
X85518381Y-119090185D01*
X85537663Y-119102822D01*
X85755193Y-119261528D01*
X85982658Y-119455532D01*
X86207869Y-119672663D01*
X86418640Y-119900749D01*
X86602783Y-120127619D01*
X86697322Y-120260955D01*
X86934187Y-120658596D01*
X87133001Y-121078569D01*
X87288525Y-121508952D01*
X87358557Y-121765862D01*
X87389945Y-121913441D01*
X87420118Y-122083730D01*
X87446908Y-122261345D01*
X87468148Y-122430903D01*
X87481668Y-122577018D01*
X87485468Y-122666288D01*
X87485979Y-122790670D01*
X87263402Y-122790670D01*
X87145357Y-122788106D01*
X87073736Y-122779852D01*
X87042815Y-122765069D01*
X87040544Y-122757938D01*
X87036443Y-122688627D01*
X87026058Y-122581626D01*
X87011082Y-122450035D01*
X86993206Y-122306957D01*
X86974123Y-122165494D01*
X86955525Y-122038749D01*
X86939104Y-121939825D01*
X86928088Y-121887268D01*
X86893410Y-121756340D01*
X86273200Y-121749320D01*
X85652990Y-121742299D01*
X85652990Y-122790670D01*
X85207835Y-122790670D01*
X85207835Y-120852938D01*
X85208102Y-120564897D01*
X85652990Y-120564897D01*
X85652990Y-121324278D01*
X86733450Y-121324278D01*
X86717589Y-121226082D01*
X86689439Y-121126871D01*
X86634108Y-120995960D01*
X86556448Y-120843081D01*
X86461313Y-120677965D01*
X86381315Y-120551804D01*
X86322130Y-120470056D01*
X86242480Y-120371058D01*
X86149157Y-120262080D01*
X86048954Y-120150388D01*
X85948664Y-120043252D01*
X85855080Y-119947940D01*
X85774995Y-119871719D01*
X85715201Y-119821859D01*
X85683834Y-119805515D01*
X85674310Y-119819846D01*
X85666757Y-119865390D01*
X85661019Y-119945978D01*
X85656941Y-120065439D01*
X85654369Y-120227603D01*
X85653145Y-120436299D01*
X85652990Y-120564897D01*
X85208102Y-120564897D01*
X85208126Y-120539551D01*
X85208970Y-120241877D01*
X85210319Y-119963992D01*
X85212127Y-119709971D01*
X85214347Y-119483889D01*
X85216933Y-119289822D01*
X85219838Y-119131845D01*
X85223015Y-119014033D01*
X85226418Y-118940462D01*
X85229983Y-118915206D01*
X85259028Y-118928856D01*
G37*
X85259028Y-118928856D02*
X85322709Y-118966187D01*
X85412127Y-119021772D01*
X85518381Y-119090185D01*
X85537663Y-119102822D01*
X85755193Y-119261528D01*
X85982658Y-119455532D01*
X86207869Y-119672663D01*
X86418640Y-119900749D01*
X86602783Y-120127619D01*
X86697322Y-120260955D01*
X86934187Y-120658596D01*
X87133001Y-121078569D01*
X87288525Y-121508952D01*
X87358557Y-121765862D01*
X87389945Y-121913441D01*
X87420118Y-122083730D01*
X87446908Y-122261345D01*
X87468148Y-122430903D01*
X87481668Y-122577018D01*
X87485468Y-122666288D01*
X87485979Y-122790670D01*
X87263402Y-122790670D01*
X87145357Y-122788106D01*
X87073736Y-122779852D01*
X87042815Y-122765069D01*
X87040544Y-122757938D01*
X87036443Y-122688627D01*
X87026058Y-122581626D01*
X87011082Y-122450035D01*
X86993206Y-122306957D01*
X86974123Y-122165494D01*
X86955525Y-122038749D01*
X86939104Y-121939825D01*
X86928088Y-121887268D01*
X86893410Y-121756340D01*
X86273200Y-121749320D01*
X85652990Y-121742299D01*
X85652990Y-122790670D01*
X85207835Y-122790670D01*
X85207835Y-120852938D01*
X85208102Y-120564897D01*
X85652990Y-120564897D01*
X85652990Y-121324278D01*
X86733450Y-121324278D01*
X86717589Y-121226082D01*
X86689439Y-121126871D01*
X86634108Y-120995960D01*
X86556448Y-120843081D01*
X86461313Y-120677965D01*
X86381315Y-120551804D01*
X86322130Y-120470056D01*
X86242480Y-120371058D01*
X86149157Y-120262080D01*
X86048954Y-120150388D01*
X85948664Y-120043252D01*
X85855080Y-119947940D01*
X85774995Y-119871719D01*
X85715201Y-119821859D01*
X85683834Y-119805515D01*
X85674310Y-119819846D01*
X85666757Y-119865390D01*
X85661019Y-119945978D01*
X85656941Y-120065439D01*
X85654369Y-120227603D01*
X85653145Y-120436299D01*
X85652990Y-120564897D01*
X85208102Y-120564897D01*
X85208126Y-120539551D01*
X85208970Y-120241877D01*
X85210319Y-119963992D01*
X85212127Y-119709971D01*
X85214347Y-119483889D01*
X85216933Y-119289822D01*
X85219838Y-119131845D01*
X85223015Y-119014033D01*
X85226418Y-118940462D01*
X85229983Y-118915206D01*
X85259028Y-118928856D01*
G36*
X88042423Y-118955014D02*
G01*
X88273608Y-119026916D01*
X88507565Y-119143222D01*
X88735958Y-119297157D01*
X88950452Y-119481946D01*
X89142711Y-119690814D01*
X89304400Y-119916986D01*
X89371718Y-120035488D01*
X89429884Y-120147626D01*
X89531557Y-119973638D01*
X89721391Y-119699306D01*
X89948668Y-119460019D01*
X90209571Y-119259421D01*
X90390248Y-119154153D01*
X90514421Y-119094842D01*
X90643209Y-119041696D01*
X90762930Y-118999646D01*
X90859900Y-118973622D01*
X90907948Y-118967577D01*
X90914663Y-118975562D01*
X90920488Y-119001629D01*
X90925482Y-119048951D01*
X90929702Y-119120699D01*
X90933206Y-119220042D01*
X90936049Y-119350153D01*
X90938291Y-119514203D01*
X90939988Y-119715361D01*
X90941196Y-119956801D01*
X90941975Y-120241692D01*
X90942380Y-120573205D01*
X90942474Y-120879123D01*
X90942474Y-122790670D01*
X90471540Y-122790670D01*
X90464790Y-121203469D01*
X90458041Y-119616268D01*
X90295648Y-119738344D01*
X90127594Y-119889536D01*
X89973361Y-120075272D01*
X89847114Y-120277726D01*
X89814762Y-120343518D01*
X89756461Y-120490001D01*
X89713353Y-120646001D01*
X89683882Y-120821456D01*
X89666495Y-121026303D01*
X89659634Y-121270481D01*
X89659381Y-121336267D01*
X89659381Y-121769433D01*
X89222020Y-121769433D01*
X89206318Y-121291546D01*
X89193069Y-121023996D01*
X89171383Y-120799054D01*
X89139576Y-120607394D01*
X89095963Y-120439690D01*
X89038858Y-120286616D01*
X89015408Y-120234845D01*
X88939577Y-120107588D01*
X88831557Y-119969658D01*
X88704707Y-119836229D01*
X88572386Y-119722478D01*
X88549617Y-119705692D01*
X88428660Y-119618962D01*
X88428660Y-122790670D01*
X87957319Y-122790670D01*
X87957319Y-118937230D01*
X88042423Y-118955014D01*
G37*
X88042423Y-118955014D02*
X88273608Y-119026916D01*
X88507565Y-119143222D01*
X88735958Y-119297157D01*
X88950452Y-119481946D01*
X89142711Y-119690814D01*
X89304400Y-119916986D01*
X89371718Y-120035488D01*
X89429884Y-120147626D01*
X89531557Y-119973638D01*
X89721391Y-119699306D01*
X89948668Y-119460019D01*
X90209571Y-119259421D01*
X90390248Y-119154153D01*
X90514421Y-119094842D01*
X90643209Y-119041696D01*
X90762930Y-118999646D01*
X90859900Y-118973622D01*
X90907948Y-118967577D01*
X90914663Y-118975562D01*
X90920488Y-119001629D01*
X90925482Y-119048951D01*
X90929702Y-119120699D01*
X90933206Y-119220042D01*
X90936049Y-119350153D01*
X90938291Y-119514203D01*
X90939988Y-119715361D01*
X90941196Y-119956801D01*
X90941975Y-120241692D01*
X90942380Y-120573205D01*
X90942474Y-120879123D01*
X90942474Y-122790670D01*
X90471540Y-122790670D01*
X90464790Y-121203469D01*
X90458041Y-119616268D01*
X90295648Y-119738344D01*
X90127594Y-119889536D01*
X89973361Y-120075272D01*
X89847114Y-120277726D01*
X89814762Y-120343518D01*
X89756461Y-120490001D01*
X89713353Y-120646001D01*
X89683882Y-120821456D01*
X89666495Y-121026303D01*
X89659634Y-121270481D01*
X89659381Y-121336267D01*
X89659381Y-121769433D01*
X89222020Y-121769433D01*
X89206318Y-121291546D01*
X89193069Y-121023996D01*
X89171383Y-120799054D01*
X89139576Y-120607394D01*
X89095963Y-120439690D01*
X89038858Y-120286616D01*
X89015408Y-120234845D01*
X88939577Y-120107588D01*
X88831557Y-119969658D01*
X88704707Y-119836229D01*
X88572386Y-119722478D01*
X88549617Y-119705692D01*
X88428660Y-119618962D01*
X88428660Y-122790670D01*
X87957319Y-122790670D01*
X87957319Y-118937230D01*
X88042423Y-118955014D01*
G36*
X103275876Y-122790670D02*
G01*
X102830722Y-122790670D01*
X102830722Y-119019948D01*
X103275876Y-119019948D01*
X103275876Y-122790670D01*
G37*
X103275876Y-122790670D02*
X102830722Y-122790670D01*
X102830722Y-119019948D01*
X103275876Y-119019948D01*
X103275876Y-122790670D01*
G36*
X91968077Y-119365340D02*
G01*
X91979434Y-119836213D01*
X92036481Y-120298445D01*
X92137848Y-120744964D01*
X92282163Y-121168697D01*
X92346869Y-121319828D01*
X92392712Y-121415064D01*
X92448972Y-121523421D01*
X92510115Y-121635273D01*
X92570606Y-121740993D01*
X92624909Y-121830954D01*
X92667492Y-121895530D01*
X92692818Y-121925093D01*
X92695355Y-121925956D01*
X92708022Y-121902374D01*
X92737993Y-121835332D01*
X92783108Y-121729993D01*
X92841207Y-121591518D01*
X92910130Y-121425067D01*
X92987716Y-121235803D01*
X93071807Y-121028885D01*
X93100825Y-120957090D01*
X93186628Y-120745464D01*
X93266703Y-120549801D01*
X93338881Y-120375260D01*
X93400997Y-120226999D01*
X93450883Y-120110175D01*
X93486374Y-120029945D01*
X93505302Y-119991470D01*
X93507553Y-119988814D01*
X93520608Y-120012230D01*
X93550998Y-120078978D01*
X93596501Y-120183809D01*
X93654895Y-120321474D01*
X93723955Y-120486722D01*
X93801460Y-120674304D01*
X93885187Y-120878971D01*
X93902306Y-120921058D01*
X93987322Y-121128745D01*
X94067013Y-121320538D01*
X94139097Y-121491152D01*
X94201286Y-121635303D01*
X94251296Y-121747705D01*
X94286842Y-121823076D01*
X94305639Y-121856129D01*
X94307141Y-121857192D01*
X94333279Y-121837162D01*
X94376565Y-121777849D01*
X94432412Y-121687619D01*
X94496237Y-121574838D01*
X94563457Y-121447873D01*
X94629487Y-121315090D01*
X94689742Y-121184856D01*
X94736520Y-121073514D01*
X94880495Y-120648869D01*
X94980988Y-120220065D01*
X95036559Y-119795224D01*
X95045765Y-119382469D01*
X95044010Y-119340721D01*
X95028511Y-119019948D01*
X95465459Y-119019948D01*
X95482111Y-119141438D01*
X95496173Y-119320541D01*
X95496147Y-119537397D01*
X95482894Y-119779568D01*
X95457273Y-120034614D01*
X95420144Y-120290097D01*
X95392272Y-120440547D01*
X95304575Y-120790205D01*
X95182423Y-121153754D01*
X95032793Y-121514161D01*
X94862658Y-121854393D01*
X94705594Y-122117359D01*
X94641152Y-122211492D01*
X94563588Y-122317989D01*
X94479382Y-122428754D01*
X94395013Y-122535695D01*
X94316962Y-122630716D01*
X94251708Y-122705723D01*
X94205730Y-122752621D01*
X94187578Y-122764484D01*
X94173417Y-122741140D01*
X94142455Y-122675099D01*
X94097191Y-122572350D01*
X94040123Y-122438882D01*
X93973751Y-122280683D01*
X93900573Y-122103742D01*
X93823089Y-121914047D01*
X93743797Y-121717588D01*
X93665195Y-121520353D01*
X93611205Y-121383196D01*
X93571843Y-121287123D01*
X93538130Y-121213013D01*
X93515254Y-121171930D01*
X93509891Y-121167165D01*
X93496203Y-121190451D01*
X93465194Y-121256492D01*
X93419355Y-121359564D01*
X93361174Y-121493942D01*
X93293143Y-121653902D01*
X93217750Y-121833718D01*
X93171080Y-121946185D01*
X93092217Y-122136131D01*
X93019113Y-122310642D01*
X92954302Y-122463790D01*
X92900319Y-122589645D01*
X92859700Y-122682277D01*
X92834979Y-122735756D01*
X92828980Y-122746441D01*
X92803716Y-122738162D01*
X92753472Y-122697842D01*
X92687365Y-122633190D01*
X92658683Y-122602420D01*
X92504465Y-122413692D01*
X92345921Y-122184914D01*
X92189297Y-121927329D01*
X92040837Y-121652182D01*
X91906782Y-121370717D01*
X91793378Y-121094176D01*
X91744916Y-120956883D01*
X91674246Y-120728744D01*
X91620029Y-120516014D01*
X91580111Y-120305054D01*
X91552342Y-120082222D01*
X91534567Y-119833878D01*
X91525011Y-119563299D01*
X91512621Y-119019948D01*
X91744712Y-119019911D01*
X91976804Y-119019874D01*
X91968077Y-119365340D01*
G37*
X91968077Y-119365340D02*
X91979434Y-119836213D01*
X92036481Y-120298445D01*
X92137848Y-120744964D01*
X92282163Y-121168697D01*
X92346869Y-121319828D01*
X92392712Y-121415064D01*
X92448972Y-121523421D01*
X92510115Y-121635273D01*
X92570606Y-121740993D01*
X92624909Y-121830954D01*
X92667492Y-121895530D01*
X92692818Y-121925093D01*
X92695355Y-121925956D01*
X92708022Y-121902374D01*
X92737993Y-121835332D01*
X92783108Y-121729993D01*
X92841207Y-121591518D01*
X92910130Y-121425067D01*
X92987716Y-121235803D01*
X93071807Y-121028885D01*
X93100825Y-120957090D01*
X93186628Y-120745464D01*
X93266703Y-120549801D01*
X93338881Y-120375260D01*
X93400997Y-120226999D01*
X93450883Y-120110175D01*
X93486374Y-120029945D01*
X93505302Y-119991470D01*
X93507553Y-119988814D01*
X93520608Y-120012230D01*
X93550998Y-120078978D01*
X93596501Y-120183809D01*
X93654895Y-120321474D01*
X93723955Y-120486722D01*
X93801460Y-120674304D01*
X93885187Y-120878971D01*
X93902306Y-120921058D01*
X93987322Y-121128745D01*
X94067013Y-121320538D01*
X94139097Y-121491152D01*
X94201286Y-121635303D01*
X94251296Y-121747705D01*
X94286842Y-121823076D01*
X94305639Y-121856129D01*
X94307141Y-121857192D01*
X94333279Y-121837162D01*
X94376565Y-121777849D01*
X94432412Y-121687619D01*
X94496237Y-121574838D01*
X94563457Y-121447873D01*
X94629487Y-121315090D01*
X94689742Y-121184856D01*
X94736520Y-121073514D01*
X94880495Y-120648869D01*
X94980988Y-120220065D01*
X95036559Y-119795224D01*
X95045765Y-119382469D01*
X95044010Y-119340721D01*
X95028511Y-119019948D01*
X95465459Y-119019948D01*
X95482111Y-119141438D01*
X95496173Y-119320541D01*
X95496147Y-119537397D01*
X95482894Y-119779568D01*
X95457273Y-120034614D01*
X95420144Y-120290097D01*
X95392272Y-120440547D01*
X95304575Y-120790205D01*
X95182423Y-121153754D01*
X95032793Y-121514161D01*
X94862658Y-121854393D01*
X94705594Y-122117359D01*
X94641152Y-122211492D01*
X94563588Y-122317989D01*
X94479382Y-122428754D01*
X94395013Y-122535695D01*
X94316962Y-122630716D01*
X94251708Y-122705723D01*
X94205730Y-122752621D01*
X94187578Y-122764484D01*
X94173417Y-122741140D01*
X94142455Y-122675099D01*
X94097191Y-122572350D01*
X94040123Y-122438882D01*
X93973751Y-122280683D01*
X93900573Y-122103742D01*
X93823089Y-121914047D01*
X93743797Y-121717588D01*
X93665195Y-121520353D01*
X93611205Y-121383196D01*
X93571843Y-121287123D01*
X93538130Y-121213013D01*
X93515254Y-121171930D01*
X93509891Y-121167165D01*
X93496203Y-121190451D01*
X93465194Y-121256492D01*
X93419355Y-121359564D01*
X93361174Y-121493942D01*
X93293143Y-121653902D01*
X93217750Y-121833718D01*
X93171080Y-121946185D01*
X93092217Y-122136131D01*
X93019113Y-122310642D01*
X92954302Y-122463790D01*
X92900319Y-122589645D01*
X92859700Y-122682277D01*
X92834979Y-122735756D01*
X92828980Y-122746441D01*
X92803716Y-122738162D01*
X92753472Y-122697842D01*
X92687365Y-122633190D01*
X92658683Y-122602420D01*
X92504465Y-122413692D01*
X92345921Y-122184914D01*
X92189297Y-121927329D01*
X92040837Y-121652182D01*
X91906782Y-121370717D01*
X91793378Y-121094176D01*
X91744916Y-120956883D01*
X91674246Y-120728744D01*
X91620029Y-120516014D01*
X91580111Y-120305054D01*
X91552342Y-120082222D01*
X91534567Y-119833878D01*
X91525011Y-119563299D01*
X91512621Y-119019948D01*
X91744712Y-119019911D01*
X91976804Y-119019874D01*
X91968077Y-119365340D01*
D11*
X193685000Y-81780000D02*
X193685000Y-80780000D01*
X207435000Y-85030000D02*
X207935000Y-85030000D01*
X207435000Y-84030000D02*
X207435000Y-85030000D01*
X199435000Y-84030000D02*
X207435000Y-84030000D01*
X193935000Y-84030000D02*
X195935000Y-84030000D01*
X193935000Y-71530000D02*
X193935000Y-84030000D01*
X195935000Y-71530000D02*
X193935000Y-71530000D01*
X207435000Y-71530000D02*
X199435000Y-71530000D01*
X207435000Y-70530000D02*
X207435000Y-71530000D01*
X207935000Y-70530000D02*
X207435000Y-70530000D01*
X207935000Y-85030000D02*
X207935000Y-70530000D01*
X194435000Y-129160000D02*
X194435000Y-119760000D01*
X111635000Y-129160000D02*
X194435000Y-129160000D01*
X111635000Y-119760000D02*
X194435000Y-119760000D01*
X117475000Y-128330000D02*
X117475000Y-125730000D01*
X117475000Y-125730000D02*
X114875000Y-125730000D01*
X111635000Y-129160000D02*
X111635000Y-119760000D01*
X116205000Y-128330000D02*
X114875000Y-128330000D01*
X114875000Y-128330000D02*
X114875000Y-127000000D01*
X199560000Y-88840000D02*
X199560000Y-94040000D01*
X199560000Y-94040000D02*
X202220000Y-94040000D01*
X202220000Y-94040000D02*
X202220000Y-88840000D01*
X202220000Y-88840000D02*
X199560000Y-88840000D01*
X202220000Y-89790000D02*
X208220000Y-89790000D01*
X208220000Y-89790000D02*
X208220000Y-90550000D01*
X208220000Y-90550000D02*
X202220000Y-90550000D01*
X202220000Y-89850000D02*
X208220000Y-89850000D01*
X202220000Y-89970000D02*
X208220000Y-89970000D01*
X202220000Y-90090000D02*
X208220000Y-90090000D01*
X202220000Y-90210000D02*
X208220000Y-90210000D01*
X202220000Y-90330000D02*
X208220000Y-90330000D01*
X202220000Y-90450000D02*
X208220000Y-90450000D01*
X199230000Y-89790000D02*
X199560000Y-89790000D01*
X199230000Y-90550000D02*
X199560000Y-90550000D01*
X199560000Y-91440000D02*
X202220000Y-91440000D01*
X202220000Y-92330000D02*
X208220000Y-92330000D01*
X208220000Y-92330000D02*
X208220000Y-93090000D01*
X208220000Y-93090000D02*
X202220000Y-93090000D01*
X199162929Y-92330000D02*
X199560000Y-92330000D01*
X199162929Y-93090000D02*
X199560000Y-93090000D01*
X196850000Y-90170000D02*
X196850000Y-88900000D01*
X196850000Y-88900000D02*
X198120000Y-88900000D01*
X89225000Y-95050000D02*
X84685000Y-95050000D01*
X89225000Y-92910000D02*
X84685000Y-92910000D01*
X89225000Y-95050000D02*
X89225000Y-95035000D01*
X89225000Y-92925000D02*
X89225000Y-92910000D01*
X84685000Y-95050000D02*
X84685000Y-95035000D01*
X84685000Y-92925000D02*
X84685000Y-92910000D01*
D10*
X85602619Y-93618095D02*
X85640714Y-93580000D01*
X85716904Y-93541904D01*
X85907380Y-93541904D01*
X85983571Y-93580000D01*
X86021666Y-93618095D01*
X86059761Y-93694285D01*
X86059761Y-93770476D01*
X86021666Y-93884761D01*
X85564523Y-94341904D01*
X86059761Y-94341904D01*
X86364523Y-93618095D02*
X86402619Y-93580000D01*
X86478809Y-93541904D01*
X86669285Y-93541904D01*
X86745476Y-93580000D01*
X86783571Y-93618095D01*
X86821666Y-93694285D01*
X86821666Y-93770476D01*
X86783571Y-93884761D01*
X86326428Y-94341904D01*
X86821666Y-94341904D01*
X87316904Y-93541904D02*
X87393095Y-93541904D01*
X87469285Y-93580000D01*
X87507380Y-93618095D01*
X87545476Y-93694285D01*
X87583571Y-93846666D01*
X87583571Y-94037142D01*
X87545476Y-94189523D01*
X87507380Y-94265714D01*
X87469285Y-94303809D01*
X87393095Y-94341904D01*
X87316904Y-94341904D01*
X87240714Y-94303809D01*
X87202619Y-94265714D01*
X87164523Y-94189523D01*
X87126428Y-94037142D01*
X87126428Y-93846666D01*
X87164523Y-93694285D01*
X87202619Y-93618095D01*
X87240714Y-93580000D01*
X87316904Y-93541904D01*
X87926428Y-93808571D02*
X87926428Y-94608571D01*
X87926428Y-93846666D02*
X88002619Y-93808571D01*
X88155000Y-93808571D01*
X88231190Y-93846666D01*
X88269285Y-93884761D01*
X88307380Y-93960952D01*
X88307380Y-94189523D01*
X88269285Y-94265714D01*
X88231190Y-94303809D01*
X88155000Y-94341904D01*
X88002619Y-94341904D01*
X87926428Y-94303809D01*
M02*
