M48
; DRILL file {KiCad (5.1.9-0-10_14)} date Sunday, May 16, 2021 at 08:01:40 PM
; FORMAT={-:-/ absolute / inch / decimal}
; #@! TF.CreationDate,2021-05-16T20:01:40-04:00
; #@! TF.GenerationSoftware,Kicad,Pcbnew,(5.1.9-0-10_14)
; #@! TF.FileFunction,Plated,1,2,PTH
FMAT,2
INCH
T1C0.0157
T2C0.0315
T3C0.0362
T4C0.0394
T5C0.0906
%
G90
G05
T1
X3.2208Y-2.8465
X3.2208Y-3.122
X3.2208Y-3.3976
X3.2208Y-3.6732
X3.2208Y-4.4213
X3.2208Y-4.6969
X3.2208Y-4.9724
X3.2996Y-3.8701
X3.2996Y-4.1457
X3.3783Y-4.5394
X3.4177Y-2.7677
X3.4177Y-3.2008
X3.4177Y-3.5157
X3.4177Y-4.3031
X3.457Y-3.9882
X3.5358Y-3.7913
X3.5751Y-2.8858
X3.5751Y-3.3189
X3.5751Y-4.1457
X3.5751Y-4.4213
X3.6145Y-3.5945
X3.6539Y-3.0827
X3.6539Y-4.6181
X3.6933Y-2.7283
X3.6933Y-3.9094
X3.7326Y-4.2638
X3.772Y-3.3976
X3.772Y-3.7126
X3.8114Y-4.0669
X3.8114Y-4.4606
X3.8507Y-2.8465
X3.8507Y-3.2008
X3.9295Y-2.6496
X3.9295Y-3.5945
X3.9295Y-3.8701
X3.9295Y-4.6181
X3.9688Y-3.0039
X3.9688Y-4.185
X4.0082Y-3.3189
X4.0476Y-4.3819
X4.087Y-2.7677
X4.087Y-3.7126
X4.087Y-3.9882
X4.1657Y-2.5709
X4.1657Y-3.0827
X4.1657Y-3.5157
X4.1657Y-4.5394
X4.2051Y-4.1457
X4.2444Y-2.8858
X4.2444Y-3.2795
X4.2444Y-3.8307
X4.2838Y-4.3425
X4.2838Y-4.6969
X4.2838Y-5.0118
X4.3232Y-2.689
X4.3232Y-3.6339
X4.3625Y-3.9882
X4.4019Y-3.0039
X4.4019Y-3.3976
X4.4019Y-4.5
X4.4019Y-4.8543
X4.4413Y-2.4921
X4.4413Y-4.185
X4.4807Y-2.8071
X4.4807Y-3.2008
X4.4807Y-3.752
X4.52Y-4.6575
X4.5594Y-3.5157
X4.5594Y-4.3425
X4.5988Y-2.6102
X4.5988Y-3.9094
X4.675Y-2.95
X4.6775Y-2.8858
X4.6775Y-4.8937
X4.7169Y-2.4134
X4.7169Y-3.2795
X4.7169Y-3.6339
X4.7169Y-4.0669
X4.7169Y-4.4606
X4.775Y-3.15
X4.7956Y-2.689
X4.825Y-3.05
X4.8744Y-2.9646
X4.8744Y-3.3976
X4.8744Y-3.752
X4.8744Y-4.185
X4.8744Y-4.5787
X4.9137Y-2.4921
X4.9531Y-3.1614
X4.9531Y-3.9488
X4.9531Y-4.3819
X4.9925Y-2.7677
X4.9925Y-3.5945
X5.025Y-3.25
X5.0712Y-3.3189
X5.0712Y-4.8937
X5.075Y-3.55
X5.1106Y-2.4134
X5.1106Y-2.9252
X5.1106Y-3.7913
X5.1106Y-4.0669
X5.1106Y-4.5
X5.1499Y-2.6496
X5.175Y-3.45
X5.1893Y-3.122
X5.225Y-3.35
X5.2681Y-2.8071
X5.3074Y-2.4921
X5.3074Y-3.2795
X5.3074Y-3.5551
X5.3074Y-3.8701
X5.3074Y-4.1457
X5.3074Y-4.4213
X5.3074Y-4.6969
X5.3468Y-3.0039
X5.3862Y-4.8937
X5.4255Y-2.6496
X5.4255Y-3.7126
X5.4649Y-3.3976
X5.4649Y-3.9882
X5.4649Y-4.2638
X5.4649Y-4.5394
X5.5043Y-2.4134
X5.5043Y-2.8465
X5.5436Y-3.2008
X5.583Y-3.5551
X5.583Y-3.8307
X5.583Y-4.6969
X5.6224Y-2.5709
X5.6224Y-4.1063
X5.6224Y-4.3819
X5.6618Y-4.8937
X5.7011Y-2.7677
X5.7011Y-3.0433
X5.7011Y-3.3189
X5.7405Y-3.6732
X5.7405Y-3.9488
X5.7405Y-4.5394
X5.7799Y-2.4134
X5.7799Y-4.2244
X5.9373Y-2.5315
X5.9767Y-2.7677
X5.9767Y-3.0433
X5.9767Y-3.3189
X5.9767Y-3.5945
X5.9767Y-3.8701
X5.9767Y-4.1457
X5.9767Y-4.6575
X6.0161Y-4.3819
X6.0948Y-2.4134
X6.1342Y-2.6496
X6.1342Y-2.9252
X6.1342Y-3.437
X6.1342Y-3.752
X6.1342Y-4.5394
X6.1736Y-4.0669
X6.1736Y-4.9331
X6.2129Y-3.122
X6.2129Y-4.3031
X6.2523Y-3.5945
X6.2917Y-2.4921
X6.2917Y-2.7677
X6.2917Y-3.3189
X6.2917Y-3.8701
X6.2917Y-4.6575
X6.3704Y-2.9646
X6.375Y-4.2
X6.4098Y-4.3819
X6.425Y-4.5
X6.4492Y-2.6102
X6.4492Y-3.437
X6.4492Y-3.752
X6.475Y-4.0
X6.4885Y-3.122
X6.5279Y-2.4134
X6.5279Y-2.8071
X6.5279Y-3.9488
X6.5279Y-4.2244
X6.5279Y-4.5394
X6.5673Y-3.5945
X6.6066Y-3.2795
X6.646Y-2.9646
X6.6854Y-2.5315
X6.6854Y-3.8307
X6.6854Y-4.3425
X6.6854Y-4.6575
X6.7247Y-3.437
X6.725Y-4.1
X6.7641Y-2.7283
X6.7641Y-3.122
X6.775Y-3.7
X6.8035Y-3.6339
X6.8429Y-2.4134
X6.8429Y-3.9488
X6.8429Y-4.2244
X6.8429Y-4.5
X6.8822Y-2.8858
X6.8822Y-3.2795
X6.9216Y-2.6102
X6.975Y-3.5
X7.0003Y-3.0433
X7.0003Y-3.437
X7.0397Y-2.7677
X7.0397Y-3.6732
X7.0397Y-4.0276
X7.0397Y-4.3031
X7.0397Y-4.6575
X7.0791Y-2.4528
X7.0791Y-4.9331
X7.1184Y-3.2402
X7.1578Y-2.9252
X7.1578Y-3.8307
X7.1578Y-4.4606
X7.1972Y-2.6102
X7.1972Y-3.5157
X7.1972Y-4.1457
X7.2759Y-3.0827
X7.3153Y-2.4134
X7.3153Y-2.7677
X7.3153Y-3.6732
X7.325Y-3.8
X7.3547Y-3.9094
X7.3547Y-4.2638
X7.3547Y-4.5394
X7.3547Y-4.8937
X7.394Y-3.2402
X7.4334Y-2.5709
X7.4334Y-2.9252
X7.4728Y-3.5551
X7.4728Y-4.0669
X7.4728Y-4.6969
X7.5121Y-3.7913
X7.5121Y-4.3819
X7.5515Y-2.7283
X7.5515Y-3.0827
X7.5515Y-3.3583
X7.5515Y-4.9724
X7.5909Y-2.4134
X7.6303Y-3.9488
X7.6303Y-4.2244
X7.6303Y-4.5394
X7.709Y-2.5709
X7.7484Y-3.0039
X7.7484Y-3.437
X7.7484Y-3.7126
X7.7484Y-4.6969
X7.7484Y-5.0512
X7.7877Y-4.0669
X7.7877Y-4.3425
X7.8271Y-3.2008
X7.8665Y-2.4134
X7.8665Y-2.689
X7.8665Y-3.8701
X7.8665Y-4.8543
X7.9058Y-3.5551
X7.9058Y-4.5
X7.9452Y-2.8858
X7.9452Y-4.185
X7.9846Y-3.3189
X8.024Y-2.5315
X8.024Y-3.0827
X8.024Y-3.7126
X8.024Y-3.9882
X8.0633Y-4.3425
T2
X3.325Y-3.7
X3.5219Y-3.7
T3
X7.675Y-2.9244
X7.675Y-3.0228
X7.675Y-3.1016
X7.675Y-3.2
T4
X3.325Y-2.85
X3.325Y-2.95
X3.325Y-3.05
X3.325Y-3.15
X3.325Y-3.25
X3.325Y-3.35
X3.325Y-3.45
X3.325Y-3.55
X4.575Y-4.8
X4.575Y-5.0
X4.675Y-4.8
X4.675Y-5.0
X4.775Y-4.8
X4.775Y-5.0
X4.875Y-4.8
X4.875Y-5.0
X4.975Y-4.8
X4.975Y-5.0
X5.075Y-4.8
X5.075Y-5.0
X5.175Y-4.8
X5.175Y-5.0
X5.275Y-4.8
X5.275Y-5.0
X5.375Y-4.8
X5.375Y-5.0
X5.475Y-4.8
X5.475Y-5.0
X5.575Y-4.8
X5.575Y-5.0
X5.675Y-4.8
X5.675Y-5.0
X5.775Y-4.8
X5.775Y-5.0
X5.875Y-2.6
X5.875Y-2.7
X5.875Y-2.8
X5.875Y-2.9
X5.875Y-3.0
X5.875Y-3.1
X5.875Y-3.2
X5.875Y-3.3
X5.875Y-3.4
X5.875Y-3.5
X5.875Y-3.6
X5.875Y-3.7
X5.875Y-3.8
X5.875Y-3.9
X5.875Y-4.0
X5.875Y-4.1
X5.875Y-4.2
X5.875Y-4.3
X5.875Y-4.4
X5.875Y-4.5
X5.875Y-4.6
X5.875Y-4.7
X5.875Y-4.8
X5.875Y-4.9
X5.875Y-5.0
X5.975Y-4.8
X5.975Y-5.0
X6.075Y-4.8
X6.075Y-5.0
X6.175Y-4.8
X6.175Y-5.0
X6.275Y-4.8
X6.275Y-5.0
X6.375Y-4.8
X6.375Y-5.0
X6.475Y-4.8
X6.475Y-5.0
X6.575Y-4.8
X6.575Y-5.0
X6.675Y-4.8
X6.675Y-5.0
X6.775Y-4.8
X6.775Y-5.0
X6.875Y-4.8
X6.875Y-5.0
X6.975Y-4.8
X6.975Y-5.0
X7.075Y-4.8
X7.075Y-5.0
X7.175Y-4.8
X7.175Y-5.0
X7.275Y-4.8
X7.275Y-5.0
X7.375Y-4.8
X7.375Y-5.0
X7.475Y-4.8
X7.475Y-5.0
X7.8Y-3.55
X7.8Y-3.65
T5
X7.7817Y-2.8035
X7.7817Y-3.3209
T0
M30
