G04 #@! TF.GenerationSoftware,KiCad,Pcbnew,(5.1.9-0-10_14)*
G04 #@! TF.CreationDate,2021-05-16T20:01:38-04:00*
G04 #@! TF.ProjectId,rw-piggyback,72772d70-6967-4677-9962-61636b2e6b69,rev?*
G04 #@! TF.SameCoordinates,Original*
G04 #@! TF.FileFunction,Copper,L2,Bot*
G04 #@! TF.FilePolarity,Positive*
%FSLAX46Y46*%
G04 Gerber Fmt 4.6, Leading zero omitted, Abs format (unit mm)*
G04 Created by KiCad (PCBNEW (5.1.9-0-10_14)) date 2021-05-16 20:01:38*
%MOMM*%
%LPD*%
G01*
G04 APERTURE LIST*
G04 #@! TA.AperFunction,ComponentPad*
%ADD10C,1.600000*%
G04 #@! TD*
G04 #@! TA.AperFunction,ComponentPad*
%ADD11R,1.600000X1.600000*%
G04 #@! TD*
G04 #@! TA.AperFunction,ComponentPad*
%ADD12C,3.000000*%
G04 #@! TD*
G04 #@! TA.AperFunction,ComponentPad*
%ADD13O,1.700000X1.700000*%
G04 #@! TD*
G04 #@! TA.AperFunction,ComponentPad*
%ADD14R,1.700000X1.700000*%
G04 #@! TD*
G04 #@! TA.AperFunction,SMDPad,CuDef*
%ADD15R,1.524000X6.350000*%
G04 #@! TD*
G04 #@! TA.AperFunction,ViaPad*
%ADD16C,0.800000*%
G04 #@! TD*
G04 #@! TA.AperFunction,Conductor*
%ADD17C,0.250000*%
G04 #@! TD*
G04 #@! TA.AperFunction,Conductor*
%ADD18C,0.800000*%
G04 #@! TD*
G04 #@! TA.AperFunction,Conductor*
%ADD19C,0.254000*%
G04 #@! TD*
G04 #@! TA.AperFunction,Conductor*
%ADD20C,0.100000*%
G04 #@! TD*
G04 APERTURE END LIST*
D10*
X194945000Y-74280000D03*
X194945000Y-76780000D03*
X194945000Y-78780000D03*
D11*
X194945000Y-81280000D03*
D12*
X197655000Y-84350000D03*
X197655000Y-71210000D03*
D13*
X179705000Y-121920000D03*
X182245000Y-127000000D03*
X179705000Y-127000000D03*
X184785000Y-121920000D03*
X187325000Y-127000000D03*
X187325000Y-121920000D03*
X189865000Y-127000000D03*
X189865000Y-121920000D03*
X182245000Y-121920000D03*
X184785000Y-127000000D03*
X177165000Y-121920000D03*
X177165000Y-127000000D03*
X174625000Y-121920000D03*
X174625000Y-127000000D03*
X172085000Y-121920000D03*
X172085000Y-127000000D03*
X169545000Y-121920000D03*
X169545000Y-127000000D03*
X167005000Y-121920000D03*
X167005000Y-127000000D03*
X164465000Y-121920000D03*
X164465000Y-127000000D03*
X161925000Y-121920000D03*
X161925000Y-127000000D03*
X159385000Y-121920000D03*
X159385000Y-127000000D03*
X156845000Y-121920000D03*
X156845000Y-127000000D03*
X154305000Y-127000000D03*
X151765000Y-121920000D03*
X151765000Y-127000000D03*
X154305000Y-121920000D03*
X149225000Y-127000000D03*
X146685000Y-121920000D03*
X146685000Y-127000000D03*
X144145000Y-121920000D03*
X144145000Y-127000000D03*
X141605000Y-121920000D03*
X141605000Y-127000000D03*
X139065000Y-121920000D03*
X139065000Y-127000000D03*
X136525000Y-121920000D03*
X136525000Y-127000000D03*
X133985000Y-121920000D03*
X133985000Y-127000000D03*
X131445000Y-121920000D03*
X131445000Y-127000000D03*
X128905000Y-121920000D03*
X128905000Y-127000000D03*
X126365000Y-121920000D03*
X126365000Y-127000000D03*
X123825000Y-121920000D03*
X123825000Y-127000000D03*
X121285000Y-121920000D03*
X121285000Y-127000000D03*
X118745000Y-121920000D03*
X118745000Y-127000000D03*
X116205000Y-121920000D03*
D14*
X116205000Y-127000000D03*
D15*
X172085000Y-133985000D03*
X174625000Y-133985000D03*
X177165000Y-133985000D03*
X179705000Y-133985000D03*
X182245000Y-133985000D03*
X169545000Y-133985000D03*
X167005000Y-133985000D03*
X164465000Y-133985000D03*
X161925000Y-133985000D03*
X159385000Y-133985000D03*
X156845000Y-133985000D03*
X154305000Y-133985000D03*
X151765000Y-133985000D03*
X149225000Y-133985000D03*
X146685000Y-133985000D03*
X144145000Y-133985000D03*
X141605000Y-133985000D03*
X139065000Y-133985000D03*
X136525000Y-133985000D03*
X133985000Y-133985000D03*
X131445000Y-133985000D03*
X128905000Y-133985000D03*
X126365000Y-133985000D03*
X123825000Y-133985000D03*
X121285000Y-133985000D03*
X118745000Y-133985000D03*
X116205000Y-133985000D03*
X113665000Y-133985000D03*
X111125000Y-133985000D03*
X108585000Y-133985000D03*
D13*
X198120000Y-92710000D03*
D14*
X198120000Y-90170000D03*
D10*
X84455000Y-93980000D03*
X89455000Y-93980000D03*
D13*
X149225000Y-66040000D03*
X149225000Y-68580000D03*
X149225000Y-71120000D03*
X149225000Y-73660000D03*
X149225000Y-76200000D03*
X149225000Y-78740000D03*
X149225000Y-81280000D03*
X149225000Y-83820000D03*
X149225000Y-86360000D03*
X149225000Y-88900000D03*
X149225000Y-91440000D03*
X149225000Y-93980000D03*
X149225000Y-96520000D03*
X149225000Y-99060000D03*
X149225000Y-101600000D03*
X149225000Y-104140000D03*
X149225000Y-106680000D03*
X149225000Y-109220000D03*
X149225000Y-111760000D03*
X149225000Y-114300000D03*
X149225000Y-116840000D03*
X149225000Y-119380000D03*
X149225000Y-121920000D03*
D14*
X149225000Y-124460000D03*
D13*
X84455000Y-72390000D03*
X84455000Y-74930000D03*
X84455000Y-77470000D03*
X84455000Y-80010000D03*
X84455000Y-82550000D03*
X84455000Y-85090000D03*
X84455000Y-87630000D03*
D14*
X84455000Y-90170000D03*
D16*
X186055000Y-96520000D03*
X177165000Y-88900000D03*
X172085000Y-93980000D03*
X164465000Y-101600000D03*
X161925000Y-106680000D03*
X131445000Y-87630000D03*
X128905000Y-90170000D03*
X121285000Y-80010000D03*
X118745000Y-74930000D03*
X170815000Y-104140000D03*
X163195000Y-114300000D03*
X132715000Y-85090000D03*
X127635000Y-82550000D03*
X122555000Y-77470000D03*
X81808572Y-72299999D03*
X81808572Y-79299999D03*
X81808572Y-86299999D03*
X81808572Y-93299999D03*
X81808572Y-112299999D03*
X81808572Y-119299999D03*
X81808572Y-126299999D03*
X83808572Y-98299999D03*
X83808572Y-105299999D03*
X85808572Y-115299999D03*
X86808572Y-70299999D03*
X86808572Y-81299999D03*
X86808572Y-89299999D03*
X86808572Y-109299999D03*
X87808572Y-101299999D03*
X89808572Y-96299999D03*
X90808572Y-73299999D03*
X90808572Y-84299999D03*
X90808572Y-105299999D03*
X90808572Y-112299999D03*
X91808572Y-91299999D03*
X92808572Y-78299999D03*
X92808572Y-117299999D03*
X93808572Y-69299999D03*
X93808572Y-99299999D03*
X94808572Y-108299999D03*
X95808572Y-86299999D03*
X95808572Y-94299999D03*
X96808572Y-103299999D03*
X96808572Y-113299999D03*
X97808572Y-72299999D03*
X97808572Y-81299999D03*
X99808572Y-67299999D03*
X99808572Y-91299999D03*
X99808572Y-98299999D03*
X99808572Y-117299999D03*
X100808572Y-76299999D03*
X100808572Y-106299999D03*
X101808572Y-84299999D03*
X102808572Y-111299999D03*
X103808572Y-70299999D03*
X103808572Y-94299999D03*
X103808572Y-101299999D03*
X105808572Y-65299999D03*
X105808572Y-78299999D03*
X105808572Y-89299999D03*
X105808572Y-115299999D03*
X106808572Y-105299999D03*
X107808572Y-73299999D03*
X107808572Y-83299999D03*
X107808572Y-97299999D03*
X108808572Y-110299999D03*
X108808572Y-119299999D03*
X108808572Y-127299999D03*
X109808572Y-68299999D03*
X109808572Y-92299999D03*
X110808572Y-101299999D03*
X111808572Y-76299999D03*
X111808572Y-86299999D03*
X111808572Y-114299999D03*
X111808572Y-123299999D03*
X112808572Y-63299999D03*
X112808572Y-106299999D03*
X113808572Y-71299999D03*
X113808572Y-81299999D03*
X113808572Y-95299999D03*
X114808572Y-118299999D03*
X115808572Y-89299999D03*
X115808572Y-110299999D03*
X116808572Y-66299999D03*
X116808572Y-99299999D03*
X118808572Y-73299999D03*
X118808572Y-124299999D03*
X119808572Y-61299999D03*
X119808572Y-83299999D03*
X119808572Y-92299999D03*
X119808572Y-103299999D03*
X119808572Y-113299999D03*
X121808572Y-68299999D03*
X123808572Y-75299999D03*
X123808572Y-86299999D03*
X123808572Y-95299999D03*
X123808572Y-106299999D03*
X123808572Y-116299999D03*
X124808572Y-63299999D03*
X125808572Y-80299999D03*
X125808572Y-100299999D03*
X125808572Y-111299999D03*
X126808572Y-70299999D03*
X126808572Y-91299999D03*
X128808572Y-84299999D03*
X128808572Y-124299999D03*
X129808572Y-61299999D03*
X129808572Y-74299999D03*
X129808572Y-96299999D03*
X129808572Y-103299999D03*
X129808572Y-114299999D03*
X130808572Y-67299999D03*
X131808572Y-79299999D03*
X133808572Y-71299999D03*
X134808572Y-63299999D03*
X134808572Y-83299999D03*
X134808572Y-90299999D03*
X134808572Y-98299999D03*
X134808572Y-105299999D03*
X134808572Y-112299999D03*
X134808572Y-119299999D03*
X135808572Y-76299999D03*
X136808572Y-124299999D03*
X137808572Y-67299999D03*
X137808572Y-94299999D03*
X138808572Y-86299999D03*
X138808572Y-101299999D03*
X138808572Y-108299999D03*
X138808572Y-115299999D03*
X139808572Y-61299999D03*
X139808572Y-72299999D03*
X140808572Y-81299999D03*
X141808572Y-90299999D03*
X141808572Y-97299999D03*
X141808572Y-119299999D03*
X142808572Y-65299999D03*
X142808572Y-104299999D03*
X142808572Y-111299999D03*
X143808572Y-124299999D03*
X144808572Y-70299999D03*
X144808572Y-77299999D03*
X144808572Y-84299999D03*
X145808572Y-93299999D03*
X145808572Y-100299999D03*
X145808572Y-115299999D03*
X146808572Y-61299999D03*
X146808572Y-107299999D03*
X150808572Y-64299999D03*
X151808572Y-70299999D03*
X151808572Y-77299999D03*
X151808572Y-84299999D03*
X151808572Y-91299999D03*
X151808572Y-98299999D03*
X151808572Y-105299999D03*
X151808572Y-118299999D03*
X152808572Y-111299999D03*
X154808572Y-61299999D03*
X155808572Y-67299999D03*
X155808572Y-74299999D03*
X155808572Y-87299999D03*
X155808572Y-95299999D03*
X155808572Y-115299999D03*
X156808572Y-103299999D03*
X156808572Y-125299999D03*
X157808572Y-79299999D03*
X157808572Y-109299999D03*
X158808572Y-91299999D03*
X159808572Y-63299999D03*
X159808572Y-70299999D03*
X159808572Y-84299999D03*
X159808572Y-98299999D03*
X159808572Y-118299999D03*
X161808572Y-75299999D03*
X162808572Y-111299999D03*
X163808572Y-66299999D03*
X163808572Y-87299999D03*
X163808572Y-95299999D03*
X164808572Y-79299999D03*
X165808572Y-61299999D03*
X165808572Y-71299999D03*
X165808572Y-100299999D03*
X165808572Y-107299999D03*
X165808572Y-115299999D03*
X166808572Y-91299999D03*
X167808572Y-83299999D03*
X168808572Y-75299999D03*
X169808572Y-64299999D03*
X169808572Y-97299999D03*
X169808572Y-110299999D03*
X169808572Y-118299999D03*
X170808572Y-87299999D03*
X171808572Y-69299999D03*
X171808572Y-79299999D03*
X172808572Y-92299999D03*
X173808572Y-61299999D03*
X173808572Y-100299999D03*
X173808572Y-107299999D03*
X173808572Y-114299999D03*
X174808572Y-73299999D03*
X174808572Y-83299999D03*
X175808572Y-66299999D03*
X177808572Y-77299999D03*
X177808572Y-87299999D03*
X178808572Y-70299999D03*
X178808572Y-93299999D03*
X178808572Y-102299999D03*
X178808572Y-109299999D03*
X178808572Y-118299999D03*
X179808572Y-62299999D03*
X179808572Y-125299999D03*
X180808572Y-82299999D03*
X181808572Y-74299999D03*
X181808572Y-97299999D03*
X181808572Y-113299999D03*
X182808572Y-66299999D03*
X182808572Y-89299999D03*
X182808572Y-105299999D03*
X184808572Y-78299999D03*
X185808572Y-61299999D03*
X185808572Y-70299999D03*
X185808572Y-93299999D03*
X186808572Y-99299999D03*
X186808572Y-108299999D03*
X186808572Y-115299999D03*
X186808572Y-124299999D03*
X187808572Y-82299999D03*
X188808572Y-65299999D03*
X188808572Y-74299999D03*
X189808572Y-90299999D03*
X189808572Y-103299999D03*
X189808572Y-119299999D03*
X190808572Y-96299999D03*
X190808572Y-111299999D03*
X191808572Y-69299999D03*
X191808572Y-78299999D03*
X191808572Y-85299999D03*
X191808572Y-126299999D03*
X192808572Y-61299999D03*
X193808572Y-100299999D03*
X193808572Y-107299999D03*
X193808572Y-115299999D03*
X195808572Y-65299999D03*
X196808572Y-76299999D03*
X196808572Y-87299999D03*
X196808572Y-94299999D03*
X196808572Y-119299999D03*
X196808572Y-128299999D03*
X197808572Y-103299999D03*
X197808572Y-110299999D03*
X198808572Y-81299999D03*
X199808572Y-61299999D03*
X199808572Y-68299999D03*
X199808572Y-98299999D03*
X199808572Y-123299999D03*
X200808572Y-90299999D03*
X200808572Y-114299999D03*
X201808572Y-73299999D03*
X201808572Y-106299999D03*
X202808572Y-84299999D03*
X203808572Y-64299999D03*
X203808572Y-78299999D03*
X203808572Y-94299999D03*
X203808572Y-101299999D03*
X204808572Y-110299999D03*
D17*
X172085000Y-133985000D02*
X172085000Y-129857500D01*
X178435000Y-127952500D02*
X178435000Y-123190000D01*
X178117500Y-128270000D02*
X178435000Y-127952500D01*
X172085000Y-129857500D02*
X172402500Y-129540000D01*
X172402500Y-129540000D02*
X178117500Y-128270000D01*
X178435000Y-123190000D02*
X179705000Y-121920000D01*
X174625000Y-133985000D02*
X174625000Y-129857500D01*
X180975000Y-127952500D02*
X180975000Y-123190000D01*
X180657500Y-128270000D02*
X180975000Y-127952500D01*
X174625000Y-129857500D02*
X174942500Y-129540000D01*
X174942500Y-129540000D02*
X180657500Y-128270000D01*
X180975000Y-123190000D02*
X182245000Y-121920000D01*
X186055000Y-122389002D02*
X186055000Y-96520000D01*
X184785000Y-123659002D02*
X186055000Y-122389002D01*
X184785000Y-127000000D02*
X184785000Y-123659002D01*
X177165000Y-133985000D02*
X177165000Y-129857500D01*
X183515000Y-127952500D02*
X183515000Y-123190000D01*
X183197500Y-128270000D02*
X183515000Y-127952500D01*
X177165000Y-129857500D02*
X177482500Y-129540000D01*
X177482500Y-129540000D02*
X183197500Y-128270000D01*
X183515000Y-123190000D02*
X184785000Y-121920000D01*
X179705000Y-133985000D02*
X179705000Y-129857500D01*
X186055000Y-127952500D02*
X186055000Y-123190000D01*
X185737500Y-128270000D02*
X186055000Y-127952500D01*
X179705000Y-129857500D02*
X180022500Y-129540000D01*
X180022500Y-129540000D02*
X185737500Y-128270000D01*
X186055000Y-123190000D02*
X187325000Y-121920000D01*
X169545000Y-133985000D02*
X169545000Y-129857500D01*
X175895000Y-127952500D02*
X175895000Y-123190000D01*
X175577500Y-128270000D02*
X175895000Y-127952500D01*
X169545000Y-129857500D02*
X169862500Y-129540000D01*
X169862500Y-129540000D02*
X175577500Y-128270000D01*
X175895000Y-123190000D02*
X177165000Y-121920000D01*
X177165000Y-121920000D02*
X177165000Y-88900000D01*
X167005000Y-133985000D02*
X167005000Y-129857500D01*
X173355000Y-127952500D02*
X173355000Y-123190000D01*
X173037500Y-128270000D02*
X173355000Y-127952500D01*
X167005000Y-129857500D02*
X167322500Y-129540000D01*
X167322500Y-129540000D02*
X173037500Y-128270000D01*
X173355000Y-123190000D02*
X174625000Y-121920000D01*
X164465000Y-133985000D02*
X164465000Y-129857500D01*
X170815000Y-127952500D02*
X170815000Y-123190000D01*
X170497500Y-128270000D02*
X170815000Y-127952500D01*
X164465000Y-129857500D02*
X164782500Y-129540000D01*
X164782500Y-129540000D02*
X170497500Y-128270000D01*
X170815000Y-123190000D02*
X172085000Y-121920000D01*
X172085000Y-121920000D02*
X172085000Y-93980000D01*
X161925000Y-133985000D02*
X161925000Y-129857500D01*
X168275000Y-127952500D02*
X168275000Y-123190000D01*
X167957500Y-128270000D02*
X168275000Y-127952500D01*
X161925000Y-129857500D02*
X162242500Y-129540000D01*
X162242500Y-129540000D02*
X167957500Y-128270000D01*
X168275000Y-123190000D02*
X169545000Y-121920000D01*
X159385000Y-133985000D02*
X159385000Y-129857500D01*
X165735000Y-127952500D02*
X165735000Y-123190000D01*
X165417500Y-128270000D02*
X165735000Y-127952500D01*
X159385000Y-129857500D02*
X159702500Y-129540000D01*
X159702500Y-129540000D02*
X165417500Y-128270000D01*
X165735000Y-123190000D02*
X167005000Y-121920000D01*
X156845000Y-133985000D02*
X156845000Y-129857500D01*
X163195000Y-127952500D02*
X163195000Y-123190000D01*
X162877500Y-128270000D02*
X163195000Y-127952500D01*
X156845000Y-129857500D02*
X157162500Y-129540000D01*
X157162500Y-129540000D02*
X162877500Y-128270000D01*
X163195000Y-123190000D02*
X164465000Y-121920000D01*
X164465000Y-121920000D02*
X164465000Y-101600000D01*
X154305000Y-133985000D02*
X154305000Y-129857500D01*
X160655000Y-127952500D02*
X160655000Y-123190000D01*
X160337500Y-128270000D02*
X160655000Y-127952500D01*
X154305000Y-129857500D02*
X154622500Y-129540000D01*
X154622500Y-129540000D02*
X160337500Y-128270000D01*
X160655000Y-123190000D02*
X161925000Y-121920000D01*
X161925000Y-121920000D02*
X161925000Y-106680000D01*
X151765000Y-133985000D02*
X151765000Y-129857500D01*
X158115000Y-127952500D02*
X158115000Y-123190000D01*
X157797500Y-128270000D02*
X158115000Y-127952500D01*
X151765000Y-129857500D02*
X152082500Y-129540000D01*
X152082500Y-129540000D02*
X157797500Y-128270000D01*
X158115000Y-123190000D02*
X159385000Y-121920000D01*
X149225000Y-133985000D02*
X149225000Y-129857500D01*
X155575000Y-127952500D02*
X155575000Y-123190000D01*
X155257500Y-128270000D02*
X155575000Y-127952500D01*
X149225000Y-129857500D02*
X149542500Y-129540000D01*
X149542500Y-129540000D02*
X155257500Y-128270000D01*
X155575000Y-123190000D02*
X156845000Y-121920000D01*
X146685000Y-133985000D02*
X146685000Y-129857500D01*
X153035000Y-127952500D02*
X153035000Y-123190000D01*
X152717500Y-128270000D02*
X153035000Y-127952500D01*
X146685000Y-129857500D02*
X147002500Y-129540000D01*
X147002500Y-129540000D02*
X152717500Y-128270000D01*
X153035000Y-123190000D02*
X154305000Y-121920000D01*
X154305000Y-114300000D02*
X149225000Y-109220000D01*
X154305000Y-121920000D02*
X154305000Y-114300000D01*
X150495000Y-127952500D02*
X150495000Y-123190000D01*
X144145000Y-133985000D02*
X144145000Y-129857500D01*
X150495000Y-123190000D02*
X151765000Y-121920000D01*
X144145000Y-129857500D02*
X144462500Y-129540000D01*
X150177500Y-128270000D02*
X150495000Y-127952500D01*
X144462500Y-129540000D02*
X150177500Y-128270000D01*
X139065000Y-133985000D02*
X139065000Y-129857500D01*
X145415000Y-127952500D02*
X145415000Y-123190000D01*
X145097500Y-128270000D02*
X145415000Y-127952500D01*
X139065000Y-129857500D02*
X139382500Y-129540000D01*
X139382500Y-129540000D02*
X145097500Y-128270000D01*
X145415000Y-123190000D02*
X146685000Y-121920000D01*
X136525000Y-133985000D02*
X136525000Y-129857500D01*
X142875000Y-127952500D02*
X142875000Y-123190000D01*
X142557500Y-128270000D02*
X142875000Y-127952500D01*
X136525000Y-129857500D02*
X136842500Y-129540000D01*
X136842500Y-129540000D02*
X142557500Y-128270000D01*
X142875000Y-123190000D02*
X144145000Y-121920000D01*
X133985000Y-133985000D02*
X133985000Y-129857500D01*
X140335000Y-127952500D02*
X140335000Y-123190000D01*
X140017500Y-128270000D02*
X140335000Y-127952500D01*
X133985000Y-129857500D02*
X134302500Y-129540000D01*
X134302500Y-129540000D02*
X140017500Y-128270000D01*
X140335000Y-123190000D02*
X141605000Y-121920000D01*
X131445000Y-133985000D02*
X131445000Y-129857500D01*
X137795000Y-127952500D02*
X137795000Y-123190000D01*
X137477500Y-128270000D02*
X137795000Y-127952500D01*
X131445000Y-129857500D02*
X131762500Y-129540000D01*
X131762500Y-129540000D02*
X137477500Y-128270000D01*
X137795000Y-123190000D02*
X139065000Y-121920000D01*
X128905000Y-133985000D02*
X128905000Y-129857500D01*
X135255000Y-127952500D02*
X135255000Y-123190000D01*
X134937500Y-128270000D02*
X135255000Y-127952500D01*
X128905000Y-129857500D02*
X129222500Y-129540000D01*
X129222500Y-129540000D02*
X134937500Y-128270000D01*
X135255000Y-123190000D02*
X136525000Y-121920000D01*
X126365000Y-133985000D02*
X126365000Y-129857500D01*
X132715000Y-127952500D02*
X132715000Y-123190000D01*
X132397500Y-128270000D02*
X132715000Y-127952500D01*
X126365000Y-129857500D02*
X126682500Y-129540000D01*
X126682500Y-129540000D02*
X132397500Y-128270000D01*
X132715000Y-123190000D02*
X133985000Y-121920000D01*
X133985000Y-86360000D02*
X149225000Y-71120000D01*
X133985000Y-121920000D02*
X133985000Y-86360000D01*
X123825000Y-133985000D02*
X123825000Y-129857500D01*
X130175000Y-127952500D02*
X130175000Y-123190000D01*
X129857500Y-128270000D02*
X130175000Y-127952500D01*
X123825000Y-129857500D02*
X124142500Y-129540000D01*
X124142500Y-129540000D02*
X129857500Y-128270000D01*
X130175000Y-123190000D02*
X131445000Y-121920000D01*
X131445000Y-121920000D02*
X131445000Y-87630000D01*
X121285000Y-133985000D02*
X121285000Y-129857500D01*
X127635000Y-127952500D02*
X127635000Y-123190000D01*
X127317500Y-128270000D02*
X127635000Y-127952500D01*
X121285000Y-129857500D02*
X121602500Y-129540000D01*
X121602500Y-129540000D02*
X127317500Y-128270000D01*
X127635000Y-123190000D02*
X128905000Y-121920000D01*
X128905000Y-121920000D02*
X128905000Y-90170000D01*
X118745000Y-133985000D02*
X118745000Y-129857500D01*
X125095000Y-127952500D02*
X125095000Y-123190000D01*
X124777500Y-128270000D02*
X125095000Y-127952500D01*
X118745000Y-129857500D02*
X119062500Y-129540000D01*
X119062500Y-129540000D02*
X124777500Y-128270000D01*
X125095000Y-123190000D02*
X126365000Y-121920000D01*
X116205000Y-133985000D02*
X116205000Y-129857500D01*
X122555000Y-127952500D02*
X122555000Y-123190000D01*
X122237500Y-128270000D02*
X122555000Y-127952500D01*
X116205000Y-129857500D02*
X116522500Y-129540000D01*
X116522500Y-129540000D02*
X122237500Y-128270000D01*
X122555000Y-123190000D02*
X123825000Y-121920000D01*
X113665000Y-133985000D02*
X113665000Y-129857500D01*
X120015000Y-127952500D02*
X120015000Y-123190000D01*
X119697500Y-128270000D02*
X120015000Y-127952500D01*
X113665000Y-129857500D02*
X113982500Y-129540000D01*
X113982500Y-129540000D02*
X119697500Y-128270000D01*
X120015000Y-123190000D02*
X121285000Y-121920000D01*
X121285000Y-121920000D02*
X121285000Y-80010000D01*
X111125000Y-133985000D02*
X111125000Y-129857500D01*
X111125000Y-129857500D02*
X111442500Y-129540000D01*
X111442500Y-129540000D02*
X117157500Y-128270000D01*
X117157500Y-128270000D02*
X117475000Y-127952500D01*
X117475000Y-127952500D02*
X117475000Y-123190000D01*
X117475000Y-123190000D02*
X118745000Y-121920000D01*
X118745000Y-121920000D02*
X118745000Y-74930000D01*
X108585000Y-133985000D02*
X108585000Y-129857500D01*
X114935000Y-127952500D02*
X114935000Y-123190000D01*
X114617500Y-128270000D02*
X114935000Y-127952500D01*
X108585000Y-129857500D02*
X108902500Y-129540000D01*
X108902500Y-129540000D02*
X114617500Y-128270000D01*
X114935000Y-123190000D02*
X116205000Y-121920000D01*
X170815000Y-122389002D02*
X170815000Y-104140000D01*
X169545000Y-123659002D02*
X170815000Y-122389002D01*
X169545000Y-127000000D02*
X169545000Y-123659002D01*
X161925000Y-123659002D02*
X163195000Y-122389002D01*
X163195000Y-122389002D02*
X163195000Y-114300000D01*
X161925000Y-127000000D02*
X161925000Y-123659002D01*
X160560001Y-87535001D02*
X149225000Y-76200000D01*
X160560001Y-122484001D02*
X160560001Y-87535001D01*
X159385000Y-123659002D02*
X160560001Y-122484001D01*
X159385000Y-127000000D02*
X159385000Y-123659002D01*
X152940001Y-115475001D02*
X149225000Y-111760000D01*
X152940001Y-122484001D02*
X152940001Y-115475001D01*
X151765000Y-123659002D02*
X152940001Y-122484001D01*
X151765000Y-127000000D02*
X151765000Y-123659002D01*
X132715000Y-122389002D02*
X132715000Y-85090000D01*
X131445000Y-123659002D02*
X132715000Y-122389002D01*
X131445000Y-127000000D02*
X131445000Y-123659002D01*
X126365000Y-123659002D02*
X127635000Y-122389002D01*
X127635000Y-122389002D02*
X127635000Y-82550000D01*
X126365000Y-127000000D02*
X126365000Y-123659002D01*
X122555000Y-122389002D02*
X122555000Y-77470000D01*
X121285000Y-123659002D02*
X122555000Y-122389002D01*
X121285000Y-127000000D02*
X121285000Y-123659002D01*
X117380001Y-105315001D02*
X84455000Y-72390000D01*
X117380001Y-122484001D02*
X117380001Y-105315001D01*
X116205000Y-123659002D02*
X117380001Y-122484001D01*
X116205000Y-127000000D02*
X116205000Y-123659002D01*
D18*
X182245000Y-133985000D02*
X182245000Y-129829786D01*
X149225000Y-78740000D02*
X149225000Y-81280000D01*
D19*
X206023000Y-129823000D02*
X184675292Y-129823000D01*
X184658000Y-129821297D01*
X184640709Y-129823000D01*
X184640708Y-129823000D01*
X184588996Y-129828093D01*
X184522644Y-129848221D01*
X184461493Y-129880907D01*
X184407894Y-129924894D01*
X184363907Y-129978493D01*
X184331221Y-130039644D01*
X184328686Y-130048000D01*
X180157000Y-130048000D01*
X180157000Y-130044723D01*
X180249041Y-129952683D01*
X185808941Y-128717151D01*
X185826107Y-128715460D01*
X185852288Y-128707518D01*
X185857229Y-128706420D01*
X185873562Y-128701065D01*
X185911309Y-128689614D01*
X185915793Y-128687217D01*
X185920631Y-128685631D01*
X185955057Y-128666230D01*
X185989833Y-128647642D01*
X185993760Y-128644419D01*
X185998198Y-128641918D01*
X186028194Y-128616159D01*
X186041410Y-128605313D01*
X186044969Y-128601754D01*
X186065746Y-128583912D01*
X186076399Y-128570325D01*
X186358906Y-128287818D01*
X186376159Y-128273659D01*
X186432643Y-128204833D01*
X186474614Y-128126310D01*
X186475556Y-128123206D01*
X186500460Y-128041108D01*
X186509187Y-127952500D01*
X186507000Y-127930295D01*
X186507000Y-127846530D01*
X186574706Y-127914236D01*
X186767481Y-128043044D01*
X186981682Y-128131769D01*
X187209076Y-128177000D01*
X187440924Y-128177000D01*
X187668318Y-128131769D01*
X187882519Y-128043044D01*
X188075294Y-127914236D01*
X188239236Y-127750294D01*
X188368044Y-127557519D01*
X188456769Y-127343318D01*
X188502000Y-127115924D01*
X188502000Y-126884076D01*
X188688000Y-126884076D01*
X188688000Y-127115924D01*
X188733231Y-127343318D01*
X188821956Y-127557519D01*
X188950764Y-127750294D01*
X189114706Y-127914236D01*
X189307481Y-128043044D01*
X189521682Y-128131769D01*
X189749076Y-128177000D01*
X189980924Y-128177000D01*
X190208318Y-128131769D01*
X190422519Y-128043044D01*
X190615294Y-127914236D01*
X190779236Y-127750294D01*
X190908044Y-127557519D01*
X190996769Y-127343318D01*
X191042000Y-127115924D01*
X191042000Y-126884076D01*
X190996769Y-126656682D01*
X190908044Y-126442481D01*
X190779236Y-126249706D01*
X190615294Y-126085764D01*
X190422519Y-125956956D01*
X190208318Y-125868231D01*
X189980924Y-125823000D01*
X189749076Y-125823000D01*
X189521682Y-125868231D01*
X189307481Y-125956956D01*
X189114706Y-126085764D01*
X188950764Y-126249706D01*
X188821956Y-126442481D01*
X188733231Y-126656682D01*
X188688000Y-126884076D01*
X188502000Y-126884076D01*
X188456769Y-126656682D01*
X188368044Y-126442481D01*
X188239236Y-126249706D01*
X188075294Y-126085764D01*
X187882519Y-125956956D01*
X187668318Y-125868231D01*
X187440924Y-125823000D01*
X187209076Y-125823000D01*
X186981682Y-125868231D01*
X186767481Y-125956956D01*
X186574706Y-126085764D01*
X186507000Y-126153470D01*
X186507000Y-123377223D01*
X186876162Y-123008061D01*
X186981682Y-123051769D01*
X187209076Y-123097000D01*
X187440924Y-123097000D01*
X187668318Y-123051769D01*
X187882519Y-122963044D01*
X188075294Y-122834236D01*
X188239236Y-122670294D01*
X188368044Y-122477519D01*
X188436264Y-122312821D01*
X188520843Y-122551252D01*
X188669822Y-122801355D01*
X188864731Y-123017588D01*
X189098080Y-123191641D01*
X189360901Y-123316825D01*
X189508110Y-123361476D01*
X189738000Y-123240155D01*
X189738000Y-122047000D01*
X189992000Y-122047000D01*
X189992000Y-123240155D01*
X190221890Y-123361476D01*
X190369099Y-123316825D01*
X190631920Y-123191641D01*
X190865269Y-123017588D01*
X191060178Y-122801355D01*
X191209157Y-122551252D01*
X191306481Y-122276891D01*
X191185814Y-122047000D01*
X189992000Y-122047000D01*
X189738000Y-122047000D01*
X189718000Y-122047000D01*
X189718000Y-121793000D01*
X189738000Y-121793000D01*
X189738000Y-120599845D01*
X189992000Y-120599845D01*
X189992000Y-121793000D01*
X191185814Y-121793000D01*
X191306481Y-121563109D01*
X191209157Y-121288748D01*
X191060178Y-121038645D01*
X190865269Y-120822412D01*
X190631920Y-120648359D01*
X190369099Y-120523175D01*
X190221890Y-120478524D01*
X189992000Y-120599845D01*
X189738000Y-120599845D01*
X189508110Y-120478524D01*
X189360901Y-120523175D01*
X189098080Y-120648359D01*
X188864731Y-120822412D01*
X188669822Y-121038645D01*
X188520843Y-121288748D01*
X188436264Y-121527179D01*
X188368044Y-121362481D01*
X188239236Y-121169706D01*
X188075294Y-121005764D01*
X187882519Y-120876956D01*
X187668318Y-120788231D01*
X187440924Y-120743000D01*
X187209076Y-120743000D01*
X186981682Y-120788231D01*
X186767481Y-120876956D01*
X186574706Y-121005764D01*
X186507000Y-121073470D01*
X186507000Y-97092339D01*
X186518436Y-97084698D01*
X186619698Y-96983436D01*
X186699259Y-96864364D01*
X186754062Y-96732058D01*
X186782000Y-96591603D01*
X186782000Y-96448397D01*
X186754062Y-96307942D01*
X186699259Y-96175636D01*
X186619698Y-96056564D01*
X186518436Y-95955302D01*
X186399364Y-95875741D01*
X186267058Y-95820938D01*
X186126603Y-95793000D01*
X185983397Y-95793000D01*
X185842942Y-95820938D01*
X185710636Y-95875741D01*
X185591564Y-95955302D01*
X185490302Y-96056564D01*
X185410741Y-96175636D01*
X185355938Y-96307942D01*
X185328000Y-96448397D01*
X185328000Y-96591603D01*
X185355938Y-96732058D01*
X185410741Y-96864364D01*
X185490302Y-96983436D01*
X185591564Y-97084698D01*
X185603001Y-97092340D01*
X185603000Y-121073470D01*
X185535294Y-121005764D01*
X185342519Y-120876956D01*
X185128318Y-120788231D01*
X184900924Y-120743000D01*
X184669076Y-120743000D01*
X184441682Y-120788231D01*
X184227481Y-120876956D01*
X184034706Y-121005764D01*
X183870764Y-121169706D01*
X183741956Y-121362481D01*
X183653231Y-121576682D01*
X183608000Y-121804076D01*
X183608000Y-122035924D01*
X183653231Y-122263318D01*
X183696939Y-122368838D01*
X183211096Y-122854681D01*
X183193842Y-122868841D01*
X183137358Y-122937667D01*
X183095386Y-123016191D01*
X183069540Y-123101393D01*
X183060813Y-123190000D01*
X183063001Y-123212215D01*
X183063000Y-126153470D01*
X182995294Y-126085764D01*
X182802519Y-125956956D01*
X182588318Y-125868231D01*
X182360924Y-125823000D01*
X182129076Y-125823000D01*
X181901682Y-125868231D01*
X181687481Y-125956956D01*
X181494706Y-126085764D01*
X181427000Y-126153470D01*
X181427000Y-123377223D01*
X181796162Y-123008061D01*
X181901682Y-123051769D01*
X182129076Y-123097000D01*
X182360924Y-123097000D01*
X182588318Y-123051769D01*
X182802519Y-122963044D01*
X182995294Y-122834236D01*
X183159236Y-122670294D01*
X183288044Y-122477519D01*
X183376769Y-122263318D01*
X183422000Y-122035924D01*
X183422000Y-121804076D01*
X183376769Y-121576682D01*
X183288044Y-121362481D01*
X183159236Y-121169706D01*
X182995294Y-121005764D01*
X182802519Y-120876956D01*
X182588318Y-120788231D01*
X182360924Y-120743000D01*
X182129076Y-120743000D01*
X181901682Y-120788231D01*
X181687481Y-120876956D01*
X181494706Y-121005764D01*
X181330764Y-121169706D01*
X181201956Y-121362481D01*
X181113231Y-121576682D01*
X181068000Y-121804076D01*
X181068000Y-122035924D01*
X181113231Y-122263318D01*
X181156939Y-122368838D01*
X180671096Y-122854681D01*
X180653842Y-122868841D01*
X180597358Y-122937667D01*
X180555386Y-123016191D01*
X180529540Y-123101393D01*
X180520813Y-123190000D01*
X180523001Y-123212215D01*
X180523000Y-126153470D01*
X180455294Y-126085764D01*
X180262519Y-125956956D01*
X180048318Y-125868231D01*
X179820924Y-125823000D01*
X179589076Y-125823000D01*
X179361682Y-125868231D01*
X179147481Y-125956956D01*
X178954706Y-126085764D01*
X178887000Y-126153470D01*
X178887000Y-123377223D01*
X179256162Y-123008061D01*
X179361682Y-123051769D01*
X179589076Y-123097000D01*
X179820924Y-123097000D01*
X180048318Y-123051769D01*
X180262519Y-122963044D01*
X180455294Y-122834236D01*
X180619236Y-122670294D01*
X180748044Y-122477519D01*
X180836769Y-122263318D01*
X180882000Y-122035924D01*
X180882000Y-121804076D01*
X180836769Y-121576682D01*
X180748044Y-121362481D01*
X180619236Y-121169706D01*
X180455294Y-121005764D01*
X180262519Y-120876956D01*
X180048318Y-120788231D01*
X179820924Y-120743000D01*
X179589076Y-120743000D01*
X179361682Y-120788231D01*
X179147481Y-120876956D01*
X178954706Y-121005764D01*
X178790764Y-121169706D01*
X178661956Y-121362481D01*
X178573231Y-121576682D01*
X178528000Y-121804076D01*
X178528000Y-122035924D01*
X178573231Y-122263318D01*
X178616939Y-122368838D01*
X178131096Y-122854681D01*
X178113842Y-122868841D01*
X178057358Y-122937667D01*
X178015386Y-123016191D01*
X177989540Y-123101393D01*
X177980813Y-123190000D01*
X177983001Y-123212215D01*
X177983000Y-126153470D01*
X177915294Y-126085764D01*
X177722519Y-125956956D01*
X177508318Y-125868231D01*
X177280924Y-125823000D01*
X177049076Y-125823000D01*
X176821682Y-125868231D01*
X176607481Y-125956956D01*
X176414706Y-126085764D01*
X176347000Y-126153470D01*
X176347000Y-123377223D01*
X176716162Y-123008061D01*
X176821682Y-123051769D01*
X177049076Y-123097000D01*
X177280924Y-123097000D01*
X177508318Y-123051769D01*
X177722519Y-122963044D01*
X177915294Y-122834236D01*
X178079236Y-122670294D01*
X178208044Y-122477519D01*
X178296769Y-122263318D01*
X178342000Y-122035924D01*
X178342000Y-121804076D01*
X178296769Y-121576682D01*
X178208044Y-121362481D01*
X178079236Y-121169706D01*
X177915294Y-121005764D01*
X177722519Y-120876956D01*
X177617000Y-120833249D01*
X177617000Y-91020000D01*
X196631928Y-91020000D01*
X196644188Y-91144482D01*
X196680498Y-91264180D01*
X196739463Y-91374494D01*
X196818815Y-91471185D01*
X196915506Y-91550537D01*
X197025820Y-91609502D01*
X197145518Y-91645812D01*
X197270000Y-91658072D01*
X197588110Y-91656340D01*
X197562481Y-91666956D01*
X197369706Y-91795764D01*
X197205764Y-91959706D01*
X197076956Y-92152481D01*
X196988231Y-92366682D01*
X196943000Y-92594076D01*
X196943000Y-92825924D01*
X196988231Y-93053318D01*
X197076956Y-93267519D01*
X197205764Y-93460294D01*
X197369706Y-93624236D01*
X197562481Y-93753044D01*
X197776682Y-93841769D01*
X198004076Y-93887000D01*
X198235924Y-93887000D01*
X198463318Y-93841769D01*
X198677519Y-93753044D01*
X198870294Y-93624236D01*
X199034236Y-93460294D01*
X199163044Y-93267519D01*
X199251769Y-93053318D01*
X199297000Y-92825924D01*
X199297000Y-92594076D01*
X199251769Y-92366682D01*
X199163044Y-92152481D01*
X199034236Y-91959706D01*
X198870294Y-91795764D01*
X198677519Y-91666956D01*
X198651890Y-91656340D01*
X198970000Y-91658072D01*
X199094482Y-91645812D01*
X199214180Y-91609502D01*
X199324494Y-91550537D01*
X199421185Y-91471185D01*
X199500537Y-91374494D01*
X199559502Y-91264180D01*
X199595812Y-91144482D01*
X199608072Y-91020000D01*
X199605000Y-90455750D01*
X199446250Y-90297000D01*
X198247000Y-90297000D01*
X198247000Y-90317000D01*
X197993000Y-90317000D01*
X197993000Y-90297000D01*
X196793750Y-90297000D01*
X196635000Y-90455750D01*
X196631928Y-91020000D01*
X177617000Y-91020000D01*
X177617000Y-89472339D01*
X177628436Y-89464698D01*
X177729698Y-89363436D01*
X177758720Y-89320000D01*
X196631928Y-89320000D01*
X196635000Y-89884250D01*
X196793750Y-90043000D01*
X197993000Y-90043000D01*
X197993000Y-88843750D01*
X198247000Y-88843750D01*
X198247000Y-90043000D01*
X199446250Y-90043000D01*
X199605000Y-89884250D01*
X199608072Y-89320000D01*
X199595812Y-89195518D01*
X199559502Y-89075820D01*
X199500537Y-88965506D01*
X199421185Y-88868815D01*
X199324494Y-88789463D01*
X199214180Y-88730498D01*
X199094482Y-88694188D01*
X198970000Y-88681928D01*
X198405750Y-88685000D01*
X198247000Y-88843750D01*
X197993000Y-88843750D01*
X197834250Y-88685000D01*
X197270000Y-88681928D01*
X197145518Y-88694188D01*
X197025820Y-88730498D01*
X196915506Y-88789463D01*
X196818815Y-88868815D01*
X196739463Y-88965506D01*
X196680498Y-89075820D01*
X196644188Y-89195518D01*
X196631928Y-89320000D01*
X177758720Y-89320000D01*
X177809259Y-89244364D01*
X177864062Y-89112058D01*
X177892000Y-88971603D01*
X177892000Y-88828397D01*
X177864062Y-88687942D01*
X177809259Y-88555636D01*
X177729698Y-88436564D01*
X177628436Y-88335302D01*
X177509364Y-88255741D01*
X177377058Y-88200938D01*
X177236603Y-88173000D01*
X177093397Y-88173000D01*
X176952942Y-88200938D01*
X176820636Y-88255741D01*
X176701564Y-88335302D01*
X176600302Y-88436564D01*
X176520741Y-88555636D01*
X176465938Y-88687942D01*
X176438000Y-88828397D01*
X176438000Y-88971603D01*
X176465938Y-89112058D01*
X176520741Y-89244364D01*
X176600302Y-89363436D01*
X176701564Y-89464698D01*
X176713001Y-89472340D01*
X176713000Y-120833249D01*
X176607481Y-120876956D01*
X176414706Y-121005764D01*
X176250764Y-121169706D01*
X176121956Y-121362481D01*
X176033231Y-121576682D01*
X175988000Y-121804076D01*
X175988000Y-122035924D01*
X176033231Y-122263318D01*
X176076939Y-122368838D01*
X175591096Y-122854681D01*
X175573842Y-122868841D01*
X175517358Y-122937667D01*
X175475386Y-123016191D01*
X175449540Y-123101393D01*
X175440813Y-123190000D01*
X175443001Y-123212215D01*
X175443000Y-126153470D01*
X175375294Y-126085764D01*
X175182519Y-125956956D01*
X174968318Y-125868231D01*
X174740924Y-125823000D01*
X174509076Y-125823000D01*
X174281682Y-125868231D01*
X174067481Y-125956956D01*
X173874706Y-126085764D01*
X173807000Y-126153470D01*
X173807000Y-123377223D01*
X174176162Y-123008061D01*
X174281682Y-123051769D01*
X174509076Y-123097000D01*
X174740924Y-123097000D01*
X174968318Y-123051769D01*
X175182519Y-122963044D01*
X175375294Y-122834236D01*
X175539236Y-122670294D01*
X175668044Y-122477519D01*
X175756769Y-122263318D01*
X175802000Y-122035924D01*
X175802000Y-121804076D01*
X175756769Y-121576682D01*
X175668044Y-121362481D01*
X175539236Y-121169706D01*
X175375294Y-121005764D01*
X175182519Y-120876956D01*
X174968318Y-120788231D01*
X174740924Y-120743000D01*
X174509076Y-120743000D01*
X174281682Y-120788231D01*
X174067481Y-120876956D01*
X173874706Y-121005764D01*
X173710764Y-121169706D01*
X173581956Y-121362481D01*
X173493231Y-121576682D01*
X173448000Y-121804076D01*
X173448000Y-122035924D01*
X173493231Y-122263318D01*
X173536939Y-122368838D01*
X173051096Y-122854681D01*
X173033842Y-122868841D01*
X172977358Y-122937667D01*
X172935386Y-123016191D01*
X172909540Y-123101393D01*
X172900813Y-123190000D01*
X172903001Y-123212215D01*
X172903000Y-126153470D01*
X172835294Y-126085764D01*
X172642519Y-125956956D01*
X172428318Y-125868231D01*
X172200924Y-125823000D01*
X171969076Y-125823000D01*
X171741682Y-125868231D01*
X171527481Y-125956956D01*
X171334706Y-126085764D01*
X171267000Y-126153470D01*
X171267000Y-123377223D01*
X171636162Y-123008061D01*
X171741682Y-123051769D01*
X171969076Y-123097000D01*
X172200924Y-123097000D01*
X172428318Y-123051769D01*
X172642519Y-122963044D01*
X172835294Y-122834236D01*
X172999236Y-122670294D01*
X173128044Y-122477519D01*
X173216769Y-122263318D01*
X173262000Y-122035924D01*
X173262000Y-121804076D01*
X173216769Y-121576682D01*
X173128044Y-121362481D01*
X172999236Y-121169706D01*
X172835294Y-121005764D01*
X172642519Y-120876956D01*
X172537000Y-120833249D01*
X172537000Y-94552339D01*
X172548436Y-94544698D01*
X172649698Y-94443436D01*
X172729259Y-94324364D01*
X172784062Y-94192058D01*
X172812000Y-94051603D01*
X172812000Y-93908397D01*
X172784062Y-93767942D01*
X172729259Y-93635636D01*
X172649698Y-93516564D01*
X172548436Y-93415302D01*
X172429364Y-93335741D01*
X172297058Y-93280938D01*
X172156603Y-93253000D01*
X172013397Y-93253000D01*
X171872942Y-93280938D01*
X171740636Y-93335741D01*
X171621564Y-93415302D01*
X171520302Y-93516564D01*
X171440741Y-93635636D01*
X171385938Y-93767942D01*
X171358000Y-93908397D01*
X171358000Y-94051603D01*
X171385938Y-94192058D01*
X171440741Y-94324364D01*
X171520302Y-94443436D01*
X171621564Y-94544698D01*
X171633001Y-94552340D01*
X171633000Y-120833249D01*
X171527481Y-120876956D01*
X171334706Y-121005764D01*
X171267000Y-121073470D01*
X171267000Y-104712339D01*
X171278436Y-104704698D01*
X171379698Y-104603436D01*
X171459259Y-104484364D01*
X171514062Y-104352058D01*
X171542000Y-104211603D01*
X171542000Y-104068397D01*
X171514062Y-103927942D01*
X171459259Y-103795636D01*
X171379698Y-103676564D01*
X171278436Y-103575302D01*
X171159364Y-103495741D01*
X171027058Y-103440938D01*
X170886603Y-103413000D01*
X170743397Y-103413000D01*
X170602942Y-103440938D01*
X170470636Y-103495741D01*
X170351564Y-103575302D01*
X170250302Y-103676564D01*
X170170741Y-103795636D01*
X170115938Y-103927942D01*
X170088000Y-104068397D01*
X170088000Y-104211603D01*
X170115938Y-104352058D01*
X170170741Y-104484364D01*
X170250302Y-104603436D01*
X170351564Y-104704698D01*
X170363001Y-104712340D01*
X170363000Y-121073470D01*
X170295294Y-121005764D01*
X170102519Y-120876956D01*
X169888318Y-120788231D01*
X169660924Y-120743000D01*
X169429076Y-120743000D01*
X169201682Y-120788231D01*
X168987481Y-120876956D01*
X168794706Y-121005764D01*
X168630764Y-121169706D01*
X168501956Y-121362481D01*
X168413231Y-121576682D01*
X168368000Y-121804076D01*
X168368000Y-122035924D01*
X168413231Y-122263318D01*
X168456939Y-122368838D01*
X167971096Y-122854681D01*
X167953842Y-122868841D01*
X167897358Y-122937667D01*
X167855386Y-123016191D01*
X167829540Y-123101393D01*
X167820813Y-123190000D01*
X167823001Y-123212215D01*
X167823000Y-126153470D01*
X167755294Y-126085764D01*
X167562519Y-125956956D01*
X167348318Y-125868231D01*
X167120924Y-125823000D01*
X166889076Y-125823000D01*
X166661682Y-125868231D01*
X166447481Y-125956956D01*
X166254706Y-126085764D01*
X166187000Y-126153470D01*
X166187000Y-123377223D01*
X166556162Y-123008061D01*
X166661682Y-123051769D01*
X166889076Y-123097000D01*
X167120924Y-123097000D01*
X167348318Y-123051769D01*
X167562519Y-122963044D01*
X167755294Y-122834236D01*
X167919236Y-122670294D01*
X168048044Y-122477519D01*
X168136769Y-122263318D01*
X168182000Y-122035924D01*
X168182000Y-121804076D01*
X168136769Y-121576682D01*
X168048044Y-121362481D01*
X167919236Y-121169706D01*
X167755294Y-121005764D01*
X167562519Y-120876956D01*
X167348318Y-120788231D01*
X167120924Y-120743000D01*
X166889076Y-120743000D01*
X166661682Y-120788231D01*
X166447481Y-120876956D01*
X166254706Y-121005764D01*
X166090764Y-121169706D01*
X165961956Y-121362481D01*
X165873231Y-121576682D01*
X165828000Y-121804076D01*
X165828000Y-122035924D01*
X165873231Y-122263318D01*
X165916939Y-122368838D01*
X165431096Y-122854681D01*
X165413842Y-122868841D01*
X165357358Y-122937667D01*
X165315386Y-123016191D01*
X165289540Y-123101393D01*
X165280813Y-123190000D01*
X165283001Y-123212215D01*
X165283000Y-126153470D01*
X165215294Y-126085764D01*
X165022519Y-125956956D01*
X164808318Y-125868231D01*
X164580924Y-125823000D01*
X164349076Y-125823000D01*
X164121682Y-125868231D01*
X163907481Y-125956956D01*
X163714706Y-126085764D01*
X163647000Y-126153470D01*
X163647000Y-123377223D01*
X164016162Y-123008061D01*
X164121682Y-123051769D01*
X164349076Y-123097000D01*
X164580924Y-123097000D01*
X164808318Y-123051769D01*
X165022519Y-122963044D01*
X165215294Y-122834236D01*
X165379236Y-122670294D01*
X165508044Y-122477519D01*
X165596769Y-122263318D01*
X165642000Y-122035924D01*
X165642000Y-121804076D01*
X165596769Y-121576682D01*
X165508044Y-121362481D01*
X165379236Y-121169706D01*
X165215294Y-121005764D01*
X165022519Y-120876956D01*
X164917000Y-120833249D01*
X164917000Y-102172339D01*
X164928436Y-102164698D01*
X165029698Y-102063436D01*
X165109259Y-101944364D01*
X165164062Y-101812058D01*
X165192000Y-101671603D01*
X165192000Y-101528397D01*
X165164062Y-101387942D01*
X165109259Y-101255636D01*
X165029698Y-101136564D01*
X164928436Y-101035302D01*
X164809364Y-100955741D01*
X164677058Y-100900938D01*
X164536603Y-100873000D01*
X164393397Y-100873000D01*
X164252942Y-100900938D01*
X164120636Y-100955741D01*
X164001564Y-101035302D01*
X163900302Y-101136564D01*
X163820741Y-101255636D01*
X163765938Y-101387942D01*
X163738000Y-101528397D01*
X163738000Y-101671603D01*
X163765938Y-101812058D01*
X163820741Y-101944364D01*
X163900302Y-102063436D01*
X164001564Y-102164698D01*
X164013001Y-102172340D01*
X164013000Y-120833249D01*
X163907481Y-120876956D01*
X163714706Y-121005764D01*
X163647000Y-121073470D01*
X163647000Y-114872339D01*
X163658436Y-114864698D01*
X163759698Y-114763436D01*
X163839259Y-114644364D01*
X163894062Y-114512058D01*
X163922000Y-114371603D01*
X163922000Y-114228397D01*
X163894062Y-114087942D01*
X163839259Y-113955636D01*
X163759698Y-113836564D01*
X163658436Y-113735302D01*
X163539364Y-113655741D01*
X163407058Y-113600938D01*
X163266603Y-113573000D01*
X163123397Y-113573000D01*
X162982942Y-113600938D01*
X162850636Y-113655741D01*
X162731564Y-113735302D01*
X162630302Y-113836564D01*
X162550741Y-113955636D01*
X162495938Y-114087942D01*
X162468000Y-114228397D01*
X162468000Y-114371603D01*
X162495938Y-114512058D01*
X162550741Y-114644364D01*
X162630302Y-114763436D01*
X162731564Y-114864698D01*
X162743001Y-114872340D01*
X162743000Y-121073470D01*
X162675294Y-121005764D01*
X162482519Y-120876956D01*
X162377000Y-120833249D01*
X162377000Y-107252339D01*
X162388436Y-107244698D01*
X162489698Y-107143436D01*
X162569259Y-107024364D01*
X162624062Y-106892058D01*
X162652000Y-106751603D01*
X162652000Y-106608397D01*
X162624062Y-106467942D01*
X162569259Y-106335636D01*
X162489698Y-106216564D01*
X162388436Y-106115302D01*
X162269364Y-106035741D01*
X162137058Y-105980938D01*
X161996603Y-105953000D01*
X161853397Y-105953000D01*
X161712942Y-105980938D01*
X161580636Y-106035741D01*
X161461564Y-106115302D01*
X161360302Y-106216564D01*
X161280741Y-106335636D01*
X161225938Y-106467942D01*
X161198000Y-106608397D01*
X161198000Y-106751603D01*
X161225938Y-106892058D01*
X161280741Y-107024364D01*
X161360302Y-107143436D01*
X161461564Y-107244698D01*
X161473001Y-107252340D01*
X161473000Y-120833249D01*
X161367481Y-120876956D01*
X161174706Y-121005764D01*
X161012001Y-121168469D01*
X161012001Y-87557205D01*
X161014188Y-87535000D01*
X161005461Y-87446393D01*
X160979615Y-87361191D01*
X160937644Y-87282668D01*
X160881160Y-87213842D01*
X160863912Y-87199687D01*
X159505878Y-85841653D01*
X196342952Y-85841653D01*
X196498962Y-86157214D01*
X196873745Y-86348020D01*
X197278551Y-86462044D01*
X197697824Y-86494902D01*
X198115451Y-86445334D01*
X198515383Y-86315243D01*
X198811038Y-86157214D01*
X198967048Y-85841653D01*
X197655000Y-84529605D01*
X196342952Y-85841653D01*
X159505878Y-85841653D01*
X158057049Y-84392824D01*
X195510098Y-84392824D01*
X195559666Y-84810451D01*
X195689757Y-85210383D01*
X195847786Y-85506038D01*
X196163347Y-85662048D01*
X197475395Y-84350000D01*
X197834605Y-84350000D01*
X199146653Y-85662048D01*
X199462214Y-85506038D01*
X199653020Y-85131255D01*
X199767044Y-84726449D01*
X199799902Y-84307176D01*
X199750334Y-83889549D01*
X199620243Y-83489617D01*
X199462214Y-83193962D01*
X199146653Y-83037952D01*
X197834605Y-84350000D01*
X197475395Y-84350000D01*
X196163347Y-83037952D01*
X195847786Y-83193962D01*
X195656980Y-83568745D01*
X195542956Y-83973551D01*
X195510098Y-84392824D01*
X158057049Y-84392824D01*
X156522572Y-82858347D01*
X196342952Y-82858347D01*
X197655000Y-84170395D01*
X198967048Y-82858347D01*
X198811038Y-82542786D01*
X198436255Y-82351980D01*
X198031449Y-82237956D01*
X197612176Y-82205098D01*
X197194549Y-82254666D01*
X196794617Y-82384757D01*
X196498962Y-82542786D01*
X196342952Y-82858347D01*
X156522572Y-82858347D01*
X154144224Y-80480000D01*
X193816418Y-80480000D01*
X193816418Y-82080000D01*
X193822732Y-82144103D01*
X193841430Y-82205743D01*
X193871794Y-82262550D01*
X193912657Y-82312343D01*
X193962450Y-82353206D01*
X194019257Y-82383570D01*
X194080897Y-82402268D01*
X194145000Y-82408582D01*
X195745000Y-82408582D01*
X195809103Y-82402268D01*
X195870743Y-82383570D01*
X195927550Y-82353206D01*
X195977343Y-82312343D01*
X196018206Y-82262550D01*
X196048570Y-82205743D01*
X196067268Y-82144103D01*
X196073582Y-82080000D01*
X196073582Y-80480000D01*
X196067268Y-80415897D01*
X196048570Y-80354257D01*
X196018206Y-80297450D01*
X195977343Y-80247657D01*
X195927550Y-80206794D01*
X195870743Y-80176430D01*
X195809103Y-80157732D01*
X195745000Y-80151418D01*
X194145000Y-80151418D01*
X194080897Y-80157732D01*
X194019257Y-80176430D01*
X193962450Y-80206794D01*
X193912657Y-80247657D01*
X193871794Y-80297450D01*
X193841430Y-80354257D01*
X193822732Y-80415897D01*
X193816418Y-80480000D01*
X154144224Y-80480000D01*
X150333224Y-76669000D01*
X193818000Y-76669000D01*
X193818000Y-76891000D01*
X193861310Y-77108734D01*
X193946266Y-77313835D01*
X194069602Y-77498421D01*
X194226579Y-77655398D01*
X194411165Y-77778734D01*
X194414221Y-77780000D01*
X194411165Y-77781266D01*
X194226579Y-77904602D01*
X194069602Y-78061579D01*
X193946266Y-78246165D01*
X193861310Y-78451266D01*
X193818000Y-78669000D01*
X193818000Y-78891000D01*
X193861310Y-79108734D01*
X193946266Y-79313835D01*
X194069602Y-79498421D01*
X194226579Y-79655398D01*
X194411165Y-79778734D01*
X194616266Y-79863690D01*
X194834000Y-79907000D01*
X195056000Y-79907000D01*
X195273734Y-79863690D01*
X195478835Y-79778734D01*
X195663421Y-79655398D01*
X195820398Y-79498421D01*
X195943734Y-79313835D01*
X196028690Y-79108734D01*
X196072000Y-78891000D01*
X196072000Y-78669000D01*
X196028690Y-78451266D01*
X195943734Y-78246165D01*
X195820398Y-78061579D01*
X195663421Y-77904602D01*
X195478835Y-77781266D01*
X195475779Y-77780000D01*
X195478835Y-77778734D01*
X195663421Y-77655398D01*
X195820398Y-77498421D01*
X195943734Y-77313835D01*
X196028690Y-77108734D01*
X196072000Y-76891000D01*
X196072000Y-76669000D01*
X196028690Y-76451266D01*
X195943734Y-76246165D01*
X195820398Y-76061579D01*
X195663421Y-75904602D01*
X195478835Y-75781266D01*
X195273734Y-75696310D01*
X195232381Y-75688084D01*
X195295130Y-75678787D01*
X195561292Y-75583603D01*
X195686514Y-75516671D01*
X195758097Y-75272702D01*
X194945000Y-74459605D01*
X194131903Y-75272702D01*
X194203486Y-75516671D01*
X194458996Y-75637571D01*
X194659233Y-75687763D01*
X194616266Y-75696310D01*
X194411165Y-75781266D01*
X194226579Y-75904602D01*
X194069602Y-76061579D01*
X193946266Y-76246165D01*
X193861310Y-76451266D01*
X193818000Y-76669000D01*
X150333224Y-76669000D01*
X150313061Y-76648838D01*
X150356769Y-76543318D01*
X150402000Y-76315924D01*
X150402000Y-76084076D01*
X150356769Y-75856682D01*
X150268044Y-75642481D01*
X150139236Y-75449706D01*
X149975294Y-75285764D01*
X149782519Y-75156956D01*
X149568318Y-75068231D01*
X149340924Y-75023000D01*
X149109076Y-75023000D01*
X148881682Y-75068231D01*
X148667481Y-75156956D01*
X148474706Y-75285764D01*
X148310764Y-75449706D01*
X148181956Y-75642481D01*
X148093231Y-75856682D01*
X148048000Y-76084076D01*
X148048000Y-76315924D01*
X148093231Y-76543318D01*
X148181956Y-76757519D01*
X148310764Y-76950294D01*
X148474706Y-77114236D01*
X148667481Y-77243044D01*
X148881682Y-77331769D01*
X149109076Y-77377000D01*
X149340924Y-77377000D01*
X149568318Y-77331769D01*
X149673838Y-77288061D01*
X160108002Y-87722227D01*
X160108001Y-120987527D01*
X159942519Y-120876956D01*
X159728318Y-120788231D01*
X159500924Y-120743000D01*
X159269076Y-120743000D01*
X159041682Y-120788231D01*
X158827481Y-120876956D01*
X158634706Y-121005764D01*
X158470764Y-121169706D01*
X158341956Y-121362481D01*
X158253231Y-121576682D01*
X158208000Y-121804076D01*
X158208000Y-122035924D01*
X158253231Y-122263318D01*
X158296939Y-122368838D01*
X157811096Y-122854681D01*
X157793842Y-122868841D01*
X157737358Y-122937667D01*
X157695386Y-123016191D01*
X157669540Y-123101393D01*
X157660813Y-123190000D01*
X157663001Y-123212215D01*
X157663000Y-126153470D01*
X157595294Y-126085764D01*
X157402519Y-125956956D01*
X157188318Y-125868231D01*
X156960924Y-125823000D01*
X156729076Y-125823000D01*
X156501682Y-125868231D01*
X156287481Y-125956956D01*
X156094706Y-126085764D01*
X156027000Y-126153470D01*
X156027000Y-123377223D01*
X156396162Y-123008061D01*
X156501682Y-123051769D01*
X156729076Y-123097000D01*
X156960924Y-123097000D01*
X157188318Y-123051769D01*
X157402519Y-122963044D01*
X157595294Y-122834236D01*
X157759236Y-122670294D01*
X157888044Y-122477519D01*
X157976769Y-122263318D01*
X158022000Y-122035924D01*
X158022000Y-121804076D01*
X157976769Y-121576682D01*
X157888044Y-121362481D01*
X157759236Y-121169706D01*
X157595294Y-121005764D01*
X157402519Y-120876956D01*
X157188318Y-120788231D01*
X156960924Y-120743000D01*
X156729076Y-120743000D01*
X156501682Y-120788231D01*
X156287481Y-120876956D01*
X156094706Y-121005764D01*
X155930764Y-121169706D01*
X155801956Y-121362481D01*
X155713231Y-121576682D01*
X155668000Y-121804076D01*
X155668000Y-122035924D01*
X155713231Y-122263318D01*
X155756939Y-122368838D01*
X155271096Y-122854681D01*
X155253842Y-122868841D01*
X155197358Y-122937667D01*
X155155386Y-123016191D01*
X155129540Y-123101393D01*
X155120813Y-123190000D01*
X155123001Y-123212215D01*
X155123000Y-126153470D01*
X155055294Y-126085764D01*
X154862519Y-125956956D01*
X154648318Y-125868231D01*
X154420924Y-125823000D01*
X154189076Y-125823000D01*
X153961682Y-125868231D01*
X153747481Y-125956956D01*
X153554706Y-126085764D01*
X153487000Y-126153470D01*
X153487000Y-123377223D01*
X153856162Y-123008061D01*
X153961682Y-123051769D01*
X154189076Y-123097000D01*
X154420924Y-123097000D01*
X154648318Y-123051769D01*
X154862519Y-122963044D01*
X155055294Y-122834236D01*
X155219236Y-122670294D01*
X155348044Y-122477519D01*
X155436769Y-122263318D01*
X155482000Y-122035924D01*
X155482000Y-121804076D01*
X155436769Y-121576682D01*
X155348044Y-121362481D01*
X155219236Y-121169706D01*
X155055294Y-121005764D01*
X154862519Y-120876956D01*
X154757000Y-120833249D01*
X154757000Y-114322205D01*
X154759187Y-114300000D01*
X154750460Y-114211392D01*
X154724614Y-114126190D01*
X154682642Y-114047666D01*
X154626159Y-113978841D01*
X154608905Y-113964681D01*
X150313061Y-109668838D01*
X150356769Y-109563318D01*
X150402000Y-109335924D01*
X150402000Y-109104076D01*
X150356769Y-108876682D01*
X150268044Y-108662481D01*
X150139236Y-108469706D01*
X149975294Y-108305764D01*
X149782519Y-108176956D01*
X149568318Y-108088231D01*
X149340924Y-108043000D01*
X149109076Y-108043000D01*
X148881682Y-108088231D01*
X148667481Y-108176956D01*
X148474706Y-108305764D01*
X148310764Y-108469706D01*
X148181956Y-108662481D01*
X148093231Y-108876682D01*
X148048000Y-109104076D01*
X148048000Y-109335924D01*
X148093231Y-109563318D01*
X148181956Y-109777519D01*
X148310764Y-109970294D01*
X148474706Y-110134236D01*
X148667481Y-110263044D01*
X148881682Y-110351769D01*
X149109076Y-110397000D01*
X149340924Y-110397000D01*
X149568318Y-110351769D01*
X149673838Y-110308061D01*
X153853001Y-114487225D01*
X153853000Y-120833249D01*
X153747481Y-120876956D01*
X153554706Y-121005764D01*
X153392001Y-121168469D01*
X153392001Y-115497206D01*
X153394188Y-115475001D01*
X153385461Y-115386393D01*
X153359615Y-115301191D01*
X153317643Y-115222667D01*
X153310724Y-115214236D01*
X153261160Y-115153842D01*
X153243906Y-115139682D01*
X150313061Y-112208838D01*
X150356769Y-112103318D01*
X150402000Y-111875924D01*
X150402000Y-111644076D01*
X150356769Y-111416682D01*
X150268044Y-111202481D01*
X150139236Y-111009706D01*
X149975294Y-110845764D01*
X149782519Y-110716956D01*
X149568318Y-110628231D01*
X149340924Y-110583000D01*
X149109076Y-110583000D01*
X148881682Y-110628231D01*
X148667481Y-110716956D01*
X148474706Y-110845764D01*
X148310764Y-111009706D01*
X148181956Y-111202481D01*
X148093231Y-111416682D01*
X148048000Y-111644076D01*
X148048000Y-111875924D01*
X148093231Y-112103318D01*
X148181956Y-112317519D01*
X148310764Y-112510294D01*
X148474706Y-112674236D01*
X148667481Y-112803044D01*
X148881682Y-112891769D01*
X149109076Y-112937000D01*
X149340924Y-112937000D01*
X149568318Y-112891769D01*
X149673838Y-112848061D01*
X152488002Y-115662226D01*
X152488001Y-120987528D01*
X152322519Y-120876956D01*
X152108318Y-120788231D01*
X151880924Y-120743000D01*
X151649076Y-120743000D01*
X151421682Y-120788231D01*
X151207481Y-120876956D01*
X151014706Y-121005764D01*
X150850764Y-121169706D01*
X150721956Y-121362481D01*
X150633231Y-121576682D01*
X150588000Y-121804076D01*
X150588000Y-122035924D01*
X150633231Y-122263318D01*
X150676939Y-122368838D01*
X150191096Y-122854681D01*
X150173842Y-122868841D01*
X150117358Y-122937667D01*
X150075386Y-123016191D01*
X150049540Y-123101393D01*
X150040813Y-123190000D01*
X150043001Y-123212215D01*
X150043001Y-123281418D01*
X148375000Y-123281418D01*
X148310897Y-123287732D01*
X148249257Y-123306430D01*
X148192450Y-123336794D01*
X148142657Y-123377657D01*
X148101794Y-123427450D01*
X148071430Y-123484257D01*
X148052732Y-123545897D01*
X148046418Y-123610000D01*
X148046418Y-125310000D01*
X148052732Y-125374103D01*
X148071430Y-125435743D01*
X148101794Y-125492550D01*
X148142657Y-125542343D01*
X148192450Y-125583206D01*
X148249257Y-125613570D01*
X148310897Y-125632268D01*
X148375000Y-125638582D01*
X150043000Y-125638582D01*
X150043000Y-126153470D01*
X149975294Y-126085764D01*
X149782519Y-125956956D01*
X149568318Y-125868231D01*
X149340924Y-125823000D01*
X149109076Y-125823000D01*
X148881682Y-125868231D01*
X148667481Y-125956956D01*
X148474706Y-126085764D01*
X148310764Y-126249706D01*
X148181956Y-126442481D01*
X148093231Y-126656682D01*
X148048000Y-126884076D01*
X148048000Y-127115924D01*
X148093231Y-127343318D01*
X148181956Y-127557519D01*
X148310764Y-127750294D01*
X148474706Y-127914236D01*
X148667481Y-128043044D01*
X148823805Y-128107796D01*
X144391070Y-129092848D01*
X144373892Y-129094540D01*
X144347693Y-129102487D01*
X144342772Y-129103581D01*
X144326504Y-129108915D01*
X144288690Y-129120386D01*
X144284198Y-129122787D01*
X144279370Y-129124370D01*
X144245007Y-129143735D01*
X144210166Y-129162358D01*
X144206232Y-129165586D01*
X144201802Y-129168083D01*
X144171854Y-129193801D01*
X144158589Y-129204687D01*
X144155017Y-129208259D01*
X144134254Y-129226089D01*
X144123608Y-129239668D01*
X143841095Y-129522182D01*
X143823842Y-129536341D01*
X143767358Y-129605167D01*
X143725386Y-129683691D01*
X143699540Y-129768893D01*
X143690813Y-129857500D01*
X143693001Y-129879715D01*
X143693001Y-130048000D01*
X139517000Y-130048000D01*
X139517000Y-130044723D01*
X139609041Y-129952683D01*
X145168941Y-128717151D01*
X145186107Y-128715460D01*
X145212288Y-128707518D01*
X145217229Y-128706420D01*
X145233562Y-128701065D01*
X145271309Y-128689614D01*
X145275793Y-128687217D01*
X145280631Y-128685631D01*
X145315057Y-128666230D01*
X145349833Y-128647642D01*
X145353760Y-128644419D01*
X145358198Y-128641918D01*
X145388194Y-128616159D01*
X145401410Y-128605313D01*
X145404969Y-128601754D01*
X145425746Y-128583912D01*
X145436399Y-128570325D01*
X145718906Y-128287818D01*
X145736159Y-128273659D01*
X145792643Y-128204833D01*
X145834614Y-128126310D01*
X145835556Y-128123206D01*
X145860460Y-128041108D01*
X145869187Y-127952500D01*
X145867000Y-127930295D01*
X145867000Y-127846530D01*
X145934706Y-127914236D01*
X146127481Y-128043044D01*
X146341682Y-128131769D01*
X146569076Y-128177000D01*
X146800924Y-128177000D01*
X147028318Y-128131769D01*
X147242519Y-128043044D01*
X147435294Y-127914236D01*
X147599236Y-127750294D01*
X147728044Y-127557519D01*
X147816769Y-127343318D01*
X147862000Y-127115924D01*
X147862000Y-126884076D01*
X147816769Y-126656682D01*
X147728044Y-126442481D01*
X147599236Y-126249706D01*
X147435294Y-126085764D01*
X147242519Y-125956956D01*
X147028318Y-125868231D01*
X146800924Y-125823000D01*
X146569076Y-125823000D01*
X146341682Y-125868231D01*
X146127481Y-125956956D01*
X145934706Y-126085764D01*
X145867000Y-126153470D01*
X145867000Y-123377223D01*
X146236162Y-123008061D01*
X146341682Y-123051769D01*
X146569076Y-123097000D01*
X146800924Y-123097000D01*
X147028318Y-123051769D01*
X147242519Y-122963044D01*
X147435294Y-122834236D01*
X147599236Y-122670294D01*
X147728044Y-122477519D01*
X147816769Y-122263318D01*
X147862000Y-122035924D01*
X147862000Y-121804076D01*
X148048000Y-121804076D01*
X148048000Y-122035924D01*
X148093231Y-122263318D01*
X148181956Y-122477519D01*
X148310764Y-122670294D01*
X148474706Y-122834236D01*
X148667481Y-122963044D01*
X148881682Y-123051769D01*
X149109076Y-123097000D01*
X149340924Y-123097000D01*
X149568318Y-123051769D01*
X149782519Y-122963044D01*
X149975294Y-122834236D01*
X150139236Y-122670294D01*
X150268044Y-122477519D01*
X150356769Y-122263318D01*
X150402000Y-122035924D01*
X150402000Y-121804076D01*
X150356769Y-121576682D01*
X150268044Y-121362481D01*
X150139236Y-121169706D01*
X149975294Y-121005764D01*
X149782519Y-120876956D01*
X149568318Y-120788231D01*
X149340924Y-120743000D01*
X149109076Y-120743000D01*
X148881682Y-120788231D01*
X148667481Y-120876956D01*
X148474706Y-121005764D01*
X148310764Y-121169706D01*
X148181956Y-121362481D01*
X148093231Y-121576682D01*
X148048000Y-121804076D01*
X147862000Y-121804076D01*
X147816769Y-121576682D01*
X147728044Y-121362481D01*
X147599236Y-121169706D01*
X147435294Y-121005764D01*
X147242519Y-120876956D01*
X147028318Y-120788231D01*
X146800924Y-120743000D01*
X146569076Y-120743000D01*
X146341682Y-120788231D01*
X146127481Y-120876956D01*
X145934706Y-121005764D01*
X145770764Y-121169706D01*
X145641956Y-121362481D01*
X145553231Y-121576682D01*
X145508000Y-121804076D01*
X145508000Y-122035924D01*
X145553231Y-122263318D01*
X145596939Y-122368838D01*
X145111096Y-122854681D01*
X145093842Y-122868841D01*
X145037358Y-122937667D01*
X144995386Y-123016191D01*
X144969540Y-123101393D01*
X144960813Y-123190000D01*
X144963001Y-123212215D01*
X144963000Y-126153470D01*
X144895294Y-126085764D01*
X144702519Y-125956956D01*
X144488318Y-125868231D01*
X144260924Y-125823000D01*
X144029076Y-125823000D01*
X143801682Y-125868231D01*
X143587481Y-125956956D01*
X143394706Y-126085764D01*
X143327000Y-126153470D01*
X143327000Y-123377223D01*
X143696162Y-123008061D01*
X143801682Y-123051769D01*
X144029076Y-123097000D01*
X144260924Y-123097000D01*
X144488318Y-123051769D01*
X144702519Y-122963044D01*
X144895294Y-122834236D01*
X145059236Y-122670294D01*
X145188044Y-122477519D01*
X145276769Y-122263318D01*
X145322000Y-122035924D01*
X145322000Y-121804076D01*
X145276769Y-121576682D01*
X145188044Y-121362481D01*
X145059236Y-121169706D01*
X144895294Y-121005764D01*
X144702519Y-120876956D01*
X144488318Y-120788231D01*
X144260924Y-120743000D01*
X144029076Y-120743000D01*
X143801682Y-120788231D01*
X143587481Y-120876956D01*
X143394706Y-121005764D01*
X143230764Y-121169706D01*
X143101956Y-121362481D01*
X143013231Y-121576682D01*
X142968000Y-121804076D01*
X142968000Y-122035924D01*
X143013231Y-122263318D01*
X143056939Y-122368838D01*
X142571096Y-122854681D01*
X142553842Y-122868841D01*
X142497358Y-122937667D01*
X142455386Y-123016191D01*
X142429540Y-123101393D01*
X142420813Y-123190000D01*
X142423001Y-123212215D01*
X142423000Y-126153470D01*
X142355294Y-126085764D01*
X142162519Y-125956956D01*
X141948318Y-125868231D01*
X141720924Y-125823000D01*
X141489076Y-125823000D01*
X141261682Y-125868231D01*
X141047481Y-125956956D01*
X140854706Y-126085764D01*
X140787000Y-126153470D01*
X140787000Y-123377223D01*
X141156162Y-123008061D01*
X141261682Y-123051769D01*
X141489076Y-123097000D01*
X141720924Y-123097000D01*
X141948318Y-123051769D01*
X142162519Y-122963044D01*
X142355294Y-122834236D01*
X142519236Y-122670294D01*
X142648044Y-122477519D01*
X142736769Y-122263318D01*
X142782000Y-122035924D01*
X142782000Y-121804076D01*
X142736769Y-121576682D01*
X142648044Y-121362481D01*
X142519236Y-121169706D01*
X142355294Y-121005764D01*
X142162519Y-120876956D01*
X141948318Y-120788231D01*
X141720924Y-120743000D01*
X141489076Y-120743000D01*
X141261682Y-120788231D01*
X141047481Y-120876956D01*
X140854706Y-121005764D01*
X140690764Y-121169706D01*
X140561956Y-121362481D01*
X140473231Y-121576682D01*
X140428000Y-121804076D01*
X140428000Y-122035924D01*
X140473231Y-122263318D01*
X140516939Y-122368838D01*
X140031096Y-122854681D01*
X140013842Y-122868841D01*
X139957358Y-122937667D01*
X139915386Y-123016191D01*
X139889540Y-123101393D01*
X139880813Y-123190000D01*
X139883001Y-123212215D01*
X139883000Y-126153470D01*
X139815294Y-126085764D01*
X139622519Y-125956956D01*
X139408318Y-125868231D01*
X139180924Y-125823000D01*
X138949076Y-125823000D01*
X138721682Y-125868231D01*
X138507481Y-125956956D01*
X138314706Y-126085764D01*
X138247000Y-126153470D01*
X138247000Y-123377223D01*
X138616162Y-123008061D01*
X138721682Y-123051769D01*
X138949076Y-123097000D01*
X139180924Y-123097000D01*
X139408318Y-123051769D01*
X139622519Y-122963044D01*
X139815294Y-122834236D01*
X139979236Y-122670294D01*
X140108044Y-122477519D01*
X140196769Y-122263318D01*
X140242000Y-122035924D01*
X140242000Y-121804076D01*
X140196769Y-121576682D01*
X140108044Y-121362481D01*
X139979236Y-121169706D01*
X139815294Y-121005764D01*
X139622519Y-120876956D01*
X139408318Y-120788231D01*
X139180924Y-120743000D01*
X138949076Y-120743000D01*
X138721682Y-120788231D01*
X138507481Y-120876956D01*
X138314706Y-121005764D01*
X138150764Y-121169706D01*
X138021956Y-121362481D01*
X137933231Y-121576682D01*
X137888000Y-121804076D01*
X137888000Y-122035924D01*
X137933231Y-122263318D01*
X137976939Y-122368838D01*
X137491096Y-122854681D01*
X137473842Y-122868841D01*
X137417358Y-122937667D01*
X137375386Y-123016191D01*
X137349540Y-123101393D01*
X137340813Y-123190000D01*
X137343001Y-123212215D01*
X137343000Y-126153470D01*
X137275294Y-126085764D01*
X137082519Y-125956956D01*
X136868318Y-125868231D01*
X136640924Y-125823000D01*
X136409076Y-125823000D01*
X136181682Y-125868231D01*
X135967481Y-125956956D01*
X135774706Y-126085764D01*
X135707000Y-126153470D01*
X135707000Y-123377223D01*
X136076162Y-123008061D01*
X136181682Y-123051769D01*
X136409076Y-123097000D01*
X136640924Y-123097000D01*
X136868318Y-123051769D01*
X137082519Y-122963044D01*
X137275294Y-122834236D01*
X137439236Y-122670294D01*
X137568044Y-122477519D01*
X137656769Y-122263318D01*
X137702000Y-122035924D01*
X137702000Y-121804076D01*
X137656769Y-121576682D01*
X137568044Y-121362481D01*
X137439236Y-121169706D01*
X137275294Y-121005764D01*
X137082519Y-120876956D01*
X136868318Y-120788231D01*
X136640924Y-120743000D01*
X136409076Y-120743000D01*
X136181682Y-120788231D01*
X135967481Y-120876956D01*
X135774706Y-121005764D01*
X135610764Y-121169706D01*
X135481956Y-121362481D01*
X135393231Y-121576682D01*
X135348000Y-121804076D01*
X135348000Y-122035924D01*
X135393231Y-122263318D01*
X135436939Y-122368838D01*
X134951096Y-122854681D01*
X134933842Y-122868841D01*
X134877358Y-122937667D01*
X134835386Y-123016191D01*
X134809540Y-123101393D01*
X134800813Y-123190000D01*
X134803001Y-123212215D01*
X134803000Y-126153470D01*
X134735294Y-126085764D01*
X134542519Y-125956956D01*
X134328318Y-125868231D01*
X134100924Y-125823000D01*
X133869076Y-125823000D01*
X133641682Y-125868231D01*
X133427481Y-125956956D01*
X133234706Y-126085764D01*
X133167000Y-126153470D01*
X133167000Y-123377223D01*
X133536162Y-123008061D01*
X133641682Y-123051769D01*
X133869076Y-123097000D01*
X134100924Y-123097000D01*
X134328318Y-123051769D01*
X134542519Y-122963044D01*
X134735294Y-122834236D01*
X134899236Y-122670294D01*
X135028044Y-122477519D01*
X135116769Y-122263318D01*
X135162000Y-122035924D01*
X135162000Y-121804076D01*
X135116769Y-121576682D01*
X135028044Y-121362481D01*
X134899236Y-121169706D01*
X134735294Y-121005764D01*
X134542519Y-120876956D01*
X134437000Y-120833249D01*
X134437000Y-119264076D01*
X148048000Y-119264076D01*
X148048000Y-119495924D01*
X148093231Y-119723318D01*
X148181956Y-119937519D01*
X148310764Y-120130294D01*
X148474706Y-120294236D01*
X148667481Y-120423044D01*
X148881682Y-120511769D01*
X149109076Y-120557000D01*
X149340924Y-120557000D01*
X149568318Y-120511769D01*
X149782519Y-120423044D01*
X149975294Y-120294236D01*
X150139236Y-120130294D01*
X150268044Y-119937519D01*
X150356769Y-119723318D01*
X150402000Y-119495924D01*
X150402000Y-119264076D01*
X150356769Y-119036682D01*
X150268044Y-118822481D01*
X150139236Y-118629706D01*
X149975294Y-118465764D01*
X149782519Y-118336956D01*
X149568318Y-118248231D01*
X149340924Y-118203000D01*
X149109076Y-118203000D01*
X148881682Y-118248231D01*
X148667481Y-118336956D01*
X148474706Y-118465764D01*
X148310764Y-118629706D01*
X148181956Y-118822481D01*
X148093231Y-119036682D01*
X148048000Y-119264076D01*
X134437000Y-119264076D01*
X134437000Y-116724076D01*
X148048000Y-116724076D01*
X148048000Y-116955924D01*
X148093231Y-117183318D01*
X148181956Y-117397519D01*
X148310764Y-117590294D01*
X148474706Y-117754236D01*
X148667481Y-117883044D01*
X148881682Y-117971769D01*
X149109076Y-118017000D01*
X149340924Y-118017000D01*
X149568318Y-117971769D01*
X149782519Y-117883044D01*
X149975294Y-117754236D01*
X150139236Y-117590294D01*
X150268044Y-117397519D01*
X150356769Y-117183318D01*
X150402000Y-116955924D01*
X150402000Y-116724076D01*
X150356769Y-116496682D01*
X150268044Y-116282481D01*
X150139236Y-116089706D01*
X149975294Y-115925764D01*
X149782519Y-115796956D01*
X149568318Y-115708231D01*
X149340924Y-115663000D01*
X149109076Y-115663000D01*
X148881682Y-115708231D01*
X148667481Y-115796956D01*
X148474706Y-115925764D01*
X148310764Y-116089706D01*
X148181956Y-116282481D01*
X148093231Y-116496682D01*
X148048000Y-116724076D01*
X134437000Y-116724076D01*
X134437000Y-114184076D01*
X148048000Y-114184076D01*
X148048000Y-114415924D01*
X148093231Y-114643318D01*
X148181956Y-114857519D01*
X148310764Y-115050294D01*
X148474706Y-115214236D01*
X148667481Y-115343044D01*
X148881682Y-115431769D01*
X149109076Y-115477000D01*
X149340924Y-115477000D01*
X149568318Y-115431769D01*
X149782519Y-115343044D01*
X149975294Y-115214236D01*
X150139236Y-115050294D01*
X150268044Y-114857519D01*
X150356769Y-114643318D01*
X150402000Y-114415924D01*
X150402000Y-114184076D01*
X150356769Y-113956682D01*
X150268044Y-113742481D01*
X150139236Y-113549706D01*
X149975294Y-113385764D01*
X149782519Y-113256956D01*
X149568318Y-113168231D01*
X149340924Y-113123000D01*
X149109076Y-113123000D01*
X148881682Y-113168231D01*
X148667481Y-113256956D01*
X148474706Y-113385764D01*
X148310764Y-113549706D01*
X148181956Y-113742481D01*
X148093231Y-113956682D01*
X148048000Y-114184076D01*
X134437000Y-114184076D01*
X134437000Y-106564076D01*
X148048000Y-106564076D01*
X148048000Y-106795924D01*
X148093231Y-107023318D01*
X148181956Y-107237519D01*
X148310764Y-107430294D01*
X148474706Y-107594236D01*
X148667481Y-107723044D01*
X148881682Y-107811769D01*
X149109076Y-107857000D01*
X149340924Y-107857000D01*
X149568318Y-107811769D01*
X149782519Y-107723044D01*
X149975294Y-107594236D01*
X150139236Y-107430294D01*
X150268044Y-107237519D01*
X150356769Y-107023318D01*
X150402000Y-106795924D01*
X150402000Y-106564076D01*
X150356769Y-106336682D01*
X150268044Y-106122481D01*
X150139236Y-105929706D01*
X149975294Y-105765764D01*
X149782519Y-105636956D01*
X149568318Y-105548231D01*
X149340924Y-105503000D01*
X149109076Y-105503000D01*
X148881682Y-105548231D01*
X148667481Y-105636956D01*
X148474706Y-105765764D01*
X148310764Y-105929706D01*
X148181956Y-106122481D01*
X148093231Y-106336682D01*
X148048000Y-106564076D01*
X134437000Y-106564076D01*
X134437000Y-104024076D01*
X148048000Y-104024076D01*
X148048000Y-104255924D01*
X148093231Y-104483318D01*
X148181956Y-104697519D01*
X148310764Y-104890294D01*
X148474706Y-105054236D01*
X148667481Y-105183044D01*
X148881682Y-105271769D01*
X149109076Y-105317000D01*
X149340924Y-105317000D01*
X149568318Y-105271769D01*
X149782519Y-105183044D01*
X149975294Y-105054236D01*
X150139236Y-104890294D01*
X150268044Y-104697519D01*
X150356769Y-104483318D01*
X150402000Y-104255924D01*
X150402000Y-104024076D01*
X150356769Y-103796682D01*
X150268044Y-103582481D01*
X150139236Y-103389706D01*
X149975294Y-103225764D01*
X149782519Y-103096956D01*
X149568318Y-103008231D01*
X149340924Y-102963000D01*
X149109076Y-102963000D01*
X148881682Y-103008231D01*
X148667481Y-103096956D01*
X148474706Y-103225764D01*
X148310764Y-103389706D01*
X148181956Y-103582481D01*
X148093231Y-103796682D01*
X148048000Y-104024076D01*
X134437000Y-104024076D01*
X134437000Y-101484076D01*
X148048000Y-101484076D01*
X148048000Y-101715924D01*
X148093231Y-101943318D01*
X148181956Y-102157519D01*
X148310764Y-102350294D01*
X148474706Y-102514236D01*
X148667481Y-102643044D01*
X148881682Y-102731769D01*
X149109076Y-102777000D01*
X149340924Y-102777000D01*
X149568318Y-102731769D01*
X149782519Y-102643044D01*
X149975294Y-102514236D01*
X150139236Y-102350294D01*
X150268044Y-102157519D01*
X150356769Y-101943318D01*
X150402000Y-101715924D01*
X150402000Y-101484076D01*
X150356769Y-101256682D01*
X150268044Y-101042481D01*
X150139236Y-100849706D01*
X149975294Y-100685764D01*
X149782519Y-100556956D01*
X149568318Y-100468231D01*
X149340924Y-100423000D01*
X149109076Y-100423000D01*
X148881682Y-100468231D01*
X148667481Y-100556956D01*
X148474706Y-100685764D01*
X148310764Y-100849706D01*
X148181956Y-101042481D01*
X148093231Y-101256682D01*
X148048000Y-101484076D01*
X134437000Y-101484076D01*
X134437000Y-98944076D01*
X148048000Y-98944076D01*
X148048000Y-99175924D01*
X148093231Y-99403318D01*
X148181956Y-99617519D01*
X148310764Y-99810294D01*
X148474706Y-99974236D01*
X148667481Y-100103044D01*
X148881682Y-100191769D01*
X149109076Y-100237000D01*
X149340924Y-100237000D01*
X149568318Y-100191769D01*
X149782519Y-100103044D01*
X149975294Y-99974236D01*
X150139236Y-99810294D01*
X150268044Y-99617519D01*
X150356769Y-99403318D01*
X150402000Y-99175924D01*
X150402000Y-98944076D01*
X150356769Y-98716682D01*
X150268044Y-98502481D01*
X150139236Y-98309706D01*
X149975294Y-98145764D01*
X149782519Y-98016956D01*
X149568318Y-97928231D01*
X149340924Y-97883000D01*
X149109076Y-97883000D01*
X148881682Y-97928231D01*
X148667481Y-98016956D01*
X148474706Y-98145764D01*
X148310764Y-98309706D01*
X148181956Y-98502481D01*
X148093231Y-98716682D01*
X148048000Y-98944076D01*
X134437000Y-98944076D01*
X134437000Y-96404076D01*
X148048000Y-96404076D01*
X148048000Y-96635924D01*
X148093231Y-96863318D01*
X148181956Y-97077519D01*
X148310764Y-97270294D01*
X148474706Y-97434236D01*
X148667481Y-97563044D01*
X148881682Y-97651769D01*
X149109076Y-97697000D01*
X149340924Y-97697000D01*
X149568318Y-97651769D01*
X149782519Y-97563044D01*
X149975294Y-97434236D01*
X150139236Y-97270294D01*
X150268044Y-97077519D01*
X150356769Y-96863318D01*
X150402000Y-96635924D01*
X150402000Y-96404076D01*
X150356769Y-96176682D01*
X150268044Y-95962481D01*
X150139236Y-95769706D01*
X149975294Y-95605764D01*
X149782519Y-95476956D01*
X149568318Y-95388231D01*
X149340924Y-95343000D01*
X149109076Y-95343000D01*
X148881682Y-95388231D01*
X148667481Y-95476956D01*
X148474706Y-95605764D01*
X148310764Y-95769706D01*
X148181956Y-95962481D01*
X148093231Y-96176682D01*
X148048000Y-96404076D01*
X134437000Y-96404076D01*
X134437000Y-91796890D01*
X147783524Y-91796890D01*
X147828175Y-91944099D01*
X147953359Y-92206920D01*
X148127412Y-92440269D01*
X148343645Y-92635178D01*
X148593748Y-92784157D01*
X148832179Y-92868736D01*
X148667481Y-92936956D01*
X148474706Y-93065764D01*
X148310764Y-93229706D01*
X148181956Y-93422481D01*
X148093231Y-93636682D01*
X148048000Y-93864076D01*
X148048000Y-94095924D01*
X148093231Y-94323318D01*
X148181956Y-94537519D01*
X148310764Y-94730294D01*
X148474706Y-94894236D01*
X148667481Y-95023044D01*
X148881682Y-95111769D01*
X149109076Y-95157000D01*
X149340924Y-95157000D01*
X149568318Y-95111769D01*
X149782519Y-95023044D01*
X149975294Y-94894236D01*
X150139236Y-94730294D01*
X150268044Y-94537519D01*
X150356769Y-94323318D01*
X150402000Y-94095924D01*
X150402000Y-93864076D01*
X150356769Y-93636682D01*
X150268044Y-93422481D01*
X150139236Y-93229706D01*
X149975294Y-93065764D01*
X149782519Y-92936956D01*
X149617821Y-92868736D01*
X149856252Y-92784157D01*
X150106355Y-92635178D01*
X150322588Y-92440269D01*
X150496641Y-92206920D01*
X150621825Y-91944099D01*
X150666476Y-91796890D01*
X150545155Y-91567000D01*
X149352000Y-91567000D01*
X149352000Y-91587000D01*
X149098000Y-91587000D01*
X149098000Y-91567000D01*
X147904845Y-91567000D01*
X147783524Y-91796890D01*
X134437000Y-91796890D01*
X134437000Y-91083110D01*
X147783524Y-91083110D01*
X147904845Y-91313000D01*
X149098000Y-91313000D01*
X149098000Y-91293000D01*
X149352000Y-91293000D01*
X149352000Y-91313000D01*
X150545155Y-91313000D01*
X150666476Y-91083110D01*
X150621825Y-90935901D01*
X150496641Y-90673080D01*
X150322588Y-90439731D01*
X150106355Y-90244822D01*
X149856252Y-90095843D01*
X149617821Y-90011264D01*
X149782519Y-89943044D01*
X149975294Y-89814236D01*
X150139236Y-89650294D01*
X150268044Y-89457519D01*
X150356769Y-89243318D01*
X150402000Y-89015924D01*
X150402000Y-88784076D01*
X150356769Y-88556682D01*
X150268044Y-88342481D01*
X150139236Y-88149706D01*
X149975294Y-87985764D01*
X149782519Y-87856956D01*
X149568318Y-87768231D01*
X149340924Y-87723000D01*
X149109076Y-87723000D01*
X148881682Y-87768231D01*
X148667481Y-87856956D01*
X148474706Y-87985764D01*
X148310764Y-88149706D01*
X148181956Y-88342481D01*
X148093231Y-88556682D01*
X148048000Y-88784076D01*
X148048000Y-89015924D01*
X148093231Y-89243318D01*
X148181956Y-89457519D01*
X148310764Y-89650294D01*
X148474706Y-89814236D01*
X148667481Y-89943044D01*
X148832179Y-90011264D01*
X148593748Y-90095843D01*
X148343645Y-90244822D01*
X148127412Y-90439731D01*
X147953359Y-90673080D01*
X147828175Y-90935901D01*
X147783524Y-91083110D01*
X134437000Y-91083110D01*
X134437000Y-86547223D01*
X134740147Y-86244076D01*
X148048000Y-86244076D01*
X148048000Y-86475924D01*
X148093231Y-86703318D01*
X148181956Y-86917519D01*
X148310764Y-87110294D01*
X148474706Y-87274236D01*
X148667481Y-87403044D01*
X148881682Y-87491769D01*
X149109076Y-87537000D01*
X149340924Y-87537000D01*
X149568318Y-87491769D01*
X149782519Y-87403044D01*
X149975294Y-87274236D01*
X150139236Y-87110294D01*
X150268044Y-86917519D01*
X150356769Y-86703318D01*
X150402000Y-86475924D01*
X150402000Y-86244076D01*
X150356769Y-86016682D01*
X150268044Y-85802481D01*
X150139236Y-85609706D01*
X149975294Y-85445764D01*
X149782519Y-85316956D01*
X149568318Y-85228231D01*
X149340924Y-85183000D01*
X149109076Y-85183000D01*
X148881682Y-85228231D01*
X148667481Y-85316956D01*
X148474706Y-85445764D01*
X148310764Y-85609706D01*
X148181956Y-85802481D01*
X148093231Y-86016682D01*
X148048000Y-86244076D01*
X134740147Y-86244076D01*
X137280147Y-83704076D01*
X148048000Y-83704076D01*
X148048000Y-83935924D01*
X148093231Y-84163318D01*
X148181956Y-84377519D01*
X148310764Y-84570294D01*
X148474706Y-84734236D01*
X148667481Y-84863044D01*
X148881682Y-84951769D01*
X149109076Y-84997000D01*
X149340924Y-84997000D01*
X149568318Y-84951769D01*
X149782519Y-84863044D01*
X149975294Y-84734236D01*
X150139236Y-84570294D01*
X150268044Y-84377519D01*
X150356769Y-84163318D01*
X150402000Y-83935924D01*
X150402000Y-83704076D01*
X150356769Y-83476682D01*
X150268044Y-83262481D01*
X150139236Y-83069706D01*
X149975294Y-82905764D01*
X149782519Y-82776956D01*
X149568318Y-82688231D01*
X149340924Y-82643000D01*
X149109076Y-82643000D01*
X148881682Y-82688231D01*
X148667481Y-82776956D01*
X148474706Y-82905764D01*
X148310764Y-83069706D01*
X148181956Y-83262481D01*
X148093231Y-83476682D01*
X148048000Y-83704076D01*
X137280147Y-83704076D01*
X142360147Y-78624076D01*
X148048000Y-78624076D01*
X148048000Y-78855924D01*
X148093231Y-79083318D01*
X148181956Y-79297519D01*
X148310764Y-79490294D01*
X148474706Y-79654236D01*
X148498000Y-79669801D01*
X148498001Y-80350199D01*
X148474706Y-80365764D01*
X148310764Y-80529706D01*
X148181956Y-80722481D01*
X148093231Y-80936682D01*
X148048000Y-81164076D01*
X148048000Y-81395924D01*
X148093231Y-81623318D01*
X148181956Y-81837519D01*
X148310764Y-82030294D01*
X148474706Y-82194236D01*
X148667481Y-82323044D01*
X148881682Y-82411769D01*
X149109076Y-82457000D01*
X149340924Y-82457000D01*
X149568318Y-82411769D01*
X149782519Y-82323044D01*
X149975294Y-82194236D01*
X150139236Y-82030294D01*
X150268044Y-81837519D01*
X150356769Y-81623318D01*
X150402000Y-81395924D01*
X150402000Y-81164076D01*
X150356769Y-80936682D01*
X150268044Y-80722481D01*
X150139236Y-80529706D01*
X149975294Y-80365764D01*
X149952000Y-80350199D01*
X149952000Y-79669801D01*
X149975294Y-79654236D01*
X150139236Y-79490294D01*
X150268044Y-79297519D01*
X150356769Y-79083318D01*
X150402000Y-78855924D01*
X150402000Y-78624076D01*
X150356769Y-78396682D01*
X150268044Y-78182481D01*
X150139236Y-77989706D01*
X149975294Y-77825764D01*
X149782519Y-77696956D01*
X149568318Y-77608231D01*
X149340924Y-77563000D01*
X149109076Y-77563000D01*
X148881682Y-77608231D01*
X148667481Y-77696956D01*
X148474706Y-77825764D01*
X148310764Y-77989706D01*
X148181956Y-78182481D01*
X148093231Y-78396682D01*
X148048000Y-78624076D01*
X142360147Y-78624076D01*
X147440147Y-73544076D01*
X148048000Y-73544076D01*
X148048000Y-73775924D01*
X148093231Y-74003318D01*
X148181956Y-74217519D01*
X148310764Y-74410294D01*
X148474706Y-74574236D01*
X148667481Y-74703044D01*
X148881682Y-74791769D01*
X149109076Y-74837000D01*
X149340924Y-74837000D01*
X149568318Y-74791769D01*
X149782519Y-74703044D01*
X149975294Y-74574236D01*
X150139236Y-74410294D01*
X150179181Y-74350512D01*
X193504783Y-74350512D01*
X193546213Y-74630130D01*
X193641397Y-74896292D01*
X193708329Y-75021514D01*
X193952298Y-75093097D01*
X194765395Y-74280000D01*
X195124605Y-74280000D01*
X195937702Y-75093097D01*
X196181671Y-75021514D01*
X196302571Y-74766004D01*
X196371300Y-74491816D01*
X196385217Y-74209488D01*
X196343787Y-73929870D01*
X196248603Y-73663708D01*
X196181671Y-73538486D01*
X195937702Y-73466903D01*
X195124605Y-74280000D01*
X194765395Y-74280000D01*
X193952298Y-73466903D01*
X193708329Y-73538486D01*
X193587429Y-73793996D01*
X193518700Y-74068184D01*
X193504783Y-74350512D01*
X150179181Y-74350512D01*
X150268044Y-74217519D01*
X150356769Y-74003318D01*
X150402000Y-73775924D01*
X150402000Y-73544076D01*
X150356769Y-73316682D01*
X150344598Y-73287298D01*
X194131903Y-73287298D01*
X194945000Y-74100395D01*
X195758097Y-73287298D01*
X195686514Y-73043329D01*
X195431004Y-72922429D01*
X195156816Y-72853700D01*
X194874488Y-72839783D01*
X194594870Y-72881213D01*
X194328708Y-72976397D01*
X194203486Y-73043329D01*
X194131903Y-73287298D01*
X150344598Y-73287298D01*
X150268044Y-73102481D01*
X150139236Y-72909706D01*
X149975294Y-72745764D01*
X149909278Y-72701653D01*
X196342952Y-72701653D01*
X196498962Y-73017214D01*
X196873745Y-73208020D01*
X197278551Y-73322044D01*
X197697824Y-73354902D01*
X198115451Y-73305334D01*
X198515383Y-73175243D01*
X198811038Y-73017214D01*
X198967048Y-72701653D01*
X197655000Y-71389605D01*
X196342952Y-72701653D01*
X149909278Y-72701653D01*
X149782519Y-72616956D01*
X149568318Y-72528231D01*
X149340924Y-72483000D01*
X149109076Y-72483000D01*
X148881682Y-72528231D01*
X148667481Y-72616956D01*
X148474706Y-72745764D01*
X148310764Y-72909706D01*
X148181956Y-73102481D01*
X148093231Y-73316682D01*
X148048000Y-73544076D01*
X147440147Y-73544076D01*
X148776163Y-72208061D01*
X148881682Y-72251769D01*
X149109076Y-72297000D01*
X149340924Y-72297000D01*
X149568318Y-72251769D01*
X149782519Y-72163044D01*
X149975294Y-72034236D01*
X150139236Y-71870294D01*
X150268044Y-71677519D01*
X150356769Y-71463318D01*
X150398638Y-71252824D01*
X195510098Y-71252824D01*
X195559666Y-71670451D01*
X195689757Y-72070383D01*
X195847786Y-72366038D01*
X196163347Y-72522048D01*
X197475395Y-71210000D01*
X197834605Y-71210000D01*
X199146653Y-72522048D01*
X199462214Y-72366038D01*
X199653020Y-71991255D01*
X199767044Y-71586449D01*
X199799902Y-71167176D01*
X199750334Y-70749549D01*
X199620243Y-70349617D01*
X199462214Y-70053962D01*
X199146653Y-69897952D01*
X197834605Y-71210000D01*
X197475395Y-71210000D01*
X196163347Y-69897952D01*
X195847786Y-70053962D01*
X195656980Y-70428745D01*
X195542956Y-70833551D01*
X195510098Y-71252824D01*
X150398638Y-71252824D01*
X150402000Y-71235924D01*
X150402000Y-71004076D01*
X150356769Y-70776682D01*
X150268044Y-70562481D01*
X150139236Y-70369706D01*
X149975294Y-70205764D01*
X149782519Y-70076956D01*
X149617821Y-70008736D01*
X149856252Y-69924157D01*
X150106355Y-69775178D01*
X150169403Y-69718347D01*
X196342952Y-69718347D01*
X197655000Y-71030395D01*
X198967048Y-69718347D01*
X198811038Y-69402786D01*
X198436255Y-69211980D01*
X198031449Y-69097956D01*
X197612176Y-69065098D01*
X197194549Y-69114666D01*
X196794617Y-69244757D01*
X196498962Y-69402786D01*
X196342952Y-69718347D01*
X150169403Y-69718347D01*
X150322588Y-69580269D01*
X150496641Y-69346920D01*
X150621825Y-69084099D01*
X150666476Y-68936890D01*
X150545155Y-68707000D01*
X149352000Y-68707000D01*
X149352000Y-68727000D01*
X149098000Y-68727000D01*
X149098000Y-68707000D01*
X147904845Y-68707000D01*
X147783524Y-68936890D01*
X147828175Y-69084099D01*
X147953359Y-69346920D01*
X148127412Y-69580269D01*
X148343645Y-69775178D01*
X148593748Y-69924157D01*
X148832179Y-70008736D01*
X148667481Y-70076956D01*
X148474706Y-70205764D01*
X148310764Y-70369706D01*
X148181956Y-70562481D01*
X148093231Y-70776682D01*
X148048000Y-71004076D01*
X148048000Y-71235924D01*
X148093231Y-71463318D01*
X148136939Y-71568837D01*
X133681096Y-86024681D01*
X133663842Y-86038841D01*
X133607358Y-86107667D01*
X133565386Y-86186191D01*
X133539540Y-86271393D01*
X133530813Y-86360000D01*
X133533001Y-86382215D01*
X133533000Y-120833249D01*
X133427481Y-120876956D01*
X133234706Y-121005764D01*
X133167000Y-121073470D01*
X133167000Y-85662339D01*
X133178436Y-85654698D01*
X133279698Y-85553436D01*
X133359259Y-85434364D01*
X133414062Y-85302058D01*
X133442000Y-85161603D01*
X133442000Y-85018397D01*
X133414062Y-84877942D01*
X133359259Y-84745636D01*
X133279698Y-84626564D01*
X133178436Y-84525302D01*
X133059364Y-84445741D01*
X132927058Y-84390938D01*
X132786603Y-84363000D01*
X132643397Y-84363000D01*
X132502942Y-84390938D01*
X132370636Y-84445741D01*
X132251564Y-84525302D01*
X132150302Y-84626564D01*
X132070741Y-84745636D01*
X132015938Y-84877942D01*
X131988000Y-85018397D01*
X131988000Y-85161603D01*
X132015938Y-85302058D01*
X132070741Y-85434364D01*
X132150302Y-85553436D01*
X132251564Y-85654698D01*
X132263001Y-85662340D01*
X132263000Y-121073470D01*
X132195294Y-121005764D01*
X132002519Y-120876956D01*
X131897000Y-120833249D01*
X131897000Y-88202339D01*
X131908436Y-88194698D01*
X132009698Y-88093436D01*
X132089259Y-87974364D01*
X132144062Y-87842058D01*
X132172000Y-87701603D01*
X132172000Y-87558397D01*
X132144062Y-87417942D01*
X132089259Y-87285636D01*
X132009698Y-87166564D01*
X131908436Y-87065302D01*
X131789364Y-86985741D01*
X131657058Y-86930938D01*
X131516603Y-86903000D01*
X131373397Y-86903000D01*
X131232942Y-86930938D01*
X131100636Y-86985741D01*
X130981564Y-87065302D01*
X130880302Y-87166564D01*
X130800741Y-87285636D01*
X130745938Y-87417942D01*
X130718000Y-87558397D01*
X130718000Y-87701603D01*
X130745938Y-87842058D01*
X130800741Y-87974364D01*
X130880302Y-88093436D01*
X130981564Y-88194698D01*
X130993001Y-88202340D01*
X130993000Y-120833249D01*
X130887481Y-120876956D01*
X130694706Y-121005764D01*
X130530764Y-121169706D01*
X130401956Y-121362481D01*
X130313231Y-121576682D01*
X130268000Y-121804076D01*
X130268000Y-122035924D01*
X130313231Y-122263318D01*
X130356939Y-122368838D01*
X129871096Y-122854681D01*
X129853842Y-122868841D01*
X129797358Y-122937667D01*
X129755386Y-123016191D01*
X129729540Y-123101393D01*
X129720813Y-123190000D01*
X129723001Y-123212215D01*
X129723000Y-126153470D01*
X129655294Y-126085764D01*
X129462519Y-125956956D01*
X129248318Y-125868231D01*
X129020924Y-125823000D01*
X128789076Y-125823000D01*
X128561682Y-125868231D01*
X128347481Y-125956956D01*
X128154706Y-126085764D01*
X128087000Y-126153470D01*
X128087000Y-123377223D01*
X128456162Y-123008061D01*
X128561682Y-123051769D01*
X128789076Y-123097000D01*
X129020924Y-123097000D01*
X129248318Y-123051769D01*
X129462519Y-122963044D01*
X129655294Y-122834236D01*
X129819236Y-122670294D01*
X129948044Y-122477519D01*
X130036769Y-122263318D01*
X130082000Y-122035924D01*
X130082000Y-121804076D01*
X130036769Y-121576682D01*
X129948044Y-121362481D01*
X129819236Y-121169706D01*
X129655294Y-121005764D01*
X129462519Y-120876956D01*
X129357000Y-120833249D01*
X129357000Y-90742339D01*
X129368436Y-90734698D01*
X129469698Y-90633436D01*
X129549259Y-90514364D01*
X129604062Y-90382058D01*
X129632000Y-90241603D01*
X129632000Y-90098397D01*
X129604062Y-89957942D01*
X129549259Y-89825636D01*
X129469698Y-89706564D01*
X129368436Y-89605302D01*
X129249364Y-89525741D01*
X129117058Y-89470938D01*
X128976603Y-89443000D01*
X128833397Y-89443000D01*
X128692942Y-89470938D01*
X128560636Y-89525741D01*
X128441564Y-89605302D01*
X128340302Y-89706564D01*
X128260741Y-89825636D01*
X128205938Y-89957942D01*
X128178000Y-90098397D01*
X128178000Y-90241603D01*
X128205938Y-90382058D01*
X128260741Y-90514364D01*
X128340302Y-90633436D01*
X128441564Y-90734698D01*
X128453001Y-90742340D01*
X128453000Y-120833249D01*
X128347481Y-120876956D01*
X128154706Y-121005764D01*
X128087000Y-121073470D01*
X128087000Y-83122339D01*
X128098436Y-83114698D01*
X128199698Y-83013436D01*
X128279259Y-82894364D01*
X128334062Y-82762058D01*
X128362000Y-82621603D01*
X128362000Y-82478397D01*
X128334062Y-82337942D01*
X128279259Y-82205636D01*
X128199698Y-82086564D01*
X128098436Y-81985302D01*
X127979364Y-81905741D01*
X127847058Y-81850938D01*
X127706603Y-81823000D01*
X127563397Y-81823000D01*
X127422942Y-81850938D01*
X127290636Y-81905741D01*
X127171564Y-81985302D01*
X127070302Y-82086564D01*
X126990741Y-82205636D01*
X126935938Y-82337942D01*
X126908000Y-82478397D01*
X126908000Y-82621603D01*
X126935938Y-82762058D01*
X126990741Y-82894364D01*
X127070302Y-83013436D01*
X127171564Y-83114698D01*
X127183001Y-83122340D01*
X127183000Y-121073470D01*
X127115294Y-121005764D01*
X126922519Y-120876956D01*
X126708318Y-120788231D01*
X126480924Y-120743000D01*
X126249076Y-120743000D01*
X126021682Y-120788231D01*
X125807481Y-120876956D01*
X125614706Y-121005764D01*
X125450764Y-121169706D01*
X125321956Y-121362481D01*
X125233231Y-121576682D01*
X125188000Y-121804076D01*
X125188000Y-122035924D01*
X125233231Y-122263318D01*
X125276939Y-122368838D01*
X124791096Y-122854681D01*
X124773842Y-122868841D01*
X124717358Y-122937667D01*
X124675386Y-123016191D01*
X124649540Y-123101393D01*
X124640813Y-123190000D01*
X124643001Y-123212215D01*
X124643000Y-126153470D01*
X124575294Y-126085764D01*
X124382519Y-125956956D01*
X124168318Y-125868231D01*
X123940924Y-125823000D01*
X123709076Y-125823000D01*
X123481682Y-125868231D01*
X123267481Y-125956956D01*
X123074706Y-126085764D01*
X123007000Y-126153470D01*
X123007000Y-123377223D01*
X123376162Y-123008061D01*
X123481682Y-123051769D01*
X123709076Y-123097000D01*
X123940924Y-123097000D01*
X124168318Y-123051769D01*
X124382519Y-122963044D01*
X124575294Y-122834236D01*
X124739236Y-122670294D01*
X124868044Y-122477519D01*
X124956769Y-122263318D01*
X125002000Y-122035924D01*
X125002000Y-121804076D01*
X124956769Y-121576682D01*
X124868044Y-121362481D01*
X124739236Y-121169706D01*
X124575294Y-121005764D01*
X124382519Y-120876956D01*
X124168318Y-120788231D01*
X123940924Y-120743000D01*
X123709076Y-120743000D01*
X123481682Y-120788231D01*
X123267481Y-120876956D01*
X123074706Y-121005764D01*
X123007000Y-121073470D01*
X123007000Y-78042339D01*
X123018436Y-78034698D01*
X123119698Y-77933436D01*
X123199259Y-77814364D01*
X123254062Y-77682058D01*
X123282000Y-77541603D01*
X123282000Y-77398397D01*
X123254062Y-77257942D01*
X123199259Y-77125636D01*
X123119698Y-77006564D01*
X123018436Y-76905302D01*
X122899364Y-76825741D01*
X122767058Y-76770938D01*
X122626603Y-76743000D01*
X122483397Y-76743000D01*
X122342942Y-76770938D01*
X122210636Y-76825741D01*
X122091564Y-76905302D01*
X121990302Y-77006564D01*
X121910741Y-77125636D01*
X121855938Y-77257942D01*
X121828000Y-77398397D01*
X121828000Y-77541603D01*
X121855938Y-77682058D01*
X121910741Y-77814364D01*
X121990302Y-77933436D01*
X122091564Y-78034698D01*
X122103001Y-78042340D01*
X122103000Y-121073470D01*
X122035294Y-121005764D01*
X121842519Y-120876956D01*
X121737000Y-120833249D01*
X121737000Y-80582339D01*
X121748436Y-80574698D01*
X121849698Y-80473436D01*
X121929259Y-80354364D01*
X121984062Y-80222058D01*
X122012000Y-80081603D01*
X122012000Y-79938397D01*
X121984062Y-79797942D01*
X121929259Y-79665636D01*
X121849698Y-79546564D01*
X121748436Y-79445302D01*
X121629364Y-79365741D01*
X121497058Y-79310938D01*
X121356603Y-79283000D01*
X121213397Y-79283000D01*
X121072942Y-79310938D01*
X120940636Y-79365741D01*
X120821564Y-79445302D01*
X120720302Y-79546564D01*
X120640741Y-79665636D01*
X120585938Y-79797942D01*
X120558000Y-79938397D01*
X120558000Y-80081603D01*
X120585938Y-80222058D01*
X120640741Y-80354364D01*
X120720302Y-80473436D01*
X120821564Y-80574698D01*
X120833001Y-80582340D01*
X120833000Y-120833249D01*
X120727481Y-120876956D01*
X120534706Y-121005764D01*
X120370764Y-121169706D01*
X120241956Y-121362481D01*
X120153231Y-121576682D01*
X120108000Y-121804076D01*
X120108000Y-122035924D01*
X120153231Y-122263318D01*
X120196939Y-122368838D01*
X119711096Y-122854681D01*
X119693842Y-122868841D01*
X119637358Y-122937667D01*
X119595386Y-123016191D01*
X119569540Y-123101393D01*
X119560813Y-123190000D01*
X119563001Y-123212215D01*
X119563000Y-126153470D01*
X119495294Y-126085764D01*
X119302519Y-125956956D01*
X119088318Y-125868231D01*
X118860924Y-125823000D01*
X118629076Y-125823000D01*
X118401682Y-125868231D01*
X118187481Y-125956956D01*
X117994706Y-126085764D01*
X117927000Y-126153470D01*
X117927000Y-123377223D01*
X118296162Y-123008061D01*
X118401682Y-123051769D01*
X118629076Y-123097000D01*
X118860924Y-123097000D01*
X119088318Y-123051769D01*
X119302519Y-122963044D01*
X119495294Y-122834236D01*
X119659236Y-122670294D01*
X119788044Y-122477519D01*
X119876769Y-122263318D01*
X119922000Y-122035924D01*
X119922000Y-121804076D01*
X119876769Y-121576682D01*
X119788044Y-121362481D01*
X119659236Y-121169706D01*
X119495294Y-121005764D01*
X119302519Y-120876956D01*
X119197000Y-120833249D01*
X119197000Y-75502339D01*
X119208436Y-75494698D01*
X119309698Y-75393436D01*
X119389259Y-75274364D01*
X119444062Y-75142058D01*
X119472000Y-75001603D01*
X119472000Y-74858397D01*
X119444062Y-74717942D01*
X119389259Y-74585636D01*
X119309698Y-74466564D01*
X119208436Y-74365302D01*
X119089364Y-74285741D01*
X118957058Y-74230938D01*
X118816603Y-74203000D01*
X118673397Y-74203000D01*
X118532942Y-74230938D01*
X118400636Y-74285741D01*
X118281564Y-74365302D01*
X118180302Y-74466564D01*
X118100741Y-74585636D01*
X118045938Y-74717942D01*
X118018000Y-74858397D01*
X118018000Y-75001603D01*
X118045938Y-75142058D01*
X118100741Y-75274364D01*
X118180302Y-75393436D01*
X118281564Y-75494698D01*
X118293001Y-75502340D01*
X118293000Y-120833249D01*
X118187481Y-120876956D01*
X117994706Y-121005764D01*
X117832001Y-121168469D01*
X117832001Y-105337206D01*
X117834188Y-105315001D01*
X117825461Y-105226393D01*
X117799615Y-105141191D01*
X117757643Y-105062667D01*
X117750724Y-105054236D01*
X117701160Y-104993842D01*
X117683906Y-104979682D01*
X85543061Y-72838838D01*
X85586769Y-72733318D01*
X85632000Y-72505924D01*
X85632000Y-72274076D01*
X85586769Y-72046682D01*
X85498044Y-71832481D01*
X85369236Y-71639706D01*
X85205294Y-71475764D01*
X85012519Y-71346956D01*
X84798318Y-71258231D01*
X84570924Y-71213000D01*
X84339076Y-71213000D01*
X84111682Y-71258231D01*
X83897481Y-71346956D01*
X83704706Y-71475764D01*
X83540764Y-71639706D01*
X83411956Y-71832481D01*
X83323231Y-72046682D01*
X83278000Y-72274076D01*
X83278000Y-72505924D01*
X83323231Y-72733318D01*
X83411956Y-72947519D01*
X83540764Y-73140294D01*
X83704706Y-73304236D01*
X83897481Y-73433044D01*
X84111682Y-73521769D01*
X84339076Y-73567000D01*
X84570924Y-73567000D01*
X84798318Y-73521769D01*
X84903838Y-73478061D01*
X116928002Y-105502226D01*
X116928001Y-120987527D01*
X116762519Y-120876956D01*
X116548318Y-120788231D01*
X116320924Y-120743000D01*
X116089076Y-120743000D01*
X115861682Y-120788231D01*
X115647481Y-120876956D01*
X115454706Y-121005764D01*
X115290764Y-121169706D01*
X115161956Y-121362481D01*
X115073231Y-121576682D01*
X115028000Y-121804076D01*
X115028000Y-122035924D01*
X115073231Y-122263318D01*
X115116939Y-122368838D01*
X114631096Y-122854681D01*
X114613842Y-122868841D01*
X114557358Y-122937667D01*
X114515386Y-123016191D01*
X114489540Y-123101393D01*
X114480813Y-123190000D01*
X114483001Y-123212215D01*
X114483000Y-127765276D01*
X114390960Y-127857317D01*
X108831070Y-129092848D01*
X108813892Y-129094540D01*
X108787693Y-129102487D01*
X108782772Y-129103581D01*
X108766504Y-129108915D01*
X108728690Y-129120386D01*
X108724198Y-129122787D01*
X108719370Y-129124370D01*
X108685007Y-129143735D01*
X108650166Y-129162358D01*
X108646232Y-129165586D01*
X108641802Y-129168083D01*
X108611854Y-129193801D01*
X108598589Y-129204687D01*
X108595017Y-129208259D01*
X108574254Y-129226089D01*
X108563608Y-129239668D01*
X108281095Y-129522182D01*
X108263842Y-129536341D01*
X108207358Y-129605167D01*
X108165386Y-129683691D01*
X108139540Y-129768893D01*
X108130813Y-129857500D01*
X108133001Y-129879715D01*
X108133001Y-130048000D01*
X106501314Y-130048000D01*
X106498779Y-130039644D01*
X106466093Y-129978493D01*
X106422106Y-129924894D01*
X106368507Y-129880907D01*
X106307356Y-129848221D01*
X106241004Y-129828093D01*
X106189292Y-129823000D01*
X106172000Y-129821297D01*
X106154709Y-129823000D01*
X80997000Y-129823000D01*
X80997000Y-93869000D01*
X83328000Y-93869000D01*
X83328000Y-94091000D01*
X83371310Y-94308734D01*
X83456266Y-94513835D01*
X83579602Y-94698421D01*
X83736579Y-94855398D01*
X83921165Y-94978734D01*
X84126266Y-95063690D01*
X84344000Y-95107000D01*
X84566000Y-95107000D01*
X84783734Y-95063690D01*
X84988835Y-94978734D01*
X84997862Y-94972702D01*
X88641903Y-94972702D01*
X88713486Y-95216671D01*
X88968996Y-95337571D01*
X89243184Y-95406300D01*
X89525512Y-95420217D01*
X89805130Y-95378787D01*
X90071292Y-95283603D01*
X90196514Y-95216671D01*
X90268097Y-94972702D01*
X89455000Y-94159605D01*
X88641903Y-94972702D01*
X84997862Y-94972702D01*
X85173421Y-94855398D01*
X85330398Y-94698421D01*
X85453734Y-94513835D01*
X85538690Y-94308734D01*
X85582000Y-94091000D01*
X85582000Y-94050512D01*
X88014783Y-94050512D01*
X88056213Y-94330130D01*
X88151397Y-94596292D01*
X88218329Y-94721514D01*
X88462298Y-94793097D01*
X89275395Y-93980000D01*
X89634605Y-93980000D01*
X90447702Y-94793097D01*
X90691671Y-94721514D01*
X90812571Y-94466004D01*
X90881300Y-94191816D01*
X90895217Y-93909488D01*
X90853787Y-93629870D01*
X90758603Y-93363708D01*
X90691671Y-93238486D01*
X90447702Y-93166903D01*
X89634605Y-93980000D01*
X89275395Y-93980000D01*
X88462298Y-93166903D01*
X88218329Y-93238486D01*
X88097429Y-93493996D01*
X88028700Y-93768184D01*
X88014783Y-94050512D01*
X85582000Y-94050512D01*
X85582000Y-93869000D01*
X85538690Y-93651266D01*
X85453734Y-93446165D01*
X85330398Y-93261579D01*
X85173421Y-93104602D01*
X84997863Y-92987298D01*
X88641903Y-92987298D01*
X89455000Y-93800395D01*
X90268097Y-92987298D01*
X90196514Y-92743329D01*
X89941004Y-92622429D01*
X89666816Y-92553700D01*
X89384488Y-92539783D01*
X89104870Y-92581213D01*
X88838708Y-92676397D01*
X88713486Y-92743329D01*
X88641903Y-92987298D01*
X84997863Y-92987298D01*
X84988835Y-92981266D01*
X84783734Y-92896310D01*
X84566000Y-92853000D01*
X84344000Y-92853000D01*
X84126266Y-92896310D01*
X83921165Y-92981266D01*
X83736579Y-93104602D01*
X83579602Y-93261579D01*
X83456266Y-93446165D01*
X83371310Y-93651266D01*
X83328000Y-93869000D01*
X80997000Y-93869000D01*
X80997000Y-89320000D01*
X83276418Y-89320000D01*
X83276418Y-91020000D01*
X83282732Y-91084103D01*
X83301430Y-91145743D01*
X83331794Y-91202550D01*
X83372657Y-91252343D01*
X83422450Y-91293206D01*
X83479257Y-91323570D01*
X83540897Y-91342268D01*
X83605000Y-91348582D01*
X85305000Y-91348582D01*
X85369103Y-91342268D01*
X85430743Y-91323570D01*
X85487550Y-91293206D01*
X85537343Y-91252343D01*
X85578206Y-91202550D01*
X85608570Y-91145743D01*
X85627268Y-91084103D01*
X85633582Y-91020000D01*
X85633582Y-89320000D01*
X85627268Y-89255897D01*
X85608570Y-89194257D01*
X85578206Y-89137450D01*
X85537343Y-89087657D01*
X85487550Y-89046794D01*
X85430743Y-89016430D01*
X85369103Y-88997732D01*
X85305000Y-88991418D01*
X83605000Y-88991418D01*
X83540897Y-88997732D01*
X83479257Y-89016430D01*
X83422450Y-89046794D01*
X83372657Y-89087657D01*
X83331794Y-89137450D01*
X83301430Y-89194257D01*
X83282732Y-89255897D01*
X83276418Y-89320000D01*
X80997000Y-89320000D01*
X80997000Y-87514076D01*
X83278000Y-87514076D01*
X83278000Y-87745924D01*
X83323231Y-87973318D01*
X83411956Y-88187519D01*
X83540764Y-88380294D01*
X83704706Y-88544236D01*
X83897481Y-88673044D01*
X84111682Y-88761769D01*
X84339076Y-88807000D01*
X84570924Y-88807000D01*
X84798318Y-88761769D01*
X85012519Y-88673044D01*
X85205294Y-88544236D01*
X85369236Y-88380294D01*
X85498044Y-88187519D01*
X85586769Y-87973318D01*
X85632000Y-87745924D01*
X85632000Y-87514076D01*
X85586769Y-87286682D01*
X85498044Y-87072481D01*
X85369236Y-86879706D01*
X85205294Y-86715764D01*
X85012519Y-86586956D01*
X84798318Y-86498231D01*
X84570924Y-86453000D01*
X84339076Y-86453000D01*
X84111682Y-86498231D01*
X83897481Y-86586956D01*
X83704706Y-86715764D01*
X83540764Y-86879706D01*
X83411956Y-87072481D01*
X83323231Y-87286682D01*
X83278000Y-87514076D01*
X80997000Y-87514076D01*
X80997000Y-84974076D01*
X83278000Y-84974076D01*
X83278000Y-85205924D01*
X83323231Y-85433318D01*
X83411956Y-85647519D01*
X83540764Y-85840294D01*
X83704706Y-86004236D01*
X83897481Y-86133044D01*
X84111682Y-86221769D01*
X84339076Y-86267000D01*
X84570924Y-86267000D01*
X84798318Y-86221769D01*
X85012519Y-86133044D01*
X85205294Y-86004236D01*
X85369236Y-85840294D01*
X85498044Y-85647519D01*
X85586769Y-85433318D01*
X85632000Y-85205924D01*
X85632000Y-84974076D01*
X85586769Y-84746682D01*
X85498044Y-84532481D01*
X85369236Y-84339706D01*
X85205294Y-84175764D01*
X85012519Y-84046956D01*
X84798318Y-83958231D01*
X84570924Y-83913000D01*
X84339076Y-83913000D01*
X84111682Y-83958231D01*
X83897481Y-84046956D01*
X83704706Y-84175764D01*
X83540764Y-84339706D01*
X83411956Y-84532481D01*
X83323231Y-84746682D01*
X83278000Y-84974076D01*
X80997000Y-84974076D01*
X80997000Y-82434076D01*
X83278000Y-82434076D01*
X83278000Y-82665924D01*
X83323231Y-82893318D01*
X83411956Y-83107519D01*
X83540764Y-83300294D01*
X83704706Y-83464236D01*
X83897481Y-83593044D01*
X84111682Y-83681769D01*
X84339076Y-83727000D01*
X84570924Y-83727000D01*
X84798318Y-83681769D01*
X85012519Y-83593044D01*
X85205294Y-83464236D01*
X85369236Y-83300294D01*
X85498044Y-83107519D01*
X85586769Y-82893318D01*
X85632000Y-82665924D01*
X85632000Y-82434076D01*
X85586769Y-82206682D01*
X85498044Y-81992481D01*
X85369236Y-81799706D01*
X85205294Y-81635764D01*
X85012519Y-81506956D01*
X84798318Y-81418231D01*
X84570924Y-81373000D01*
X84339076Y-81373000D01*
X84111682Y-81418231D01*
X83897481Y-81506956D01*
X83704706Y-81635764D01*
X83540764Y-81799706D01*
X83411956Y-81992481D01*
X83323231Y-82206682D01*
X83278000Y-82434076D01*
X80997000Y-82434076D01*
X80997000Y-79894076D01*
X83278000Y-79894076D01*
X83278000Y-80125924D01*
X83323231Y-80353318D01*
X83411956Y-80567519D01*
X83540764Y-80760294D01*
X83704706Y-80924236D01*
X83897481Y-81053044D01*
X84111682Y-81141769D01*
X84339076Y-81187000D01*
X84570924Y-81187000D01*
X84798318Y-81141769D01*
X85012519Y-81053044D01*
X85205294Y-80924236D01*
X85369236Y-80760294D01*
X85498044Y-80567519D01*
X85586769Y-80353318D01*
X85632000Y-80125924D01*
X85632000Y-79894076D01*
X85586769Y-79666682D01*
X85498044Y-79452481D01*
X85369236Y-79259706D01*
X85205294Y-79095764D01*
X85012519Y-78966956D01*
X84798318Y-78878231D01*
X84570924Y-78833000D01*
X84339076Y-78833000D01*
X84111682Y-78878231D01*
X83897481Y-78966956D01*
X83704706Y-79095764D01*
X83540764Y-79259706D01*
X83411956Y-79452481D01*
X83323231Y-79666682D01*
X83278000Y-79894076D01*
X80997000Y-79894076D01*
X80997000Y-77354076D01*
X83278000Y-77354076D01*
X83278000Y-77585924D01*
X83323231Y-77813318D01*
X83411956Y-78027519D01*
X83540764Y-78220294D01*
X83704706Y-78384236D01*
X83897481Y-78513044D01*
X84111682Y-78601769D01*
X84339076Y-78647000D01*
X84570924Y-78647000D01*
X84798318Y-78601769D01*
X85012519Y-78513044D01*
X85205294Y-78384236D01*
X85369236Y-78220294D01*
X85498044Y-78027519D01*
X85586769Y-77813318D01*
X85632000Y-77585924D01*
X85632000Y-77354076D01*
X85586769Y-77126682D01*
X85498044Y-76912481D01*
X85369236Y-76719706D01*
X85205294Y-76555764D01*
X85012519Y-76426956D01*
X84798318Y-76338231D01*
X84570924Y-76293000D01*
X84339076Y-76293000D01*
X84111682Y-76338231D01*
X83897481Y-76426956D01*
X83704706Y-76555764D01*
X83540764Y-76719706D01*
X83411956Y-76912481D01*
X83323231Y-77126682D01*
X83278000Y-77354076D01*
X80997000Y-77354076D01*
X80997000Y-74814076D01*
X83278000Y-74814076D01*
X83278000Y-75045924D01*
X83323231Y-75273318D01*
X83411956Y-75487519D01*
X83540764Y-75680294D01*
X83704706Y-75844236D01*
X83897481Y-75973044D01*
X84111682Y-76061769D01*
X84339076Y-76107000D01*
X84570924Y-76107000D01*
X84798318Y-76061769D01*
X85012519Y-75973044D01*
X85205294Y-75844236D01*
X85369236Y-75680294D01*
X85498044Y-75487519D01*
X85586769Y-75273318D01*
X85632000Y-75045924D01*
X85632000Y-74814076D01*
X85586769Y-74586682D01*
X85498044Y-74372481D01*
X85369236Y-74179706D01*
X85205294Y-74015764D01*
X85012519Y-73886956D01*
X84798318Y-73798231D01*
X84570924Y-73753000D01*
X84339076Y-73753000D01*
X84111682Y-73798231D01*
X83897481Y-73886956D01*
X83704706Y-74015764D01*
X83540764Y-74179706D01*
X83411956Y-74372481D01*
X83323231Y-74586682D01*
X83278000Y-74814076D01*
X80997000Y-74814076D01*
X80997000Y-71070767D01*
X97992918Y-66396890D01*
X147783524Y-66396890D01*
X147828175Y-66544099D01*
X147953359Y-66806920D01*
X148127412Y-67040269D01*
X148343645Y-67235178D01*
X148469255Y-67310000D01*
X148343645Y-67384822D01*
X148127412Y-67579731D01*
X147953359Y-67813080D01*
X147828175Y-68075901D01*
X147783524Y-68223110D01*
X147904845Y-68453000D01*
X149098000Y-68453000D01*
X149098000Y-66167000D01*
X149352000Y-66167000D01*
X149352000Y-68453000D01*
X150545155Y-68453000D01*
X150666476Y-68223110D01*
X150621825Y-68075901D01*
X150496641Y-67813080D01*
X150322588Y-67579731D01*
X150106355Y-67384822D01*
X149980745Y-67310000D01*
X150106355Y-67235178D01*
X150322588Y-67040269D01*
X150496641Y-66806920D01*
X150621825Y-66544099D01*
X150666476Y-66396890D01*
X150545155Y-66167000D01*
X149352000Y-66167000D01*
X149098000Y-66167000D01*
X147904845Y-66167000D01*
X147783524Y-66396890D01*
X97992918Y-66396890D01*
X100588482Y-65683110D01*
X147783524Y-65683110D01*
X147904845Y-65913000D01*
X149098000Y-65913000D01*
X149098000Y-64719186D01*
X149352000Y-64719186D01*
X149352000Y-65913000D01*
X150545155Y-65913000D01*
X150666476Y-65683110D01*
X150621825Y-65535901D01*
X150496641Y-65273080D01*
X150322588Y-65039731D01*
X150106355Y-64844822D01*
X149856252Y-64695843D01*
X149581891Y-64598519D01*
X149352000Y-64719186D01*
X149098000Y-64719186D01*
X148868109Y-64598519D01*
X148593748Y-64695843D01*
X148343645Y-64844822D01*
X148127412Y-65039731D01*
X147953359Y-65273080D01*
X147828175Y-65535901D01*
X147783524Y-65683110D01*
X100588482Y-65683110D01*
X118792521Y-60677000D01*
X206023001Y-60677000D01*
X206023000Y-129823000D01*
G04 #@! TA.AperFunction,Conductor*
D20*
G36*
X206023000Y-129823000D02*
G01*
X184675292Y-129823000D01*
X184658000Y-129821297D01*
X184640709Y-129823000D01*
X184640708Y-129823000D01*
X184588996Y-129828093D01*
X184522644Y-129848221D01*
X184461493Y-129880907D01*
X184407894Y-129924894D01*
X184363907Y-129978493D01*
X184331221Y-130039644D01*
X184328686Y-130048000D01*
X180157000Y-130048000D01*
X180157000Y-130044723D01*
X180249041Y-129952683D01*
X185808941Y-128717151D01*
X185826107Y-128715460D01*
X185852288Y-128707518D01*
X185857229Y-128706420D01*
X185873562Y-128701065D01*
X185911309Y-128689614D01*
X185915793Y-128687217D01*
X185920631Y-128685631D01*
X185955057Y-128666230D01*
X185989833Y-128647642D01*
X185993760Y-128644419D01*
X185998198Y-128641918D01*
X186028194Y-128616159D01*
X186041410Y-128605313D01*
X186044969Y-128601754D01*
X186065746Y-128583912D01*
X186076399Y-128570325D01*
X186358906Y-128287818D01*
X186376159Y-128273659D01*
X186432643Y-128204833D01*
X186474614Y-128126310D01*
X186475556Y-128123206D01*
X186500460Y-128041108D01*
X186509187Y-127952500D01*
X186507000Y-127930295D01*
X186507000Y-127846530D01*
X186574706Y-127914236D01*
X186767481Y-128043044D01*
X186981682Y-128131769D01*
X187209076Y-128177000D01*
X187440924Y-128177000D01*
X187668318Y-128131769D01*
X187882519Y-128043044D01*
X188075294Y-127914236D01*
X188239236Y-127750294D01*
X188368044Y-127557519D01*
X188456769Y-127343318D01*
X188502000Y-127115924D01*
X188502000Y-126884076D01*
X188688000Y-126884076D01*
X188688000Y-127115924D01*
X188733231Y-127343318D01*
X188821956Y-127557519D01*
X188950764Y-127750294D01*
X189114706Y-127914236D01*
X189307481Y-128043044D01*
X189521682Y-128131769D01*
X189749076Y-128177000D01*
X189980924Y-128177000D01*
X190208318Y-128131769D01*
X190422519Y-128043044D01*
X190615294Y-127914236D01*
X190779236Y-127750294D01*
X190908044Y-127557519D01*
X190996769Y-127343318D01*
X191042000Y-127115924D01*
X191042000Y-126884076D01*
X190996769Y-126656682D01*
X190908044Y-126442481D01*
X190779236Y-126249706D01*
X190615294Y-126085764D01*
X190422519Y-125956956D01*
X190208318Y-125868231D01*
X189980924Y-125823000D01*
X189749076Y-125823000D01*
X189521682Y-125868231D01*
X189307481Y-125956956D01*
X189114706Y-126085764D01*
X188950764Y-126249706D01*
X188821956Y-126442481D01*
X188733231Y-126656682D01*
X188688000Y-126884076D01*
X188502000Y-126884076D01*
X188456769Y-126656682D01*
X188368044Y-126442481D01*
X188239236Y-126249706D01*
X188075294Y-126085764D01*
X187882519Y-125956956D01*
X187668318Y-125868231D01*
X187440924Y-125823000D01*
X187209076Y-125823000D01*
X186981682Y-125868231D01*
X186767481Y-125956956D01*
X186574706Y-126085764D01*
X186507000Y-126153470D01*
X186507000Y-123377223D01*
X186876162Y-123008061D01*
X186981682Y-123051769D01*
X187209076Y-123097000D01*
X187440924Y-123097000D01*
X187668318Y-123051769D01*
X187882519Y-122963044D01*
X188075294Y-122834236D01*
X188239236Y-122670294D01*
X188368044Y-122477519D01*
X188436264Y-122312821D01*
X188520843Y-122551252D01*
X188669822Y-122801355D01*
X188864731Y-123017588D01*
X189098080Y-123191641D01*
X189360901Y-123316825D01*
X189508110Y-123361476D01*
X189738000Y-123240155D01*
X189738000Y-122047000D01*
X189992000Y-122047000D01*
X189992000Y-123240155D01*
X190221890Y-123361476D01*
X190369099Y-123316825D01*
X190631920Y-123191641D01*
X190865269Y-123017588D01*
X191060178Y-122801355D01*
X191209157Y-122551252D01*
X191306481Y-122276891D01*
X191185814Y-122047000D01*
X189992000Y-122047000D01*
X189738000Y-122047000D01*
X189718000Y-122047000D01*
X189718000Y-121793000D01*
X189738000Y-121793000D01*
X189738000Y-120599845D01*
X189992000Y-120599845D01*
X189992000Y-121793000D01*
X191185814Y-121793000D01*
X191306481Y-121563109D01*
X191209157Y-121288748D01*
X191060178Y-121038645D01*
X190865269Y-120822412D01*
X190631920Y-120648359D01*
X190369099Y-120523175D01*
X190221890Y-120478524D01*
X189992000Y-120599845D01*
X189738000Y-120599845D01*
X189508110Y-120478524D01*
X189360901Y-120523175D01*
X189098080Y-120648359D01*
X188864731Y-120822412D01*
X188669822Y-121038645D01*
X188520843Y-121288748D01*
X188436264Y-121527179D01*
X188368044Y-121362481D01*
X188239236Y-121169706D01*
X188075294Y-121005764D01*
X187882519Y-120876956D01*
X187668318Y-120788231D01*
X187440924Y-120743000D01*
X187209076Y-120743000D01*
X186981682Y-120788231D01*
X186767481Y-120876956D01*
X186574706Y-121005764D01*
X186507000Y-121073470D01*
X186507000Y-97092339D01*
X186518436Y-97084698D01*
X186619698Y-96983436D01*
X186699259Y-96864364D01*
X186754062Y-96732058D01*
X186782000Y-96591603D01*
X186782000Y-96448397D01*
X186754062Y-96307942D01*
X186699259Y-96175636D01*
X186619698Y-96056564D01*
X186518436Y-95955302D01*
X186399364Y-95875741D01*
X186267058Y-95820938D01*
X186126603Y-95793000D01*
X185983397Y-95793000D01*
X185842942Y-95820938D01*
X185710636Y-95875741D01*
X185591564Y-95955302D01*
X185490302Y-96056564D01*
X185410741Y-96175636D01*
X185355938Y-96307942D01*
X185328000Y-96448397D01*
X185328000Y-96591603D01*
X185355938Y-96732058D01*
X185410741Y-96864364D01*
X185490302Y-96983436D01*
X185591564Y-97084698D01*
X185603001Y-97092340D01*
X185603000Y-121073470D01*
X185535294Y-121005764D01*
X185342519Y-120876956D01*
X185128318Y-120788231D01*
X184900924Y-120743000D01*
X184669076Y-120743000D01*
X184441682Y-120788231D01*
X184227481Y-120876956D01*
X184034706Y-121005764D01*
X183870764Y-121169706D01*
X183741956Y-121362481D01*
X183653231Y-121576682D01*
X183608000Y-121804076D01*
X183608000Y-122035924D01*
X183653231Y-122263318D01*
X183696939Y-122368838D01*
X183211096Y-122854681D01*
X183193842Y-122868841D01*
X183137358Y-122937667D01*
X183095386Y-123016191D01*
X183069540Y-123101393D01*
X183060813Y-123190000D01*
X183063001Y-123212215D01*
X183063000Y-126153470D01*
X182995294Y-126085764D01*
X182802519Y-125956956D01*
X182588318Y-125868231D01*
X182360924Y-125823000D01*
X182129076Y-125823000D01*
X181901682Y-125868231D01*
X181687481Y-125956956D01*
X181494706Y-126085764D01*
X181427000Y-126153470D01*
X181427000Y-123377223D01*
X181796162Y-123008061D01*
X181901682Y-123051769D01*
X182129076Y-123097000D01*
X182360924Y-123097000D01*
X182588318Y-123051769D01*
X182802519Y-122963044D01*
X182995294Y-122834236D01*
X183159236Y-122670294D01*
X183288044Y-122477519D01*
X183376769Y-122263318D01*
X183422000Y-122035924D01*
X183422000Y-121804076D01*
X183376769Y-121576682D01*
X183288044Y-121362481D01*
X183159236Y-121169706D01*
X182995294Y-121005764D01*
X182802519Y-120876956D01*
X182588318Y-120788231D01*
X182360924Y-120743000D01*
X182129076Y-120743000D01*
X181901682Y-120788231D01*
X181687481Y-120876956D01*
X181494706Y-121005764D01*
X181330764Y-121169706D01*
X181201956Y-121362481D01*
X181113231Y-121576682D01*
X181068000Y-121804076D01*
X181068000Y-122035924D01*
X181113231Y-122263318D01*
X181156939Y-122368838D01*
X180671096Y-122854681D01*
X180653842Y-122868841D01*
X180597358Y-122937667D01*
X180555386Y-123016191D01*
X180529540Y-123101393D01*
X180520813Y-123190000D01*
X180523001Y-123212215D01*
X180523000Y-126153470D01*
X180455294Y-126085764D01*
X180262519Y-125956956D01*
X180048318Y-125868231D01*
X179820924Y-125823000D01*
X179589076Y-125823000D01*
X179361682Y-125868231D01*
X179147481Y-125956956D01*
X178954706Y-126085764D01*
X178887000Y-126153470D01*
X178887000Y-123377223D01*
X179256162Y-123008061D01*
X179361682Y-123051769D01*
X179589076Y-123097000D01*
X179820924Y-123097000D01*
X180048318Y-123051769D01*
X180262519Y-122963044D01*
X180455294Y-122834236D01*
X180619236Y-122670294D01*
X180748044Y-122477519D01*
X180836769Y-122263318D01*
X180882000Y-122035924D01*
X180882000Y-121804076D01*
X180836769Y-121576682D01*
X180748044Y-121362481D01*
X180619236Y-121169706D01*
X180455294Y-121005764D01*
X180262519Y-120876956D01*
X180048318Y-120788231D01*
X179820924Y-120743000D01*
X179589076Y-120743000D01*
X179361682Y-120788231D01*
X179147481Y-120876956D01*
X178954706Y-121005764D01*
X178790764Y-121169706D01*
X178661956Y-121362481D01*
X178573231Y-121576682D01*
X178528000Y-121804076D01*
X178528000Y-122035924D01*
X178573231Y-122263318D01*
X178616939Y-122368838D01*
X178131096Y-122854681D01*
X178113842Y-122868841D01*
X178057358Y-122937667D01*
X178015386Y-123016191D01*
X177989540Y-123101393D01*
X177980813Y-123190000D01*
X177983001Y-123212215D01*
X177983000Y-126153470D01*
X177915294Y-126085764D01*
X177722519Y-125956956D01*
X177508318Y-125868231D01*
X177280924Y-125823000D01*
X177049076Y-125823000D01*
X176821682Y-125868231D01*
X176607481Y-125956956D01*
X176414706Y-126085764D01*
X176347000Y-126153470D01*
X176347000Y-123377223D01*
X176716162Y-123008061D01*
X176821682Y-123051769D01*
X177049076Y-123097000D01*
X177280924Y-123097000D01*
X177508318Y-123051769D01*
X177722519Y-122963044D01*
X177915294Y-122834236D01*
X178079236Y-122670294D01*
X178208044Y-122477519D01*
X178296769Y-122263318D01*
X178342000Y-122035924D01*
X178342000Y-121804076D01*
X178296769Y-121576682D01*
X178208044Y-121362481D01*
X178079236Y-121169706D01*
X177915294Y-121005764D01*
X177722519Y-120876956D01*
X177617000Y-120833249D01*
X177617000Y-91020000D01*
X196631928Y-91020000D01*
X196644188Y-91144482D01*
X196680498Y-91264180D01*
X196739463Y-91374494D01*
X196818815Y-91471185D01*
X196915506Y-91550537D01*
X197025820Y-91609502D01*
X197145518Y-91645812D01*
X197270000Y-91658072D01*
X197588110Y-91656340D01*
X197562481Y-91666956D01*
X197369706Y-91795764D01*
X197205764Y-91959706D01*
X197076956Y-92152481D01*
X196988231Y-92366682D01*
X196943000Y-92594076D01*
X196943000Y-92825924D01*
X196988231Y-93053318D01*
X197076956Y-93267519D01*
X197205764Y-93460294D01*
X197369706Y-93624236D01*
X197562481Y-93753044D01*
X197776682Y-93841769D01*
X198004076Y-93887000D01*
X198235924Y-93887000D01*
X198463318Y-93841769D01*
X198677519Y-93753044D01*
X198870294Y-93624236D01*
X199034236Y-93460294D01*
X199163044Y-93267519D01*
X199251769Y-93053318D01*
X199297000Y-92825924D01*
X199297000Y-92594076D01*
X199251769Y-92366682D01*
X199163044Y-92152481D01*
X199034236Y-91959706D01*
X198870294Y-91795764D01*
X198677519Y-91666956D01*
X198651890Y-91656340D01*
X198970000Y-91658072D01*
X199094482Y-91645812D01*
X199214180Y-91609502D01*
X199324494Y-91550537D01*
X199421185Y-91471185D01*
X199500537Y-91374494D01*
X199559502Y-91264180D01*
X199595812Y-91144482D01*
X199608072Y-91020000D01*
X199605000Y-90455750D01*
X199446250Y-90297000D01*
X198247000Y-90297000D01*
X198247000Y-90317000D01*
X197993000Y-90317000D01*
X197993000Y-90297000D01*
X196793750Y-90297000D01*
X196635000Y-90455750D01*
X196631928Y-91020000D01*
X177617000Y-91020000D01*
X177617000Y-89472339D01*
X177628436Y-89464698D01*
X177729698Y-89363436D01*
X177758720Y-89320000D01*
X196631928Y-89320000D01*
X196635000Y-89884250D01*
X196793750Y-90043000D01*
X197993000Y-90043000D01*
X197993000Y-88843750D01*
X198247000Y-88843750D01*
X198247000Y-90043000D01*
X199446250Y-90043000D01*
X199605000Y-89884250D01*
X199608072Y-89320000D01*
X199595812Y-89195518D01*
X199559502Y-89075820D01*
X199500537Y-88965506D01*
X199421185Y-88868815D01*
X199324494Y-88789463D01*
X199214180Y-88730498D01*
X199094482Y-88694188D01*
X198970000Y-88681928D01*
X198405750Y-88685000D01*
X198247000Y-88843750D01*
X197993000Y-88843750D01*
X197834250Y-88685000D01*
X197270000Y-88681928D01*
X197145518Y-88694188D01*
X197025820Y-88730498D01*
X196915506Y-88789463D01*
X196818815Y-88868815D01*
X196739463Y-88965506D01*
X196680498Y-89075820D01*
X196644188Y-89195518D01*
X196631928Y-89320000D01*
X177758720Y-89320000D01*
X177809259Y-89244364D01*
X177864062Y-89112058D01*
X177892000Y-88971603D01*
X177892000Y-88828397D01*
X177864062Y-88687942D01*
X177809259Y-88555636D01*
X177729698Y-88436564D01*
X177628436Y-88335302D01*
X177509364Y-88255741D01*
X177377058Y-88200938D01*
X177236603Y-88173000D01*
X177093397Y-88173000D01*
X176952942Y-88200938D01*
X176820636Y-88255741D01*
X176701564Y-88335302D01*
X176600302Y-88436564D01*
X176520741Y-88555636D01*
X176465938Y-88687942D01*
X176438000Y-88828397D01*
X176438000Y-88971603D01*
X176465938Y-89112058D01*
X176520741Y-89244364D01*
X176600302Y-89363436D01*
X176701564Y-89464698D01*
X176713001Y-89472340D01*
X176713000Y-120833249D01*
X176607481Y-120876956D01*
X176414706Y-121005764D01*
X176250764Y-121169706D01*
X176121956Y-121362481D01*
X176033231Y-121576682D01*
X175988000Y-121804076D01*
X175988000Y-122035924D01*
X176033231Y-122263318D01*
X176076939Y-122368838D01*
X175591096Y-122854681D01*
X175573842Y-122868841D01*
X175517358Y-122937667D01*
X175475386Y-123016191D01*
X175449540Y-123101393D01*
X175440813Y-123190000D01*
X175443001Y-123212215D01*
X175443000Y-126153470D01*
X175375294Y-126085764D01*
X175182519Y-125956956D01*
X174968318Y-125868231D01*
X174740924Y-125823000D01*
X174509076Y-125823000D01*
X174281682Y-125868231D01*
X174067481Y-125956956D01*
X173874706Y-126085764D01*
X173807000Y-126153470D01*
X173807000Y-123377223D01*
X174176162Y-123008061D01*
X174281682Y-123051769D01*
X174509076Y-123097000D01*
X174740924Y-123097000D01*
X174968318Y-123051769D01*
X175182519Y-122963044D01*
X175375294Y-122834236D01*
X175539236Y-122670294D01*
X175668044Y-122477519D01*
X175756769Y-122263318D01*
X175802000Y-122035924D01*
X175802000Y-121804076D01*
X175756769Y-121576682D01*
X175668044Y-121362481D01*
X175539236Y-121169706D01*
X175375294Y-121005764D01*
X175182519Y-120876956D01*
X174968318Y-120788231D01*
X174740924Y-120743000D01*
X174509076Y-120743000D01*
X174281682Y-120788231D01*
X174067481Y-120876956D01*
X173874706Y-121005764D01*
X173710764Y-121169706D01*
X173581956Y-121362481D01*
X173493231Y-121576682D01*
X173448000Y-121804076D01*
X173448000Y-122035924D01*
X173493231Y-122263318D01*
X173536939Y-122368838D01*
X173051096Y-122854681D01*
X173033842Y-122868841D01*
X172977358Y-122937667D01*
X172935386Y-123016191D01*
X172909540Y-123101393D01*
X172900813Y-123190000D01*
X172903001Y-123212215D01*
X172903000Y-126153470D01*
X172835294Y-126085764D01*
X172642519Y-125956956D01*
X172428318Y-125868231D01*
X172200924Y-125823000D01*
X171969076Y-125823000D01*
X171741682Y-125868231D01*
X171527481Y-125956956D01*
X171334706Y-126085764D01*
X171267000Y-126153470D01*
X171267000Y-123377223D01*
X171636162Y-123008061D01*
X171741682Y-123051769D01*
X171969076Y-123097000D01*
X172200924Y-123097000D01*
X172428318Y-123051769D01*
X172642519Y-122963044D01*
X172835294Y-122834236D01*
X172999236Y-122670294D01*
X173128044Y-122477519D01*
X173216769Y-122263318D01*
X173262000Y-122035924D01*
X173262000Y-121804076D01*
X173216769Y-121576682D01*
X173128044Y-121362481D01*
X172999236Y-121169706D01*
X172835294Y-121005764D01*
X172642519Y-120876956D01*
X172537000Y-120833249D01*
X172537000Y-94552339D01*
X172548436Y-94544698D01*
X172649698Y-94443436D01*
X172729259Y-94324364D01*
X172784062Y-94192058D01*
X172812000Y-94051603D01*
X172812000Y-93908397D01*
X172784062Y-93767942D01*
X172729259Y-93635636D01*
X172649698Y-93516564D01*
X172548436Y-93415302D01*
X172429364Y-93335741D01*
X172297058Y-93280938D01*
X172156603Y-93253000D01*
X172013397Y-93253000D01*
X171872942Y-93280938D01*
X171740636Y-93335741D01*
X171621564Y-93415302D01*
X171520302Y-93516564D01*
X171440741Y-93635636D01*
X171385938Y-93767942D01*
X171358000Y-93908397D01*
X171358000Y-94051603D01*
X171385938Y-94192058D01*
X171440741Y-94324364D01*
X171520302Y-94443436D01*
X171621564Y-94544698D01*
X171633001Y-94552340D01*
X171633000Y-120833249D01*
X171527481Y-120876956D01*
X171334706Y-121005764D01*
X171267000Y-121073470D01*
X171267000Y-104712339D01*
X171278436Y-104704698D01*
X171379698Y-104603436D01*
X171459259Y-104484364D01*
X171514062Y-104352058D01*
X171542000Y-104211603D01*
X171542000Y-104068397D01*
X171514062Y-103927942D01*
X171459259Y-103795636D01*
X171379698Y-103676564D01*
X171278436Y-103575302D01*
X171159364Y-103495741D01*
X171027058Y-103440938D01*
X170886603Y-103413000D01*
X170743397Y-103413000D01*
X170602942Y-103440938D01*
X170470636Y-103495741D01*
X170351564Y-103575302D01*
X170250302Y-103676564D01*
X170170741Y-103795636D01*
X170115938Y-103927942D01*
X170088000Y-104068397D01*
X170088000Y-104211603D01*
X170115938Y-104352058D01*
X170170741Y-104484364D01*
X170250302Y-104603436D01*
X170351564Y-104704698D01*
X170363001Y-104712340D01*
X170363000Y-121073470D01*
X170295294Y-121005764D01*
X170102519Y-120876956D01*
X169888318Y-120788231D01*
X169660924Y-120743000D01*
X169429076Y-120743000D01*
X169201682Y-120788231D01*
X168987481Y-120876956D01*
X168794706Y-121005764D01*
X168630764Y-121169706D01*
X168501956Y-121362481D01*
X168413231Y-121576682D01*
X168368000Y-121804076D01*
X168368000Y-122035924D01*
X168413231Y-122263318D01*
X168456939Y-122368838D01*
X167971096Y-122854681D01*
X167953842Y-122868841D01*
X167897358Y-122937667D01*
X167855386Y-123016191D01*
X167829540Y-123101393D01*
X167820813Y-123190000D01*
X167823001Y-123212215D01*
X167823000Y-126153470D01*
X167755294Y-126085764D01*
X167562519Y-125956956D01*
X167348318Y-125868231D01*
X167120924Y-125823000D01*
X166889076Y-125823000D01*
X166661682Y-125868231D01*
X166447481Y-125956956D01*
X166254706Y-126085764D01*
X166187000Y-126153470D01*
X166187000Y-123377223D01*
X166556162Y-123008061D01*
X166661682Y-123051769D01*
X166889076Y-123097000D01*
X167120924Y-123097000D01*
X167348318Y-123051769D01*
X167562519Y-122963044D01*
X167755294Y-122834236D01*
X167919236Y-122670294D01*
X168048044Y-122477519D01*
X168136769Y-122263318D01*
X168182000Y-122035924D01*
X168182000Y-121804076D01*
X168136769Y-121576682D01*
X168048044Y-121362481D01*
X167919236Y-121169706D01*
X167755294Y-121005764D01*
X167562519Y-120876956D01*
X167348318Y-120788231D01*
X167120924Y-120743000D01*
X166889076Y-120743000D01*
X166661682Y-120788231D01*
X166447481Y-120876956D01*
X166254706Y-121005764D01*
X166090764Y-121169706D01*
X165961956Y-121362481D01*
X165873231Y-121576682D01*
X165828000Y-121804076D01*
X165828000Y-122035924D01*
X165873231Y-122263318D01*
X165916939Y-122368838D01*
X165431096Y-122854681D01*
X165413842Y-122868841D01*
X165357358Y-122937667D01*
X165315386Y-123016191D01*
X165289540Y-123101393D01*
X165280813Y-123190000D01*
X165283001Y-123212215D01*
X165283000Y-126153470D01*
X165215294Y-126085764D01*
X165022519Y-125956956D01*
X164808318Y-125868231D01*
X164580924Y-125823000D01*
X164349076Y-125823000D01*
X164121682Y-125868231D01*
X163907481Y-125956956D01*
X163714706Y-126085764D01*
X163647000Y-126153470D01*
X163647000Y-123377223D01*
X164016162Y-123008061D01*
X164121682Y-123051769D01*
X164349076Y-123097000D01*
X164580924Y-123097000D01*
X164808318Y-123051769D01*
X165022519Y-122963044D01*
X165215294Y-122834236D01*
X165379236Y-122670294D01*
X165508044Y-122477519D01*
X165596769Y-122263318D01*
X165642000Y-122035924D01*
X165642000Y-121804076D01*
X165596769Y-121576682D01*
X165508044Y-121362481D01*
X165379236Y-121169706D01*
X165215294Y-121005764D01*
X165022519Y-120876956D01*
X164917000Y-120833249D01*
X164917000Y-102172339D01*
X164928436Y-102164698D01*
X165029698Y-102063436D01*
X165109259Y-101944364D01*
X165164062Y-101812058D01*
X165192000Y-101671603D01*
X165192000Y-101528397D01*
X165164062Y-101387942D01*
X165109259Y-101255636D01*
X165029698Y-101136564D01*
X164928436Y-101035302D01*
X164809364Y-100955741D01*
X164677058Y-100900938D01*
X164536603Y-100873000D01*
X164393397Y-100873000D01*
X164252942Y-100900938D01*
X164120636Y-100955741D01*
X164001564Y-101035302D01*
X163900302Y-101136564D01*
X163820741Y-101255636D01*
X163765938Y-101387942D01*
X163738000Y-101528397D01*
X163738000Y-101671603D01*
X163765938Y-101812058D01*
X163820741Y-101944364D01*
X163900302Y-102063436D01*
X164001564Y-102164698D01*
X164013001Y-102172340D01*
X164013000Y-120833249D01*
X163907481Y-120876956D01*
X163714706Y-121005764D01*
X163647000Y-121073470D01*
X163647000Y-114872339D01*
X163658436Y-114864698D01*
X163759698Y-114763436D01*
X163839259Y-114644364D01*
X163894062Y-114512058D01*
X163922000Y-114371603D01*
X163922000Y-114228397D01*
X163894062Y-114087942D01*
X163839259Y-113955636D01*
X163759698Y-113836564D01*
X163658436Y-113735302D01*
X163539364Y-113655741D01*
X163407058Y-113600938D01*
X163266603Y-113573000D01*
X163123397Y-113573000D01*
X162982942Y-113600938D01*
X162850636Y-113655741D01*
X162731564Y-113735302D01*
X162630302Y-113836564D01*
X162550741Y-113955636D01*
X162495938Y-114087942D01*
X162468000Y-114228397D01*
X162468000Y-114371603D01*
X162495938Y-114512058D01*
X162550741Y-114644364D01*
X162630302Y-114763436D01*
X162731564Y-114864698D01*
X162743001Y-114872340D01*
X162743000Y-121073470D01*
X162675294Y-121005764D01*
X162482519Y-120876956D01*
X162377000Y-120833249D01*
X162377000Y-107252339D01*
X162388436Y-107244698D01*
X162489698Y-107143436D01*
X162569259Y-107024364D01*
X162624062Y-106892058D01*
X162652000Y-106751603D01*
X162652000Y-106608397D01*
X162624062Y-106467942D01*
X162569259Y-106335636D01*
X162489698Y-106216564D01*
X162388436Y-106115302D01*
X162269364Y-106035741D01*
X162137058Y-105980938D01*
X161996603Y-105953000D01*
X161853397Y-105953000D01*
X161712942Y-105980938D01*
X161580636Y-106035741D01*
X161461564Y-106115302D01*
X161360302Y-106216564D01*
X161280741Y-106335636D01*
X161225938Y-106467942D01*
X161198000Y-106608397D01*
X161198000Y-106751603D01*
X161225938Y-106892058D01*
X161280741Y-107024364D01*
X161360302Y-107143436D01*
X161461564Y-107244698D01*
X161473001Y-107252340D01*
X161473000Y-120833249D01*
X161367481Y-120876956D01*
X161174706Y-121005764D01*
X161012001Y-121168469D01*
X161012001Y-87557205D01*
X161014188Y-87535000D01*
X161005461Y-87446393D01*
X160979615Y-87361191D01*
X160937644Y-87282668D01*
X160881160Y-87213842D01*
X160863912Y-87199687D01*
X159505878Y-85841653D01*
X196342952Y-85841653D01*
X196498962Y-86157214D01*
X196873745Y-86348020D01*
X197278551Y-86462044D01*
X197697824Y-86494902D01*
X198115451Y-86445334D01*
X198515383Y-86315243D01*
X198811038Y-86157214D01*
X198967048Y-85841653D01*
X197655000Y-84529605D01*
X196342952Y-85841653D01*
X159505878Y-85841653D01*
X158057049Y-84392824D01*
X195510098Y-84392824D01*
X195559666Y-84810451D01*
X195689757Y-85210383D01*
X195847786Y-85506038D01*
X196163347Y-85662048D01*
X197475395Y-84350000D01*
X197834605Y-84350000D01*
X199146653Y-85662048D01*
X199462214Y-85506038D01*
X199653020Y-85131255D01*
X199767044Y-84726449D01*
X199799902Y-84307176D01*
X199750334Y-83889549D01*
X199620243Y-83489617D01*
X199462214Y-83193962D01*
X199146653Y-83037952D01*
X197834605Y-84350000D01*
X197475395Y-84350000D01*
X196163347Y-83037952D01*
X195847786Y-83193962D01*
X195656980Y-83568745D01*
X195542956Y-83973551D01*
X195510098Y-84392824D01*
X158057049Y-84392824D01*
X156522572Y-82858347D01*
X196342952Y-82858347D01*
X197655000Y-84170395D01*
X198967048Y-82858347D01*
X198811038Y-82542786D01*
X198436255Y-82351980D01*
X198031449Y-82237956D01*
X197612176Y-82205098D01*
X197194549Y-82254666D01*
X196794617Y-82384757D01*
X196498962Y-82542786D01*
X196342952Y-82858347D01*
X156522572Y-82858347D01*
X154144224Y-80480000D01*
X193816418Y-80480000D01*
X193816418Y-82080000D01*
X193822732Y-82144103D01*
X193841430Y-82205743D01*
X193871794Y-82262550D01*
X193912657Y-82312343D01*
X193962450Y-82353206D01*
X194019257Y-82383570D01*
X194080897Y-82402268D01*
X194145000Y-82408582D01*
X195745000Y-82408582D01*
X195809103Y-82402268D01*
X195870743Y-82383570D01*
X195927550Y-82353206D01*
X195977343Y-82312343D01*
X196018206Y-82262550D01*
X196048570Y-82205743D01*
X196067268Y-82144103D01*
X196073582Y-82080000D01*
X196073582Y-80480000D01*
X196067268Y-80415897D01*
X196048570Y-80354257D01*
X196018206Y-80297450D01*
X195977343Y-80247657D01*
X195927550Y-80206794D01*
X195870743Y-80176430D01*
X195809103Y-80157732D01*
X195745000Y-80151418D01*
X194145000Y-80151418D01*
X194080897Y-80157732D01*
X194019257Y-80176430D01*
X193962450Y-80206794D01*
X193912657Y-80247657D01*
X193871794Y-80297450D01*
X193841430Y-80354257D01*
X193822732Y-80415897D01*
X193816418Y-80480000D01*
X154144224Y-80480000D01*
X150333224Y-76669000D01*
X193818000Y-76669000D01*
X193818000Y-76891000D01*
X193861310Y-77108734D01*
X193946266Y-77313835D01*
X194069602Y-77498421D01*
X194226579Y-77655398D01*
X194411165Y-77778734D01*
X194414221Y-77780000D01*
X194411165Y-77781266D01*
X194226579Y-77904602D01*
X194069602Y-78061579D01*
X193946266Y-78246165D01*
X193861310Y-78451266D01*
X193818000Y-78669000D01*
X193818000Y-78891000D01*
X193861310Y-79108734D01*
X193946266Y-79313835D01*
X194069602Y-79498421D01*
X194226579Y-79655398D01*
X194411165Y-79778734D01*
X194616266Y-79863690D01*
X194834000Y-79907000D01*
X195056000Y-79907000D01*
X195273734Y-79863690D01*
X195478835Y-79778734D01*
X195663421Y-79655398D01*
X195820398Y-79498421D01*
X195943734Y-79313835D01*
X196028690Y-79108734D01*
X196072000Y-78891000D01*
X196072000Y-78669000D01*
X196028690Y-78451266D01*
X195943734Y-78246165D01*
X195820398Y-78061579D01*
X195663421Y-77904602D01*
X195478835Y-77781266D01*
X195475779Y-77780000D01*
X195478835Y-77778734D01*
X195663421Y-77655398D01*
X195820398Y-77498421D01*
X195943734Y-77313835D01*
X196028690Y-77108734D01*
X196072000Y-76891000D01*
X196072000Y-76669000D01*
X196028690Y-76451266D01*
X195943734Y-76246165D01*
X195820398Y-76061579D01*
X195663421Y-75904602D01*
X195478835Y-75781266D01*
X195273734Y-75696310D01*
X195232381Y-75688084D01*
X195295130Y-75678787D01*
X195561292Y-75583603D01*
X195686514Y-75516671D01*
X195758097Y-75272702D01*
X194945000Y-74459605D01*
X194131903Y-75272702D01*
X194203486Y-75516671D01*
X194458996Y-75637571D01*
X194659233Y-75687763D01*
X194616266Y-75696310D01*
X194411165Y-75781266D01*
X194226579Y-75904602D01*
X194069602Y-76061579D01*
X193946266Y-76246165D01*
X193861310Y-76451266D01*
X193818000Y-76669000D01*
X150333224Y-76669000D01*
X150313061Y-76648838D01*
X150356769Y-76543318D01*
X150402000Y-76315924D01*
X150402000Y-76084076D01*
X150356769Y-75856682D01*
X150268044Y-75642481D01*
X150139236Y-75449706D01*
X149975294Y-75285764D01*
X149782519Y-75156956D01*
X149568318Y-75068231D01*
X149340924Y-75023000D01*
X149109076Y-75023000D01*
X148881682Y-75068231D01*
X148667481Y-75156956D01*
X148474706Y-75285764D01*
X148310764Y-75449706D01*
X148181956Y-75642481D01*
X148093231Y-75856682D01*
X148048000Y-76084076D01*
X148048000Y-76315924D01*
X148093231Y-76543318D01*
X148181956Y-76757519D01*
X148310764Y-76950294D01*
X148474706Y-77114236D01*
X148667481Y-77243044D01*
X148881682Y-77331769D01*
X149109076Y-77377000D01*
X149340924Y-77377000D01*
X149568318Y-77331769D01*
X149673838Y-77288061D01*
X160108002Y-87722227D01*
X160108001Y-120987527D01*
X159942519Y-120876956D01*
X159728318Y-120788231D01*
X159500924Y-120743000D01*
X159269076Y-120743000D01*
X159041682Y-120788231D01*
X158827481Y-120876956D01*
X158634706Y-121005764D01*
X158470764Y-121169706D01*
X158341956Y-121362481D01*
X158253231Y-121576682D01*
X158208000Y-121804076D01*
X158208000Y-122035924D01*
X158253231Y-122263318D01*
X158296939Y-122368838D01*
X157811096Y-122854681D01*
X157793842Y-122868841D01*
X157737358Y-122937667D01*
X157695386Y-123016191D01*
X157669540Y-123101393D01*
X157660813Y-123190000D01*
X157663001Y-123212215D01*
X157663000Y-126153470D01*
X157595294Y-126085764D01*
X157402519Y-125956956D01*
X157188318Y-125868231D01*
X156960924Y-125823000D01*
X156729076Y-125823000D01*
X156501682Y-125868231D01*
X156287481Y-125956956D01*
X156094706Y-126085764D01*
X156027000Y-126153470D01*
X156027000Y-123377223D01*
X156396162Y-123008061D01*
X156501682Y-123051769D01*
X156729076Y-123097000D01*
X156960924Y-123097000D01*
X157188318Y-123051769D01*
X157402519Y-122963044D01*
X157595294Y-122834236D01*
X157759236Y-122670294D01*
X157888044Y-122477519D01*
X157976769Y-122263318D01*
X158022000Y-122035924D01*
X158022000Y-121804076D01*
X157976769Y-121576682D01*
X157888044Y-121362481D01*
X157759236Y-121169706D01*
X157595294Y-121005764D01*
X157402519Y-120876956D01*
X157188318Y-120788231D01*
X156960924Y-120743000D01*
X156729076Y-120743000D01*
X156501682Y-120788231D01*
X156287481Y-120876956D01*
X156094706Y-121005764D01*
X155930764Y-121169706D01*
X155801956Y-121362481D01*
X155713231Y-121576682D01*
X155668000Y-121804076D01*
X155668000Y-122035924D01*
X155713231Y-122263318D01*
X155756939Y-122368838D01*
X155271096Y-122854681D01*
X155253842Y-122868841D01*
X155197358Y-122937667D01*
X155155386Y-123016191D01*
X155129540Y-123101393D01*
X155120813Y-123190000D01*
X155123001Y-123212215D01*
X155123000Y-126153470D01*
X155055294Y-126085764D01*
X154862519Y-125956956D01*
X154648318Y-125868231D01*
X154420924Y-125823000D01*
X154189076Y-125823000D01*
X153961682Y-125868231D01*
X153747481Y-125956956D01*
X153554706Y-126085764D01*
X153487000Y-126153470D01*
X153487000Y-123377223D01*
X153856162Y-123008061D01*
X153961682Y-123051769D01*
X154189076Y-123097000D01*
X154420924Y-123097000D01*
X154648318Y-123051769D01*
X154862519Y-122963044D01*
X155055294Y-122834236D01*
X155219236Y-122670294D01*
X155348044Y-122477519D01*
X155436769Y-122263318D01*
X155482000Y-122035924D01*
X155482000Y-121804076D01*
X155436769Y-121576682D01*
X155348044Y-121362481D01*
X155219236Y-121169706D01*
X155055294Y-121005764D01*
X154862519Y-120876956D01*
X154757000Y-120833249D01*
X154757000Y-114322205D01*
X154759187Y-114300000D01*
X154750460Y-114211392D01*
X154724614Y-114126190D01*
X154682642Y-114047666D01*
X154626159Y-113978841D01*
X154608905Y-113964681D01*
X150313061Y-109668838D01*
X150356769Y-109563318D01*
X150402000Y-109335924D01*
X150402000Y-109104076D01*
X150356769Y-108876682D01*
X150268044Y-108662481D01*
X150139236Y-108469706D01*
X149975294Y-108305764D01*
X149782519Y-108176956D01*
X149568318Y-108088231D01*
X149340924Y-108043000D01*
X149109076Y-108043000D01*
X148881682Y-108088231D01*
X148667481Y-108176956D01*
X148474706Y-108305764D01*
X148310764Y-108469706D01*
X148181956Y-108662481D01*
X148093231Y-108876682D01*
X148048000Y-109104076D01*
X148048000Y-109335924D01*
X148093231Y-109563318D01*
X148181956Y-109777519D01*
X148310764Y-109970294D01*
X148474706Y-110134236D01*
X148667481Y-110263044D01*
X148881682Y-110351769D01*
X149109076Y-110397000D01*
X149340924Y-110397000D01*
X149568318Y-110351769D01*
X149673838Y-110308061D01*
X153853001Y-114487225D01*
X153853000Y-120833249D01*
X153747481Y-120876956D01*
X153554706Y-121005764D01*
X153392001Y-121168469D01*
X153392001Y-115497206D01*
X153394188Y-115475001D01*
X153385461Y-115386393D01*
X153359615Y-115301191D01*
X153317643Y-115222667D01*
X153310724Y-115214236D01*
X153261160Y-115153842D01*
X153243906Y-115139682D01*
X150313061Y-112208838D01*
X150356769Y-112103318D01*
X150402000Y-111875924D01*
X150402000Y-111644076D01*
X150356769Y-111416682D01*
X150268044Y-111202481D01*
X150139236Y-111009706D01*
X149975294Y-110845764D01*
X149782519Y-110716956D01*
X149568318Y-110628231D01*
X149340924Y-110583000D01*
X149109076Y-110583000D01*
X148881682Y-110628231D01*
X148667481Y-110716956D01*
X148474706Y-110845764D01*
X148310764Y-111009706D01*
X148181956Y-111202481D01*
X148093231Y-111416682D01*
X148048000Y-111644076D01*
X148048000Y-111875924D01*
X148093231Y-112103318D01*
X148181956Y-112317519D01*
X148310764Y-112510294D01*
X148474706Y-112674236D01*
X148667481Y-112803044D01*
X148881682Y-112891769D01*
X149109076Y-112937000D01*
X149340924Y-112937000D01*
X149568318Y-112891769D01*
X149673838Y-112848061D01*
X152488002Y-115662226D01*
X152488001Y-120987528D01*
X152322519Y-120876956D01*
X152108318Y-120788231D01*
X151880924Y-120743000D01*
X151649076Y-120743000D01*
X151421682Y-120788231D01*
X151207481Y-120876956D01*
X151014706Y-121005764D01*
X150850764Y-121169706D01*
X150721956Y-121362481D01*
X150633231Y-121576682D01*
X150588000Y-121804076D01*
X150588000Y-122035924D01*
X150633231Y-122263318D01*
X150676939Y-122368838D01*
X150191096Y-122854681D01*
X150173842Y-122868841D01*
X150117358Y-122937667D01*
X150075386Y-123016191D01*
X150049540Y-123101393D01*
X150040813Y-123190000D01*
X150043001Y-123212215D01*
X150043001Y-123281418D01*
X148375000Y-123281418D01*
X148310897Y-123287732D01*
X148249257Y-123306430D01*
X148192450Y-123336794D01*
X148142657Y-123377657D01*
X148101794Y-123427450D01*
X148071430Y-123484257D01*
X148052732Y-123545897D01*
X148046418Y-123610000D01*
X148046418Y-125310000D01*
X148052732Y-125374103D01*
X148071430Y-125435743D01*
X148101794Y-125492550D01*
X148142657Y-125542343D01*
X148192450Y-125583206D01*
X148249257Y-125613570D01*
X148310897Y-125632268D01*
X148375000Y-125638582D01*
X150043000Y-125638582D01*
X150043000Y-126153470D01*
X149975294Y-126085764D01*
X149782519Y-125956956D01*
X149568318Y-125868231D01*
X149340924Y-125823000D01*
X149109076Y-125823000D01*
X148881682Y-125868231D01*
X148667481Y-125956956D01*
X148474706Y-126085764D01*
X148310764Y-126249706D01*
X148181956Y-126442481D01*
X148093231Y-126656682D01*
X148048000Y-126884076D01*
X148048000Y-127115924D01*
X148093231Y-127343318D01*
X148181956Y-127557519D01*
X148310764Y-127750294D01*
X148474706Y-127914236D01*
X148667481Y-128043044D01*
X148823805Y-128107796D01*
X144391070Y-129092848D01*
X144373892Y-129094540D01*
X144347693Y-129102487D01*
X144342772Y-129103581D01*
X144326504Y-129108915D01*
X144288690Y-129120386D01*
X144284198Y-129122787D01*
X144279370Y-129124370D01*
X144245007Y-129143735D01*
X144210166Y-129162358D01*
X144206232Y-129165586D01*
X144201802Y-129168083D01*
X144171854Y-129193801D01*
X144158589Y-129204687D01*
X144155017Y-129208259D01*
X144134254Y-129226089D01*
X144123608Y-129239668D01*
X143841095Y-129522182D01*
X143823842Y-129536341D01*
X143767358Y-129605167D01*
X143725386Y-129683691D01*
X143699540Y-129768893D01*
X143690813Y-129857500D01*
X143693001Y-129879715D01*
X143693001Y-130048000D01*
X139517000Y-130048000D01*
X139517000Y-130044723D01*
X139609041Y-129952683D01*
X145168941Y-128717151D01*
X145186107Y-128715460D01*
X145212288Y-128707518D01*
X145217229Y-128706420D01*
X145233562Y-128701065D01*
X145271309Y-128689614D01*
X145275793Y-128687217D01*
X145280631Y-128685631D01*
X145315057Y-128666230D01*
X145349833Y-128647642D01*
X145353760Y-128644419D01*
X145358198Y-128641918D01*
X145388194Y-128616159D01*
X145401410Y-128605313D01*
X145404969Y-128601754D01*
X145425746Y-128583912D01*
X145436399Y-128570325D01*
X145718906Y-128287818D01*
X145736159Y-128273659D01*
X145792643Y-128204833D01*
X145834614Y-128126310D01*
X145835556Y-128123206D01*
X145860460Y-128041108D01*
X145869187Y-127952500D01*
X145867000Y-127930295D01*
X145867000Y-127846530D01*
X145934706Y-127914236D01*
X146127481Y-128043044D01*
X146341682Y-128131769D01*
X146569076Y-128177000D01*
X146800924Y-128177000D01*
X147028318Y-128131769D01*
X147242519Y-128043044D01*
X147435294Y-127914236D01*
X147599236Y-127750294D01*
X147728044Y-127557519D01*
X147816769Y-127343318D01*
X147862000Y-127115924D01*
X147862000Y-126884076D01*
X147816769Y-126656682D01*
X147728044Y-126442481D01*
X147599236Y-126249706D01*
X147435294Y-126085764D01*
X147242519Y-125956956D01*
X147028318Y-125868231D01*
X146800924Y-125823000D01*
X146569076Y-125823000D01*
X146341682Y-125868231D01*
X146127481Y-125956956D01*
X145934706Y-126085764D01*
X145867000Y-126153470D01*
X145867000Y-123377223D01*
X146236162Y-123008061D01*
X146341682Y-123051769D01*
X146569076Y-123097000D01*
X146800924Y-123097000D01*
X147028318Y-123051769D01*
X147242519Y-122963044D01*
X147435294Y-122834236D01*
X147599236Y-122670294D01*
X147728044Y-122477519D01*
X147816769Y-122263318D01*
X147862000Y-122035924D01*
X147862000Y-121804076D01*
X148048000Y-121804076D01*
X148048000Y-122035924D01*
X148093231Y-122263318D01*
X148181956Y-122477519D01*
X148310764Y-122670294D01*
X148474706Y-122834236D01*
X148667481Y-122963044D01*
X148881682Y-123051769D01*
X149109076Y-123097000D01*
X149340924Y-123097000D01*
X149568318Y-123051769D01*
X149782519Y-122963044D01*
X149975294Y-122834236D01*
X150139236Y-122670294D01*
X150268044Y-122477519D01*
X150356769Y-122263318D01*
X150402000Y-122035924D01*
X150402000Y-121804076D01*
X150356769Y-121576682D01*
X150268044Y-121362481D01*
X150139236Y-121169706D01*
X149975294Y-121005764D01*
X149782519Y-120876956D01*
X149568318Y-120788231D01*
X149340924Y-120743000D01*
X149109076Y-120743000D01*
X148881682Y-120788231D01*
X148667481Y-120876956D01*
X148474706Y-121005764D01*
X148310764Y-121169706D01*
X148181956Y-121362481D01*
X148093231Y-121576682D01*
X148048000Y-121804076D01*
X147862000Y-121804076D01*
X147816769Y-121576682D01*
X147728044Y-121362481D01*
X147599236Y-121169706D01*
X147435294Y-121005764D01*
X147242519Y-120876956D01*
X147028318Y-120788231D01*
X146800924Y-120743000D01*
X146569076Y-120743000D01*
X146341682Y-120788231D01*
X146127481Y-120876956D01*
X145934706Y-121005764D01*
X145770764Y-121169706D01*
X145641956Y-121362481D01*
X145553231Y-121576682D01*
X145508000Y-121804076D01*
X145508000Y-122035924D01*
X145553231Y-122263318D01*
X145596939Y-122368838D01*
X145111096Y-122854681D01*
X145093842Y-122868841D01*
X145037358Y-122937667D01*
X144995386Y-123016191D01*
X144969540Y-123101393D01*
X144960813Y-123190000D01*
X144963001Y-123212215D01*
X144963000Y-126153470D01*
X144895294Y-126085764D01*
X144702519Y-125956956D01*
X144488318Y-125868231D01*
X144260924Y-125823000D01*
X144029076Y-125823000D01*
X143801682Y-125868231D01*
X143587481Y-125956956D01*
X143394706Y-126085764D01*
X143327000Y-126153470D01*
X143327000Y-123377223D01*
X143696162Y-123008061D01*
X143801682Y-123051769D01*
X144029076Y-123097000D01*
X144260924Y-123097000D01*
X144488318Y-123051769D01*
X144702519Y-122963044D01*
X144895294Y-122834236D01*
X145059236Y-122670294D01*
X145188044Y-122477519D01*
X145276769Y-122263318D01*
X145322000Y-122035924D01*
X145322000Y-121804076D01*
X145276769Y-121576682D01*
X145188044Y-121362481D01*
X145059236Y-121169706D01*
X144895294Y-121005764D01*
X144702519Y-120876956D01*
X144488318Y-120788231D01*
X144260924Y-120743000D01*
X144029076Y-120743000D01*
X143801682Y-120788231D01*
X143587481Y-120876956D01*
X143394706Y-121005764D01*
X143230764Y-121169706D01*
X143101956Y-121362481D01*
X143013231Y-121576682D01*
X142968000Y-121804076D01*
X142968000Y-122035924D01*
X143013231Y-122263318D01*
X143056939Y-122368838D01*
X142571096Y-122854681D01*
X142553842Y-122868841D01*
X142497358Y-122937667D01*
X142455386Y-123016191D01*
X142429540Y-123101393D01*
X142420813Y-123190000D01*
X142423001Y-123212215D01*
X142423000Y-126153470D01*
X142355294Y-126085764D01*
X142162519Y-125956956D01*
X141948318Y-125868231D01*
X141720924Y-125823000D01*
X141489076Y-125823000D01*
X141261682Y-125868231D01*
X141047481Y-125956956D01*
X140854706Y-126085764D01*
X140787000Y-126153470D01*
X140787000Y-123377223D01*
X141156162Y-123008061D01*
X141261682Y-123051769D01*
X141489076Y-123097000D01*
X141720924Y-123097000D01*
X141948318Y-123051769D01*
X142162519Y-122963044D01*
X142355294Y-122834236D01*
X142519236Y-122670294D01*
X142648044Y-122477519D01*
X142736769Y-122263318D01*
X142782000Y-122035924D01*
X142782000Y-121804076D01*
X142736769Y-121576682D01*
X142648044Y-121362481D01*
X142519236Y-121169706D01*
X142355294Y-121005764D01*
X142162519Y-120876956D01*
X141948318Y-120788231D01*
X141720924Y-120743000D01*
X141489076Y-120743000D01*
X141261682Y-120788231D01*
X141047481Y-120876956D01*
X140854706Y-121005764D01*
X140690764Y-121169706D01*
X140561956Y-121362481D01*
X140473231Y-121576682D01*
X140428000Y-121804076D01*
X140428000Y-122035924D01*
X140473231Y-122263318D01*
X140516939Y-122368838D01*
X140031096Y-122854681D01*
X140013842Y-122868841D01*
X139957358Y-122937667D01*
X139915386Y-123016191D01*
X139889540Y-123101393D01*
X139880813Y-123190000D01*
X139883001Y-123212215D01*
X139883000Y-126153470D01*
X139815294Y-126085764D01*
X139622519Y-125956956D01*
X139408318Y-125868231D01*
X139180924Y-125823000D01*
X138949076Y-125823000D01*
X138721682Y-125868231D01*
X138507481Y-125956956D01*
X138314706Y-126085764D01*
X138247000Y-126153470D01*
X138247000Y-123377223D01*
X138616162Y-123008061D01*
X138721682Y-123051769D01*
X138949076Y-123097000D01*
X139180924Y-123097000D01*
X139408318Y-123051769D01*
X139622519Y-122963044D01*
X139815294Y-122834236D01*
X139979236Y-122670294D01*
X140108044Y-122477519D01*
X140196769Y-122263318D01*
X140242000Y-122035924D01*
X140242000Y-121804076D01*
X140196769Y-121576682D01*
X140108044Y-121362481D01*
X139979236Y-121169706D01*
X139815294Y-121005764D01*
X139622519Y-120876956D01*
X139408318Y-120788231D01*
X139180924Y-120743000D01*
X138949076Y-120743000D01*
X138721682Y-120788231D01*
X138507481Y-120876956D01*
X138314706Y-121005764D01*
X138150764Y-121169706D01*
X138021956Y-121362481D01*
X137933231Y-121576682D01*
X137888000Y-121804076D01*
X137888000Y-122035924D01*
X137933231Y-122263318D01*
X137976939Y-122368838D01*
X137491096Y-122854681D01*
X137473842Y-122868841D01*
X137417358Y-122937667D01*
X137375386Y-123016191D01*
X137349540Y-123101393D01*
X137340813Y-123190000D01*
X137343001Y-123212215D01*
X137343000Y-126153470D01*
X137275294Y-126085764D01*
X137082519Y-125956956D01*
X136868318Y-125868231D01*
X136640924Y-125823000D01*
X136409076Y-125823000D01*
X136181682Y-125868231D01*
X135967481Y-125956956D01*
X135774706Y-126085764D01*
X135707000Y-126153470D01*
X135707000Y-123377223D01*
X136076162Y-123008061D01*
X136181682Y-123051769D01*
X136409076Y-123097000D01*
X136640924Y-123097000D01*
X136868318Y-123051769D01*
X137082519Y-122963044D01*
X137275294Y-122834236D01*
X137439236Y-122670294D01*
X137568044Y-122477519D01*
X137656769Y-122263318D01*
X137702000Y-122035924D01*
X137702000Y-121804076D01*
X137656769Y-121576682D01*
X137568044Y-121362481D01*
X137439236Y-121169706D01*
X137275294Y-121005764D01*
X137082519Y-120876956D01*
X136868318Y-120788231D01*
X136640924Y-120743000D01*
X136409076Y-120743000D01*
X136181682Y-120788231D01*
X135967481Y-120876956D01*
X135774706Y-121005764D01*
X135610764Y-121169706D01*
X135481956Y-121362481D01*
X135393231Y-121576682D01*
X135348000Y-121804076D01*
X135348000Y-122035924D01*
X135393231Y-122263318D01*
X135436939Y-122368838D01*
X134951096Y-122854681D01*
X134933842Y-122868841D01*
X134877358Y-122937667D01*
X134835386Y-123016191D01*
X134809540Y-123101393D01*
X134800813Y-123190000D01*
X134803001Y-123212215D01*
X134803000Y-126153470D01*
X134735294Y-126085764D01*
X134542519Y-125956956D01*
X134328318Y-125868231D01*
X134100924Y-125823000D01*
X133869076Y-125823000D01*
X133641682Y-125868231D01*
X133427481Y-125956956D01*
X133234706Y-126085764D01*
X133167000Y-126153470D01*
X133167000Y-123377223D01*
X133536162Y-123008061D01*
X133641682Y-123051769D01*
X133869076Y-123097000D01*
X134100924Y-123097000D01*
X134328318Y-123051769D01*
X134542519Y-122963044D01*
X134735294Y-122834236D01*
X134899236Y-122670294D01*
X135028044Y-122477519D01*
X135116769Y-122263318D01*
X135162000Y-122035924D01*
X135162000Y-121804076D01*
X135116769Y-121576682D01*
X135028044Y-121362481D01*
X134899236Y-121169706D01*
X134735294Y-121005764D01*
X134542519Y-120876956D01*
X134437000Y-120833249D01*
X134437000Y-119264076D01*
X148048000Y-119264076D01*
X148048000Y-119495924D01*
X148093231Y-119723318D01*
X148181956Y-119937519D01*
X148310764Y-120130294D01*
X148474706Y-120294236D01*
X148667481Y-120423044D01*
X148881682Y-120511769D01*
X149109076Y-120557000D01*
X149340924Y-120557000D01*
X149568318Y-120511769D01*
X149782519Y-120423044D01*
X149975294Y-120294236D01*
X150139236Y-120130294D01*
X150268044Y-119937519D01*
X150356769Y-119723318D01*
X150402000Y-119495924D01*
X150402000Y-119264076D01*
X150356769Y-119036682D01*
X150268044Y-118822481D01*
X150139236Y-118629706D01*
X149975294Y-118465764D01*
X149782519Y-118336956D01*
X149568318Y-118248231D01*
X149340924Y-118203000D01*
X149109076Y-118203000D01*
X148881682Y-118248231D01*
X148667481Y-118336956D01*
X148474706Y-118465764D01*
X148310764Y-118629706D01*
X148181956Y-118822481D01*
X148093231Y-119036682D01*
X148048000Y-119264076D01*
X134437000Y-119264076D01*
X134437000Y-116724076D01*
X148048000Y-116724076D01*
X148048000Y-116955924D01*
X148093231Y-117183318D01*
X148181956Y-117397519D01*
X148310764Y-117590294D01*
X148474706Y-117754236D01*
X148667481Y-117883044D01*
X148881682Y-117971769D01*
X149109076Y-118017000D01*
X149340924Y-118017000D01*
X149568318Y-117971769D01*
X149782519Y-117883044D01*
X149975294Y-117754236D01*
X150139236Y-117590294D01*
X150268044Y-117397519D01*
X150356769Y-117183318D01*
X150402000Y-116955924D01*
X150402000Y-116724076D01*
X150356769Y-116496682D01*
X150268044Y-116282481D01*
X150139236Y-116089706D01*
X149975294Y-115925764D01*
X149782519Y-115796956D01*
X149568318Y-115708231D01*
X149340924Y-115663000D01*
X149109076Y-115663000D01*
X148881682Y-115708231D01*
X148667481Y-115796956D01*
X148474706Y-115925764D01*
X148310764Y-116089706D01*
X148181956Y-116282481D01*
X148093231Y-116496682D01*
X148048000Y-116724076D01*
X134437000Y-116724076D01*
X134437000Y-114184076D01*
X148048000Y-114184076D01*
X148048000Y-114415924D01*
X148093231Y-114643318D01*
X148181956Y-114857519D01*
X148310764Y-115050294D01*
X148474706Y-115214236D01*
X148667481Y-115343044D01*
X148881682Y-115431769D01*
X149109076Y-115477000D01*
X149340924Y-115477000D01*
X149568318Y-115431769D01*
X149782519Y-115343044D01*
X149975294Y-115214236D01*
X150139236Y-115050294D01*
X150268044Y-114857519D01*
X150356769Y-114643318D01*
X150402000Y-114415924D01*
X150402000Y-114184076D01*
X150356769Y-113956682D01*
X150268044Y-113742481D01*
X150139236Y-113549706D01*
X149975294Y-113385764D01*
X149782519Y-113256956D01*
X149568318Y-113168231D01*
X149340924Y-113123000D01*
X149109076Y-113123000D01*
X148881682Y-113168231D01*
X148667481Y-113256956D01*
X148474706Y-113385764D01*
X148310764Y-113549706D01*
X148181956Y-113742481D01*
X148093231Y-113956682D01*
X148048000Y-114184076D01*
X134437000Y-114184076D01*
X134437000Y-106564076D01*
X148048000Y-106564076D01*
X148048000Y-106795924D01*
X148093231Y-107023318D01*
X148181956Y-107237519D01*
X148310764Y-107430294D01*
X148474706Y-107594236D01*
X148667481Y-107723044D01*
X148881682Y-107811769D01*
X149109076Y-107857000D01*
X149340924Y-107857000D01*
X149568318Y-107811769D01*
X149782519Y-107723044D01*
X149975294Y-107594236D01*
X150139236Y-107430294D01*
X150268044Y-107237519D01*
X150356769Y-107023318D01*
X150402000Y-106795924D01*
X150402000Y-106564076D01*
X150356769Y-106336682D01*
X150268044Y-106122481D01*
X150139236Y-105929706D01*
X149975294Y-105765764D01*
X149782519Y-105636956D01*
X149568318Y-105548231D01*
X149340924Y-105503000D01*
X149109076Y-105503000D01*
X148881682Y-105548231D01*
X148667481Y-105636956D01*
X148474706Y-105765764D01*
X148310764Y-105929706D01*
X148181956Y-106122481D01*
X148093231Y-106336682D01*
X148048000Y-106564076D01*
X134437000Y-106564076D01*
X134437000Y-104024076D01*
X148048000Y-104024076D01*
X148048000Y-104255924D01*
X148093231Y-104483318D01*
X148181956Y-104697519D01*
X148310764Y-104890294D01*
X148474706Y-105054236D01*
X148667481Y-105183044D01*
X148881682Y-105271769D01*
X149109076Y-105317000D01*
X149340924Y-105317000D01*
X149568318Y-105271769D01*
X149782519Y-105183044D01*
X149975294Y-105054236D01*
X150139236Y-104890294D01*
X150268044Y-104697519D01*
X150356769Y-104483318D01*
X150402000Y-104255924D01*
X150402000Y-104024076D01*
X150356769Y-103796682D01*
X150268044Y-103582481D01*
X150139236Y-103389706D01*
X149975294Y-103225764D01*
X149782519Y-103096956D01*
X149568318Y-103008231D01*
X149340924Y-102963000D01*
X149109076Y-102963000D01*
X148881682Y-103008231D01*
X148667481Y-103096956D01*
X148474706Y-103225764D01*
X148310764Y-103389706D01*
X148181956Y-103582481D01*
X148093231Y-103796682D01*
X148048000Y-104024076D01*
X134437000Y-104024076D01*
X134437000Y-101484076D01*
X148048000Y-101484076D01*
X148048000Y-101715924D01*
X148093231Y-101943318D01*
X148181956Y-102157519D01*
X148310764Y-102350294D01*
X148474706Y-102514236D01*
X148667481Y-102643044D01*
X148881682Y-102731769D01*
X149109076Y-102777000D01*
X149340924Y-102777000D01*
X149568318Y-102731769D01*
X149782519Y-102643044D01*
X149975294Y-102514236D01*
X150139236Y-102350294D01*
X150268044Y-102157519D01*
X150356769Y-101943318D01*
X150402000Y-101715924D01*
X150402000Y-101484076D01*
X150356769Y-101256682D01*
X150268044Y-101042481D01*
X150139236Y-100849706D01*
X149975294Y-100685764D01*
X149782519Y-100556956D01*
X149568318Y-100468231D01*
X149340924Y-100423000D01*
X149109076Y-100423000D01*
X148881682Y-100468231D01*
X148667481Y-100556956D01*
X148474706Y-100685764D01*
X148310764Y-100849706D01*
X148181956Y-101042481D01*
X148093231Y-101256682D01*
X148048000Y-101484076D01*
X134437000Y-101484076D01*
X134437000Y-98944076D01*
X148048000Y-98944076D01*
X148048000Y-99175924D01*
X148093231Y-99403318D01*
X148181956Y-99617519D01*
X148310764Y-99810294D01*
X148474706Y-99974236D01*
X148667481Y-100103044D01*
X148881682Y-100191769D01*
X149109076Y-100237000D01*
X149340924Y-100237000D01*
X149568318Y-100191769D01*
X149782519Y-100103044D01*
X149975294Y-99974236D01*
X150139236Y-99810294D01*
X150268044Y-99617519D01*
X150356769Y-99403318D01*
X150402000Y-99175924D01*
X150402000Y-98944076D01*
X150356769Y-98716682D01*
X150268044Y-98502481D01*
X150139236Y-98309706D01*
X149975294Y-98145764D01*
X149782519Y-98016956D01*
X149568318Y-97928231D01*
X149340924Y-97883000D01*
X149109076Y-97883000D01*
X148881682Y-97928231D01*
X148667481Y-98016956D01*
X148474706Y-98145764D01*
X148310764Y-98309706D01*
X148181956Y-98502481D01*
X148093231Y-98716682D01*
X148048000Y-98944076D01*
X134437000Y-98944076D01*
X134437000Y-96404076D01*
X148048000Y-96404076D01*
X148048000Y-96635924D01*
X148093231Y-96863318D01*
X148181956Y-97077519D01*
X148310764Y-97270294D01*
X148474706Y-97434236D01*
X148667481Y-97563044D01*
X148881682Y-97651769D01*
X149109076Y-97697000D01*
X149340924Y-97697000D01*
X149568318Y-97651769D01*
X149782519Y-97563044D01*
X149975294Y-97434236D01*
X150139236Y-97270294D01*
X150268044Y-97077519D01*
X150356769Y-96863318D01*
X150402000Y-96635924D01*
X150402000Y-96404076D01*
X150356769Y-96176682D01*
X150268044Y-95962481D01*
X150139236Y-95769706D01*
X149975294Y-95605764D01*
X149782519Y-95476956D01*
X149568318Y-95388231D01*
X149340924Y-95343000D01*
X149109076Y-95343000D01*
X148881682Y-95388231D01*
X148667481Y-95476956D01*
X148474706Y-95605764D01*
X148310764Y-95769706D01*
X148181956Y-95962481D01*
X148093231Y-96176682D01*
X148048000Y-96404076D01*
X134437000Y-96404076D01*
X134437000Y-91796890D01*
X147783524Y-91796890D01*
X147828175Y-91944099D01*
X147953359Y-92206920D01*
X148127412Y-92440269D01*
X148343645Y-92635178D01*
X148593748Y-92784157D01*
X148832179Y-92868736D01*
X148667481Y-92936956D01*
X148474706Y-93065764D01*
X148310764Y-93229706D01*
X148181956Y-93422481D01*
X148093231Y-93636682D01*
X148048000Y-93864076D01*
X148048000Y-94095924D01*
X148093231Y-94323318D01*
X148181956Y-94537519D01*
X148310764Y-94730294D01*
X148474706Y-94894236D01*
X148667481Y-95023044D01*
X148881682Y-95111769D01*
X149109076Y-95157000D01*
X149340924Y-95157000D01*
X149568318Y-95111769D01*
X149782519Y-95023044D01*
X149975294Y-94894236D01*
X150139236Y-94730294D01*
X150268044Y-94537519D01*
X150356769Y-94323318D01*
X150402000Y-94095924D01*
X150402000Y-93864076D01*
X150356769Y-93636682D01*
X150268044Y-93422481D01*
X150139236Y-93229706D01*
X149975294Y-93065764D01*
X149782519Y-92936956D01*
X149617821Y-92868736D01*
X149856252Y-92784157D01*
X150106355Y-92635178D01*
X150322588Y-92440269D01*
X150496641Y-92206920D01*
X150621825Y-91944099D01*
X150666476Y-91796890D01*
X150545155Y-91567000D01*
X149352000Y-91567000D01*
X149352000Y-91587000D01*
X149098000Y-91587000D01*
X149098000Y-91567000D01*
X147904845Y-91567000D01*
X147783524Y-91796890D01*
X134437000Y-91796890D01*
X134437000Y-91083110D01*
X147783524Y-91083110D01*
X147904845Y-91313000D01*
X149098000Y-91313000D01*
X149098000Y-91293000D01*
X149352000Y-91293000D01*
X149352000Y-91313000D01*
X150545155Y-91313000D01*
X150666476Y-91083110D01*
X150621825Y-90935901D01*
X150496641Y-90673080D01*
X150322588Y-90439731D01*
X150106355Y-90244822D01*
X149856252Y-90095843D01*
X149617821Y-90011264D01*
X149782519Y-89943044D01*
X149975294Y-89814236D01*
X150139236Y-89650294D01*
X150268044Y-89457519D01*
X150356769Y-89243318D01*
X150402000Y-89015924D01*
X150402000Y-88784076D01*
X150356769Y-88556682D01*
X150268044Y-88342481D01*
X150139236Y-88149706D01*
X149975294Y-87985764D01*
X149782519Y-87856956D01*
X149568318Y-87768231D01*
X149340924Y-87723000D01*
X149109076Y-87723000D01*
X148881682Y-87768231D01*
X148667481Y-87856956D01*
X148474706Y-87985764D01*
X148310764Y-88149706D01*
X148181956Y-88342481D01*
X148093231Y-88556682D01*
X148048000Y-88784076D01*
X148048000Y-89015924D01*
X148093231Y-89243318D01*
X148181956Y-89457519D01*
X148310764Y-89650294D01*
X148474706Y-89814236D01*
X148667481Y-89943044D01*
X148832179Y-90011264D01*
X148593748Y-90095843D01*
X148343645Y-90244822D01*
X148127412Y-90439731D01*
X147953359Y-90673080D01*
X147828175Y-90935901D01*
X147783524Y-91083110D01*
X134437000Y-91083110D01*
X134437000Y-86547223D01*
X134740147Y-86244076D01*
X148048000Y-86244076D01*
X148048000Y-86475924D01*
X148093231Y-86703318D01*
X148181956Y-86917519D01*
X148310764Y-87110294D01*
X148474706Y-87274236D01*
X148667481Y-87403044D01*
X148881682Y-87491769D01*
X149109076Y-87537000D01*
X149340924Y-87537000D01*
X149568318Y-87491769D01*
X149782519Y-87403044D01*
X149975294Y-87274236D01*
X150139236Y-87110294D01*
X150268044Y-86917519D01*
X150356769Y-86703318D01*
X150402000Y-86475924D01*
X150402000Y-86244076D01*
X150356769Y-86016682D01*
X150268044Y-85802481D01*
X150139236Y-85609706D01*
X149975294Y-85445764D01*
X149782519Y-85316956D01*
X149568318Y-85228231D01*
X149340924Y-85183000D01*
X149109076Y-85183000D01*
X148881682Y-85228231D01*
X148667481Y-85316956D01*
X148474706Y-85445764D01*
X148310764Y-85609706D01*
X148181956Y-85802481D01*
X148093231Y-86016682D01*
X148048000Y-86244076D01*
X134740147Y-86244076D01*
X137280147Y-83704076D01*
X148048000Y-83704076D01*
X148048000Y-83935924D01*
X148093231Y-84163318D01*
X148181956Y-84377519D01*
X148310764Y-84570294D01*
X148474706Y-84734236D01*
X148667481Y-84863044D01*
X148881682Y-84951769D01*
X149109076Y-84997000D01*
X149340924Y-84997000D01*
X149568318Y-84951769D01*
X149782519Y-84863044D01*
X149975294Y-84734236D01*
X150139236Y-84570294D01*
X150268044Y-84377519D01*
X150356769Y-84163318D01*
X150402000Y-83935924D01*
X150402000Y-83704076D01*
X150356769Y-83476682D01*
X150268044Y-83262481D01*
X150139236Y-83069706D01*
X149975294Y-82905764D01*
X149782519Y-82776956D01*
X149568318Y-82688231D01*
X149340924Y-82643000D01*
X149109076Y-82643000D01*
X148881682Y-82688231D01*
X148667481Y-82776956D01*
X148474706Y-82905764D01*
X148310764Y-83069706D01*
X148181956Y-83262481D01*
X148093231Y-83476682D01*
X148048000Y-83704076D01*
X137280147Y-83704076D01*
X142360147Y-78624076D01*
X148048000Y-78624076D01*
X148048000Y-78855924D01*
X148093231Y-79083318D01*
X148181956Y-79297519D01*
X148310764Y-79490294D01*
X148474706Y-79654236D01*
X148498000Y-79669801D01*
X148498001Y-80350199D01*
X148474706Y-80365764D01*
X148310764Y-80529706D01*
X148181956Y-80722481D01*
X148093231Y-80936682D01*
X148048000Y-81164076D01*
X148048000Y-81395924D01*
X148093231Y-81623318D01*
X148181956Y-81837519D01*
X148310764Y-82030294D01*
X148474706Y-82194236D01*
X148667481Y-82323044D01*
X148881682Y-82411769D01*
X149109076Y-82457000D01*
X149340924Y-82457000D01*
X149568318Y-82411769D01*
X149782519Y-82323044D01*
X149975294Y-82194236D01*
X150139236Y-82030294D01*
X150268044Y-81837519D01*
X150356769Y-81623318D01*
X150402000Y-81395924D01*
X150402000Y-81164076D01*
X150356769Y-80936682D01*
X150268044Y-80722481D01*
X150139236Y-80529706D01*
X149975294Y-80365764D01*
X149952000Y-80350199D01*
X149952000Y-79669801D01*
X149975294Y-79654236D01*
X150139236Y-79490294D01*
X150268044Y-79297519D01*
X150356769Y-79083318D01*
X150402000Y-78855924D01*
X150402000Y-78624076D01*
X150356769Y-78396682D01*
X150268044Y-78182481D01*
X150139236Y-77989706D01*
X149975294Y-77825764D01*
X149782519Y-77696956D01*
X149568318Y-77608231D01*
X149340924Y-77563000D01*
X149109076Y-77563000D01*
X148881682Y-77608231D01*
X148667481Y-77696956D01*
X148474706Y-77825764D01*
X148310764Y-77989706D01*
X148181956Y-78182481D01*
X148093231Y-78396682D01*
X148048000Y-78624076D01*
X142360147Y-78624076D01*
X147440147Y-73544076D01*
X148048000Y-73544076D01*
X148048000Y-73775924D01*
X148093231Y-74003318D01*
X148181956Y-74217519D01*
X148310764Y-74410294D01*
X148474706Y-74574236D01*
X148667481Y-74703044D01*
X148881682Y-74791769D01*
X149109076Y-74837000D01*
X149340924Y-74837000D01*
X149568318Y-74791769D01*
X149782519Y-74703044D01*
X149975294Y-74574236D01*
X150139236Y-74410294D01*
X150179181Y-74350512D01*
X193504783Y-74350512D01*
X193546213Y-74630130D01*
X193641397Y-74896292D01*
X193708329Y-75021514D01*
X193952298Y-75093097D01*
X194765395Y-74280000D01*
X195124605Y-74280000D01*
X195937702Y-75093097D01*
X196181671Y-75021514D01*
X196302571Y-74766004D01*
X196371300Y-74491816D01*
X196385217Y-74209488D01*
X196343787Y-73929870D01*
X196248603Y-73663708D01*
X196181671Y-73538486D01*
X195937702Y-73466903D01*
X195124605Y-74280000D01*
X194765395Y-74280000D01*
X193952298Y-73466903D01*
X193708329Y-73538486D01*
X193587429Y-73793996D01*
X193518700Y-74068184D01*
X193504783Y-74350512D01*
X150179181Y-74350512D01*
X150268044Y-74217519D01*
X150356769Y-74003318D01*
X150402000Y-73775924D01*
X150402000Y-73544076D01*
X150356769Y-73316682D01*
X150344598Y-73287298D01*
X194131903Y-73287298D01*
X194945000Y-74100395D01*
X195758097Y-73287298D01*
X195686514Y-73043329D01*
X195431004Y-72922429D01*
X195156816Y-72853700D01*
X194874488Y-72839783D01*
X194594870Y-72881213D01*
X194328708Y-72976397D01*
X194203486Y-73043329D01*
X194131903Y-73287298D01*
X150344598Y-73287298D01*
X150268044Y-73102481D01*
X150139236Y-72909706D01*
X149975294Y-72745764D01*
X149909278Y-72701653D01*
X196342952Y-72701653D01*
X196498962Y-73017214D01*
X196873745Y-73208020D01*
X197278551Y-73322044D01*
X197697824Y-73354902D01*
X198115451Y-73305334D01*
X198515383Y-73175243D01*
X198811038Y-73017214D01*
X198967048Y-72701653D01*
X197655000Y-71389605D01*
X196342952Y-72701653D01*
X149909278Y-72701653D01*
X149782519Y-72616956D01*
X149568318Y-72528231D01*
X149340924Y-72483000D01*
X149109076Y-72483000D01*
X148881682Y-72528231D01*
X148667481Y-72616956D01*
X148474706Y-72745764D01*
X148310764Y-72909706D01*
X148181956Y-73102481D01*
X148093231Y-73316682D01*
X148048000Y-73544076D01*
X147440147Y-73544076D01*
X148776163Y-72208061D01*
X148881682Y-72251769D01*
X149109076Y-72297000D01*
X149340924Y-72297000D01*
X149568318Y-72251769D01*
X149782519Y-72163044D01*
X149975294Y-72034236D01*
X150139236Y-71870294D01*
X150268044Y-71677519D01*
X150356769Y-71463318D01*
X150398638Y-71252824D01*
X195510098Y-71252824D01*
X195559666Y-71670451D01*
X195689757Y-72070383D01*
X195847786Y-72366038D01*
X196163347Y-72522048D01*
X197475395Y-71210000D01*
X197834605Y-71210000D01*
X199146653Y-72522048D01*
X199462214Y-72366038D01*
X199653020Y-71991255D01*
X199767044Y-71586449D01*
X199799902Y-71167176D01*
X199750334Y-70749549D01*
X199620243Y-70349617D01*
X199462214Y-70053962D01*
X199146653Y-69897952D01*
X197834605Y-71210000D01*
X197475395Y-71210000D01*
X196163347Y-69897952D01*
X195847786Y-70053962D01*
X195656980Y-70428745D01*
X195542956Y-70833551D01*
X195510098Y-71252824D01*
X150398638Y-71252824D01*
X150402000Y-71235924D01*
X150402000Y-71004076D01*
X150356769Y-70776682D01*
X150268044Y-70562481D01*
X150139236Y-70369706D01*
X149975294Y-70205764D01*
X149782519Y-70076956D01*
X149617821Y-70008736D01*
X149856252Y-69924157D01*
X150106355Y-69775178D01*
X150169403Y-69718347D01*
X196342952Y-69718347D01*
X197655000Y-71030395D01*
X198967048Y-69718347D01*
X198811038Y-69402786D01*
X198436255Y-69211980D01*
X198031449Y-69097956D01*
X197612176Y-69065098D01*
X197194549Y-69114666D01*
X196794617Y-69244757D01*
X196498962Y-69402786D01*
X196342952Y-69718347D01*
X150169403Y-69718347D01*
X150322588Y-69580269D01*
X150496641Y-69346920D01*
X150621825Y-69084099D01*
X150666476Y-68936890D01*
X150545155Y-68707000D01*
X149352000Y-68707000D01*
X149352000Y-68727000D01*
X149098000Y-68727000D01*
X149098000Y-68707000D01*
X147904845Y-68707000D01*
X147783524Y-68936890D01*
X147828175Y-69084099D01*
X147953359Y-69346920D01*
X148127412Y-69580269D01*
X148343645Y-69775178D01*
X148593748Y-69924157D01*
X148832179Y-70008736D01*
X148667481Y-70076956D01*
X148474706Y-70205764D01*
X148310764Y-70369706D01*
X148181956Y-70562481D01*
X148093231Y-70776682D01*
X148048000Y-71004076D01*
X148048000Y-71235924D01*
X148093231Y-71463318D01*
X148136939Y-71568837D01*
X133681096Y-86024681D01*
X133663842Y-86038841D01*
X133607358Y-86107667D01*
X133565386Y-86186191D01*
X133539540Y-86271393D01*
X133530813Y-86360000D01*
X133533001Y-86382215D01*
X133533000Y-120833249D01*
X133427481Y-120876956D01*
X133234706Y-121005764D01*
X133167000Y-121073470D01*
X133167000Y-85662339D01*
X133178436Y-85654698D01*
X133279698Y-85553436D01*
X133359259Y-85434364D01*
X133414062Y-85302058D01*
X133442000Y-85161603D01*
X133442000Y-85018397D01*
X133414062Y-84877942D01*
X133359259Y-84745636D01*
X133279698Y-84626564D01*
X133178436Y-84525302D01*
X133059364Y-84445741D01*
X132927058Y-84390938D01*
X132786603Y-84363000D01*
X132643397Y-84363000D01*
X132502942Y-84390938D01*
X132370636Y-84445741D01*
X132251564Y-84525302D01*
X132150302Y-84626564D01*
X132070741Y-84745636D01*
X132015938Y-84877942D01*
X131988000Y-85018397D01*
X131988000Y-85161603D01*
X132015938Y-85302058D01*
X132070741Y-85434364D01*
X132150302Y-85553436D01*
X132251564Y-85654698D01*
X132263001Y-85662340D01*
X132263000Y-121073470D01*
X132195294Y-121005764D01*
X132002519Y-120876956D01*
X131897000Y-120833249D01*
X131897000Y-88202339D01*
X131908436Y-88194698D01*
X132009698Y-88093436D01*
X132089259Y-87974364D01*
X132144062Y-87842058D01*
X132172000Y-87701603D01*
X132172000Y-87558397D01*
X132144062Y-87417942D01*
X132089259Y-87285636D01*
X132009698Y-87166564D01*
X131908436Y-87065302D01*
X131789364Y-86985741D01*
X131657058Y-86930938D01*
X131516603Y-86903000D01*
X131373397Y-86903000D01*
X131232942Y-86930938D01*
X131100636Y-86985741D01*
X130981564Y-87065302D01*
X130880302Y-87166564D01*
X130800741Y-87285636D01*
X130745938Y-87417942D01*
X130718000Y-87558397D01*
X130718000Y-87701603D01*
X130745938Y-87842058D01*
X130800741Y-87974364D01*
X130880302Y-88093436D01*
X130981564Y-88194698D01*
X130993001Y-88202340D01*
X130993000Y-120833249D01*
X130887481Y-120876956D01*
X130694706Y-121005764D01*
X130530764Y-121169706D01*
X130401956Y-121362481D01*
X130313231Y-121576682D01*
X130268000Y-121804076D01*
X130268000Y-122035924D01*
X130313231Y-122263318D01*
X130356939Y-122368838D01*
X129871096Y-122854681D01*
X129853842Y-122868841D01*
X129797358Y-122937667D01*
X129755386Y-123016191D01*
X129729540Y-123101393D01*
X129720813Y-123190000D01*
X129723001Y-123212215D01*
X129723000Y-126153470D01*
X129655294Y-126085764D01*
X129462519Y-125956956D01*
X129248318Y-125868231D01*
X129020924Y-125823000D01*
X128789076Y-125823000D01*
X128561682Y-125868231D01*
X128347481Y-125956956D01*
X128154706Y-126085764D01*
X128087000Y-126153470D01*
X128087000Y-123377223D01*
X128456162Y-123008061D01*
X128561682Y-123051769D01*
X128789076Y-123097000D01*
X129020924Y-123097000D01*
X129248318Y-123051769D01*
X129462519Y-122963044D01*
X129655294Y-122834236D01*
X129819236Y-122670294D01*
X129948044Y-122477519D01*
X130036769Y-122263318D01*
X130082000Y-122035924D01*
X130082000Y-121804076D01*
X130036769Y-121576682D01*
X129948044Y-121362481D01*
X129819236Y-121169706D01*
X129655294Y-121005764D01*
X129462519Y-120876956D01*
X129357000Y-120833249D01*
X129357000Y-90742339D01*
X129368436Y-90734698D01*
X129469698Y-90633436D01*
X129549259Y-90514364D01*
X129604062Y-90382058D01*
X129632000Y-90241603D01*
X129632000Y-90098397D01*
X129604062Y-89957942D01*
X129549259Y-89825636D01*
X129469698Y-89706564D01*
X129368436Y-89605302D01*
X129249364Y-89525741D01*
X129117058Y-89470938D01*
X128976603Y-89443000D01*
X128833397Y-89443000D01*
X128692942Y-89470938D01*
X128560636Y-89525741D01*
X128441564Y-89605302D01*
X128340302Y-89706564D01*
X128260741Y-89825636D01*
X128205938Y-89957942D01*
X128178000Y-90098397D01*
X128178000Y-90241603D01*
X128205938Y-90382058D01*
X128260741Y-90514364D01*
X128340302Y-90633436D01*
X128441564Y-90734698D01*
X128453001Y-90742340D01*
X128453000Y-120833249D01*
X128347481Y-120876956D01*
X128154706Y-121005764D01*
X128087000Y-121073470D01*
X128087000Y-83122339D01*
X128098436Y-83114698D01*
X128199698Y-83013436D01*
X128279259Y-82894364D01*
X128334062Y-82762058D01*
X128362000Y-82621603D01*
X128362000Y-82478397D01*
X128334062Y-82337942D01*
X128279259Y-82205636D01*
X128199698Y-82086564D01*
X128098436Y-81985302D01*
X127979364Y-81905741D01*
X127847058Y-81850938D01*
X127706603Y-81823000D01*
X127563397Y-81823000D01*
X127422942Y-81850938D01*
X127290636Y-81905741D01*
X127171564Y-81985302D01*
X127070302Y-82086564D01*
X126990741Y-82205636D01*
X126935938Y-82337942D01*
X126908000Y-82478397D01*
X126908000Y-82621603D01*
X126935938Y-82762058D01*
X126990741Y-82894364D01*
X127070302Y-83013436D01*
X127171564Y-83114698D01*
X127183001Y-83122340D01*
X127183000Y-121073470D01*
X127115294Y-121005764D01*
X126922519Y-120876956D01*
X126708318Y-120788231D01*
X126480924Y-120743000D01*
X126249076Y-120743000D01*
X126021682Y-120788231D01*
X125807481Y-120876956D01*
X125614706Y-121005764D01*
X125450764Y-121169706D01*
X125321956Y-121362481D01*
X125233231Y-121576682D01*
X125188000Y-121804076D01*
X125188000Y-122035924D01*
X125233231Y-122263318D01*
X125276939Y-122368838D01*
X124791096Y-122854681D01*
X124773842Y-122868841D01*
X124717358Y-122937667D01*
X124675386Y-123016191D01*
X124649540Y-123101393D01*
X124640813Y-123190000D01*
X124643001Y-123212215D01*
X124643000Y-126153470D01*
X124575294Y-126085764D01*
X124382519Y-125956956D01*
X124168318Y-125868231D01*
X123940924Y-125823000D01*
X123709076Y-125823000D01*
X123481682Y-125868231D01*
X123267481Y-125956956D01*
X123074706Y-126085764D01*
X123007000Y-126153470D01*
X123007000Y-123377223D01*
X123376162Y-123008061D01*
X123481682Y-123051769D01*
X123709076Y-123097000D01*
X123940924Y-123097000D01*
X124168318Y-123051769D01*
X124382519Y-122963044D01*
X124575294Y-122834236D01*
X124739236Y-122670294D01*
X124868044Y-122477519D01*
X124956769Y-122263318D01*
X125002000Y-122035924D01*
X125002000Y-121804076D01*
X124956769Y-121576682D01*
X124868044Y-121362481D01*
X124739236Y-121169706D01*
X124575294Y-121005764D01*
X124382519Y-120876956D01*
X124168318Y-120788231D01*
X123940924Y-120743000D01*
X123709076Y-120743000D01*
X123481682Y-120788231D01*
X123267481Y-120876956D01*
X123074706Y-121005764D01*
X123007000Y-121073470D01*
X123007000Y-78042339D01*
X123018436Y-78034698D01*
X123119698Y-77933436D01*
X123199259Y-77814364D01*
X123254062Y-77682058D01*
X123282000Y-77541603D01*
X123282000Y-77398397D01*
X123254062Y-77257942D01*
X123199259Y-77125636D01*
X123119698Y-77006564D01*
X123018436Y-76905302D01*
X122899364Y-76825741D01*
X122767058Y-76770938D01*
X122626603Y-76743000D01*
X122483397Y-76743000D01*
X122342942Y-76770938D01*
X122210636Y-76825741D01*
X122091564Y-76905302D01*
X121990302Y-77006564D01*
X121910741Y-77125636D01*
X121855938Y-77257942D01*
X121828000Y-77398397D01*
X121828000Y-77541603D01*
X121855938Y-77682058D01*
X121910741Y-77814364D01*
X121990302Y-77933436D01*
X122091564Y-78034698D01*
X122103001Y-78042340D01*
X122103000Y-121073470D01*
X122035294Y-121005764D01*
X121842519Y-120876956D01*
X121737000Y-120833249D01*
X121737000Y-80582339D01*
X121748436Y-80574698D01*
X121849698Y-80473436D01*
X121929259Y-80354364D01*
X121984062Y-80222058D01*
X122012000Y-80081603D01*
X122012000Y-79938397D01*
X121984062Y-79797942D01*
X121929259Y-79665636D01*
X121849698Y-79546564D01*
X121748436Y-79445302D01*
X121629364Y-79365741D01*
X121497058Y-79310938D01*
X121356603Y-79283000D01*
X121213397Y-79283000D01*
X121072942Y-79310938D01*
X120940636Y-79365741D01*
X120821564Y-79445302D01*
X120720302Y-79546564D01*
X120640741Y-79665636D01*
X120585938Y-79797942D01*
X120558000Y-79938397D01*
X120558000Y-80081603D01*
X120585938Y-80222058D01*
X120640741Y-80354364D01*
X120720302Y-80473436D01*
X120821564Y-80574698D01*
X120833001Y-80582340D01*
X120833000Y-120833249D01*
X120727481Y-120876956D01*
X120534706Y-121005764D01*
X120370764Y-121169706D01*
X120241956Y-121362481D01*
X120153231Y-121576682D01*
X120108000Y-121804076D01*
X120108000Y-122035924D01*
X120153231Y-122263318D01*
X120196939Y-122368838D01*
X119711096Y-122854681D01*
X119693842Y-122868841D01*
X119637358Y-122937667D01*
X119595386Y-123016191D01*
X119569540Y-123101393D01*
X119560813Y-123190000D01*
X119563001Y-123212215D01*
X119563000Y-126153470D01*
X119495294Y-126085764D01*
X119302519Y-125956956D01*
X119088318Y-125868231D01*
X118860924Y-125823000D01*
X118629076Y-125823000D01*
X118401682Y-125868231D01*
X118187481Y-125956956D01*
X117994706Y-126085764D01*
X117927000Y-126153470D01*
X117927000Y-123377223D01*
X118296162Y-123008061D01*
X118401682Y-123051769D01*
X118629076Y-123097000D01*
X118860924Y-123097000D01*
X119088318Y-123051769D01*
X119302519Y-122963044D01*
X119495294Y-122834236D01*
X119659236Y-122670294D01*
X119788044Y-122477519D01*
X119876769Y-122263318D01*
X119922000Y-122035924D01*
X119922000Y-121804076D01*
X119876769Y-121576682D01*
X119788044Y-121362481D01*
X119659236Y-121169706D01*
X119495294Y-121005764D01*
X119302519Y-120876956D01*
X119197000Y-120833249D01*
X119197000Y-75502339D01*
X119208436Y-75494698D01*
X119309698Y-75393436D01*
X119389259Y-75274364D01*
X119444062Y-75142058D01*
X119472000Y-75001603D01*
X119472000Y-74858397D01*
X119444062Y-74717942D01*
X119389259Y-74585636D01*
X119309698Y-74466564D01*
X119208436Y-74365302D01*
X119089364Y-74285741D01*
X118957058Y-74230938D01*
X118816603Y-74203000D01*
X118673397Y-74203000D01*
X118532942Y-74230938D01*
X118400636Y-74285741D01*
X118281564Y-74365302D01*
X118180302Y-74466564D01*
X118100741Y-74585636D01*
X118045938Y-74717942D01*
X118018000Y-74858397D01*
X118018000Y-75001603D01*
X118045938Y-75142058D01*
X118100741Y-75274364D01*
X118180302Y-75393436D01*
X118281564Y-75494698D01*
X118293001Y-75502340D01*
X118293000Y-120833249D01*
X118187481Y-120876956D01*
X117994706Y-121005764D01*
X117832001Y-121168469D01*
X117832001Y-105337206D01*
X117834188Y-105315001D01*
X117825461Y-105226393D01*
X117799615Y-105141191D01*
X117757643Y-105062667D01*
X117750724Y-105054236D01*
X117701160Y-104993842D01*
X117683906Y-104979682D01*
X85543061Y-72838838D01*
X85586769Y-72733318D01*
X85632000Y-72505924D01*
X85632000Y-72274076D01*
X85586769Y-72046682D01*
X85498044Y-71832481D01*
X85369236Y-71639706D01*
X85205294Y-71475764D01*
X85012519Y-71346956D01*
X84798318Y-71258231D01*
X84570924Y-71213000D01*
X84339076Y-71213000D01*
X84111682Y-71258231D01*
X83897481Y-71346956D01*
X83704706Y-71475764D01*
X83540764Y-71639706D01*
X83411956Y-71832481D01*
X83323231Y-72046682D01*
X83278000Y-72274076D01*
X83278000Y-72505924D01*
X83323231Y-72733318D01*
X83411956Y-72947519D01*
X83540764Y-73140294D01*
X83704706Y-73304236D01*
X83897481Y-73433044D01*
X84111682Y-73521769D01*
X84339076Y-73567000D01*
X84570924Y-73567000D01*
X84798318Y-73521769D01*
X84903838Y-73478061D01*
X116928002Y-105502226D01*
X116928001Y-120987527D01*
X116762519Y-120876956D01*
X116548318Y-120788231D01*
X116320924Y-120743000D01*
X116089076Y-120743000D01*
X115861682Y-120788231D01*
X115647481Y-120876956D01*
X115454706Y-121005764D01*
X115290764Y-121169706D01*
X115161956Y-121362481D01*
X115073231Y-121576682D01*
X115028000Y-121804076D01*
X115028000Y-122035924D01*
X115073231Y-122263318D01*
X115116939Y-122368838D01*
X114631096Y-122854681D01*
X114613842Y-122868841D01*
X114557358Y-122937667D01*
X114515386Y-123016191D01*
X114489540Y-123101393D01*
X114480813Y-123190000D01*
X114483001Y-123212215D01*
X114483000Y-127765276D01*
X114390960Y-127857317D01*
X108831070Y-129092848D01*
X108813892Y-129094540D01*
X108787693Y-129102487D01*
X108782772Y-129103581D01*
X108766504Y-129108915D01*
X108728690Y-129120386D01*
X108724198Y-129122787D01*
X108719370Y-129124370D01*
X108685007Y-129143735D01*
X108650166Y-129162358D01*
X108646232Y-129165586D01*
X108641802Y-129168083D01*
X108611854Y-129193801D01*
X108598589Y-129204687D01*
X108595017Y-129208259D01*
X108574254Y-129226089D01*
X108563608Y-129239668D01*
X108281095Y-129522182D01*
X108263842Y-129536341D01*
X108207358Y-129605167D01*
X108165386Y-129683691D01*
X108139540Y-129768893D01*
X108130813Y-129857500D01*
X108133001Y-129879715D01*
X108133001Y-130048000D01*
X106501314Y-130048000D01*
X106498779Y-130039644D01*
X106466093Y-129978493D01*
X106422106Y-129924894D01*
X106368507Y-129880907D01*
X106307356Y-129848221D01*
X106241004Y-129828093D01*
X106189292Y-129823000D01*
X106172000Y-129821297D01*
X106154709Y-129823000D01*
X80997000Y-129823000D01*
X80997000Y-93869000D01*
X83328000Y-93869000D01*
X83328000Y-94091000D01*
X83371310Y-94308734D01*
X83456266Y-94513835D01*
X83579602Y-94698421D01*
X83736579Y-94855398D01*
X83921165Y-94978734D01*
X84126266Y-95063690D01*
X84344000Y-95107000D01*
X84566000Y-95107000D01*
X84783734Y-95063690D01*
X84988835Y-94978734D01*
X84997862Y-94972702D01*
X88641903Y-94972702D01*
X88713486Y-95216671D01*
X88968996Y-95337571D01*
X89243184Y-95406300D01*
X89525512Y-95420217D01*
X89805130Y-95378787D01*
X90071292Y-95283603D01*
X90196514Y-95216671D01*
X90268097Y-94972702D01*
X89455000Y-94159605D01*
X88641903Y-94972702D01*
X84997862Y-94972702D01*
X85173421Y-94855398D01*
X85330398Y-94698421D01*
X85453734Y-94513835D01*
X85538690Y-94308734D01*
X85582000Y-94091000D01*
X85582000Y-94050512D01*
X88014783Y-94050512D01*
X88056213Y-94330130D01*
X88151397Y-94596292D01*
X88218329Y-94721514D01*
X88462298Y-94793097D01*
X89275395Y-93980000D01*
X89634605Y-93980000D01*
X90447702Y-94793097D01*
X90691671Y-94721514D01*
X90812571Y-94466004D01*
X90881300Y-94191816D01*
X90895217Y-93909488D01*
X90853787Y-93629870D01*
X90758603Y-93363708D01*
X90691671Y-93238486D01*
X90447702Y-93166903D01*
X89634605Y-93980000D01*
X89275395Y-93980000D01*
X88462298Y-93166903D01*
X88218329Y-93238486D01*
X88097429Y-93493996D01*
X88028700Y-93768184D01*
X88014783Y-94050512D01*
X85582000Y-94050512D01*
X85582000Y-93869000D01*
X85538690Y-93651266D01*
X85453734Y-93446165D01*
X85330398Y-93261579D01*
X85173421Y-93104602D01*
X84997863Y-92987298D01*
X88641903Y-92987298D01*
X89455000Y-93800395D01*
X90268097Y-92987298D01*
X90196514Y-92743329D01*
X89941004Y-92622429D01*
X89666816Y-92553700D01*
X89384488Y-92539783D01*
X89104870Y-92581213D01*
X88838708Y-92676397D01*
X88713486Y-92743329D01*
X88641903Y-92987298D01*
X84997863Y-92987298D01*
X84988835Y-92981266D01*
X84783734Y-92896310D01*
X84566000Y-92853000D01*
X84344000Y-92853000D01*
X84126266Y-92896310D01*
X83921165Y-92981266D01*
X83736579Y-93104602D01*
X83579602Y-93261579D01*
X83456266Y-93446165D01*
X83371310Y-93651266D01*
X83328000Y-93869000D01*
X80997000Y-93869000D01*
X80997000Y-89320000D01*
X83276418Y-89320000D01*
X83276418Y-91020000D01*
X83282732Y-91084103D01*
X83301430Y-91145743D01*
X83331794Y-91202550D01*
X83372657Y-91252343D01*
X83422450Y-91293206D01*
X83479257Y-91323570D01*
X83540897Y-91342268D01*
X83605000Y-91348582D01*
X85305000Y-91348582D01*
X85369103Y-91342268D01*
X85430743Y-91323570D01*
X85487550Y-91293206D01*
X85537343Y-91252343D01*
X85578206Y-91202550D01*
X85608570Y-91145743D01*
X85627268Y-91084103D01*
X85633582Y-91020000D01*
X85633582Y-89320000D01*
X85627268Y-89255897D01*
X85608570Y-89194257D01*
X85578206Y-89137450D01*
X85537343Y-89087657D01*
X85487550Y-89046794D01*
X85430743Y-89016430D01*
X85369103Y-88997732D01*
X85305000Y-88991418D01*
X83605000Y-88991418D01*
X83540897Y-88997732D01*
X83479257Y-89016430D01*
X83422450Y-89046794D01*
X83372657Y-89087657D01*
X83331794Y-89137450D01*
X83301430Y-89194257D01*
X83282732Y-89255897D01*
X83276418Y-89320000D01*
X80997000Y-89320000D01*
X80997000Y-87514076D01*
X83278000Y-87514076D01*
X83278000Y-87745924D01*
X83323231Y-87973318D01*
X83411956Y-88187519D01*
X83540764Y-88380294D01*
X83704706Y-88544236D01*
X83897481Y-88673044D01*
X84111682Y-88761769D01*
X84339076Y-88807000D01*
X84570924Y-88807000D01*
X84798318Y-88761769D01*
X85012519Y-88673044D01*
X85205294Y-88544236D01*
X85369236Y-88380294D01*
X85498044Y-88187519D01*
X85586769Y-87973318D01*
X85632000Y-87745924D01*
X85632000Y-87514076D01*
X85586769Y-87286682D01*
X85498044Y-87072481D01*
X85369236Y-86879706D01*
X85205294Y-86715764D01*
X85012519Y-86586956D01*
X84798318Y-86498231D01*
X84570924Y-86453000D01*
X84339076Y-86453000D01*
X84111682Y-86498231D01*
X83897481Y-86586956D01*
X83704706Y-86715764D01*
X83540764Y-86879706D01*
X83411956Y-87072481D01*
X83323231Y-87286682D01*
X83278000Y-87514076D01*
X80997000Y-87514076D01*
X80997000Y-84974076D01*
X83278000Y-84974076D01*
X83278000Y-85205924D01*
X83323231Y-85433318D01*
X83411956Y-85647519D01*
X83540764Y-85840294D01*
X83704706Y-86004236D01*
X83897481Y-86133044D01*
X84111682Y-86221769D01*
X84339076Y-86267000D01*
X84570924Y-86267000D01*
X84798318Y-86221769D01*
X85012519Y-86133044D01*
X85205294Y-86004236D01*
X85369236Y-85840294D01*
X85498044Y-85647519D01*
X85586769Y-85433318D01*
X85632000Y-85205924D01*
X85632000Y-84974076D01*
X85586769Y-84746682D01*
X85498044Y-84532481D01*
X85369236Y-84339706D01*
X85205294Y-84175764D01*
X85012519Y-84046956D01*
X84798318Y-83958231D01*
X84570924Y-83913000D01*
X84339076Y-83913000D01*
X84111682Y-83958231D01*
X83897481Y-84046956D01*
X83704706Y-84175764D01*
X83540764Y-84339706D01*
X83411956Y-84532481D01*
X83323231Y-84746682D01*
X83278000Y-84974076D01*
X80997000Y-84974076D01*
X80997000Y-82434076D01*
X83278000Y-82434076D01*
X83278000Y-82665924D01*
X83323231Y-82893318D01*
X83411956Y-83107519D01*
X83540764Y-83300294D01*
X83704706Y-83464236D01*
X83897481Y-83593044D01*
X84111682Y-83681769D01*
X84339076Y-83727000D01*
X84570924Y-83727000D01*
X84798318Y-83681769D01*
X85012519Y-83593044D01*
X85205294Y-83464236D01*
X85369236Y-83300294D01*
X85498044Y-83107519D01*
X85586769Y-82893318D01*
X85632000Y-82665924D01*
X85632000Y-82434076D01*
X85586769Y-82206682D01*
X85498044Y-81992481D01*
X85369236Y-81799706D01*
X85205294Y-81635764D01*
X85012519Y-81506956D01*
X84798318Y-81418231D01*
X84570924Y-81373000D01*
X84339076Y-81373000D01*
X84111682Y-81418231D01*
X83897481Y-81506956D01*
X83704706Y-81635764D01*
X83540764Y-81799706D01*
X83411956Y-81992481D01*
X83323231Y-82206682D01*
X83278000Y-82434076D01*
X80997000Y-82434076D01*
X80997000Y-79894076D01*
X83278000Y-79894076D01*
X83278000Y-80125924D01*
X83323231Y-80353318D01*
X83411956Y-80567519D01*
X83540764Y-80760294D01*
X83704706Y-80924236D01*
X83897481Y-81053044D01*
X84111682Y-81141769D01*
X84339076Y-81187000D01*
X84570924Y-81187000D01*
X84798318Y-81141769D01*
X85012519Y-81053044D01*
X85205294Y-80924236D01*
X85369236Y-80760294D01*
X85498044Y-80567519D01*
X85586769Y-80353318D01*
X85632000Y-80125924D01*
X85632000Y-79894076D01*
X85586769Y-79666682D01*
X85498044Y-79452481D01*
X85369236Y-79259706D01*
X85205294Y-79095764D01*
X85012519Y-78966956D01*
X84798318Y-78878231D01*
X84570924Y-78833000D01*
X84339076Y-78833000D01*
X84111682Y-78878231D01*
X83897481Y-78966956D01*
X83704706Y-79095764D01*
X83540764Y-79259706D01*
X83411956Y-79452481D01*
X83323231Y-79666682D01*
X83278000Y-79894076D01*
X80997000Y-79894076D01*
X80997000Y-77354076D01*
X83278000Y-77354076D01*
X83278000Y-77585924D01*
X83323231Y-77813318D01*
X83411956Y-78027519D01*
X83540764Y-78220294D01*
X83704706Y-78384236D01*
X83897481Y-78513044D01*
X84111682Y-78601769D01*
X84339076Y-78647000D01*
X84570924Y-78647000D01*
X84798318Y-78601769D01*
X85012519Y-78513044D01*
X85205294Y-78384236D01*
X85369236Y-78220294D01*
X85498044Y-78027519D01*
X85586769Y-77813318D01*
X85632000Y-77585924D01*
X85632000Y-77354076D01*
X85586769Y-77126682D01*
X85498044Y-76912481D01*
X85369236Y-76719706D01*
X85205294Y-76555764D01*
X85012519Y-76426956D01*
X84798318Y-76338231D01*
X84570924Y-76293000D01*
X84339076Y-76293000D01*
X84111682Y-76338231D01*
X83897481Y-76426956D01*
X83704706Y-76555764D01*
X83540764Y-76719706D01*
X83411956Y-76912481D01*
X83323231Y-77126682D01*
X83278000Y-77354076D01*
X80997000Y-77354076D01*
X80997000Y-74814076D01*
X83278000Y-74814076D01*
X83278000Y-75045924D01*
X83323231Y-75273318D01*
X83411956Y-75487519D01*
X83540764Y-75680294D01*
X83704706Y-75844236D01*
X83897481Y-75973044D01*
X84111682Y-76061769D01*
X84339076Y-76107000D01*
X84570924Y-76107000D01*
X84798318Y-76061769D01*
X85012519Y-75973044D01*
X85205294Y-75844236D01*
X85369236Y-75680294D01*
X85498044Y-75487519D01*
X85586769Y-75273318D01*
X85632000Y-75045924D01*
X85632000Y-74814076D01*
X85586769Y-74586682D01*
X85498044Y-74372481D01*
X85369236Y-74179706D01*
X85205294Y-74015764D01*
X85012519Y-73886956D01*
X84798318Y-73798231D01*
X84570924Y-73753000D01*
X84339076Y-73753000D01*
X84111682Y-73798231D01*
X83897481Y-73886956D01*
X83704706Y-74015764D01*
X83540764Y-74179706D01*
X83411956Y-74372481D01*
X83323231Y-74586682D01*
X83278000Y-74814076D01*
X80997000Y-74814076D01*
X80997000Y-71070767D01*
X97992918Y-66396890D01*
X147783524Y-66396890D01*
X147828175Y-66544099D01*
X147953359Y-66806920D01*
X148127412Y-67040269D01*
X148343645Y-67235178D01*
X148469255Y-67310000D01*
X148343645Y-67384822D01*
X148127412Y-67579731D01*
X147953359Y-67813080D01*
X147828175Y-68075901D01*
X147783524Y-68223110D01*
X147904845Y-68453000D01*
X149098000Y-68453000D01*
X149098000Y-66167000D01*
X149352000Y-66167000D01*
X149352000Y-68453000D01*
X150545155Y-68453000D01*
X150666476Y-68223110D01*
X150621825Y-68075901D01*
X150496641Y-67813080D01*
X150322588Y-67579731D01*
X150106355Y-67384822D01*
X149980745Y-67310000D01*
X150106355Y-67235178D01*
X150322588Y-67040269D01*
X150496641Y-66806920D01*
X150621825Y-66544099D01*
X150666476Y-66396890D01*
X150545155Y-66167000D01*
X149352000Y-66167000D01*
X149098000Y-66167000D01*
X147904845Y-66167000D01*
X147783524Y-66396890D01*
X97992918Y-66396890D01*
X100588482Y-65683110D01*
X147783524Y-65683110D01*
X147904845Y-65913000D01*
X149098000Y-65913000D01*
X149098000Y-64719186D01*
X149352000Y-64719186D01*
X149352000Y-65913000D01*
X150545155Y-65913000D01*
X150666476Y-65683110D01*
X150621825Y-65535901D01*
X150496641Y-65273080D01*
X150322588Y-65039731D01*
X150106355Y-64844822D01*
X149856252Y-64695843D01*
X149581891Y-64598519D01*
X149352000Y-64719186D01*
X149098000Y-64719186D01*
X148868109Y-64598519D01*
X148593748Y-64695843D01*
X148343645Y-64844822D01*
X148127412Y-65039731D01*
X147953359Y-65273080D01*
X147828175Y-65535901D01*
X147783524Y-65683110D01*
X100588482Y-65683110D01*
X118792521Y-60677000D01*
X206023001Y-60677000D01*
X206023000Y-129823000D01*
G37*
G04 #@! TD.AperFunction*
M02*
